rawline-100i.ufo
<glyph name="exclam" format="2">
  <advance width="458"/>
  <unicode hex="0021"/>
  <outline>
    <contour>
      <point x="166" y="410" type="line"/>
      <point x="389" y="1468" type="line"/>
      <point x="430" y="1468" type="line"/>
      <point x="207" y="410" type="line"/>
    </contour>
    <contour>
      <point x="78" y="0" type="line"/>
      <point x="115" y="172" type="line"/>
      <point x="166" y="172" type="line"/>
      <point x="119" y="0" type="line"/>
    </contour>
  </outline>
</glyph>
<glyph name="quotedbl" format="2">
  <advance width="434"/>
  <unicode hex="0022"/>
  <outline>
    <contour>
      <point x="260" y="1167" type="line"/>
      <point x="322" y="1454" type="line"/>
      <point x="362" y="1454" type="line"/>
      <point x="301" y="1167" type="line"/>
    </contour>
    <contour>
      <point x="358" y="1167" type="line"/>
      <point x="420" y="1454" type="line"/>
      <point x="461" y="1454" type="line"/>
      <point x="399" y="1167" type="line"/>
    </contour>
  </outline>
</glyph>
<glyph name="numbersign" format="2">
  <advance width="1275"/>
  <unicode hex="0023"/>
  <outline>
    <contour>
      <point x="1276" y="985" type="line"/>
      <point x="1047" y="985" type="line"/>
      <point x="829" y="494" type="line"/>
      <point x="1094" y="494" type="line"/>
      <point x="1085" y="453" type="line"/>
      <point x="811" y="453" type="line"/>
      <point x="612" y="0" type="line"/>
      <point x="569" y="0" type="line"/>
      <point x="770" y="453" type="line"/>
      <point x="305" y="453" type="line"/>
      <point x="106" y="0" type="line"/>
      <point x="63" y="0" type="line"/>
      <point x="264" y="453" type="line"/>
      <point x="45" y="453" type="line"/>
      <point x="53" y="494" type="line"/>
      <point x="285" y="494" type="line"/>
      <point x="500" y="985" type="line"/>
      <point x="236" y="985" type="line"/>
      <point x="246" y="1026" type="line"/>
      <point x="520" y="1026" type="line"/>
      <point x="709" y="1454" type="line"/>
      <point x="752" y="1454" type="line"/>
      <point x="559" y="1026" type="line"/>
      <point x="1024" y="1026" type="line"/>
      <point x="1214" y="1454" type="line"/>
      <point x="1257" y="1454" type="line"/>
      <point x="1065" y="1026" type="line"/>
      <point x="1284" y="1026" type="line"/>
    </contour>
    <contour>
      <point x="788" y="494" type="line"/>
      <point x="1006" y="985" type="line"/>
      <point x="541" y="985" type="line"/>
      <point x="324" y="494" type="line"/>
    </contour>
  </outline>
</glyph>
<glyph name="dollar" format="2">
  <advance width="1206"/>
  <unicode hex="0024"/>
  <outline>
    <contour>
      <point x="811" y="1464" type="line"/>
      <point x="943" y="1464"/>
      <point x="1121" y="1381"/>
      <point x="1182" y="1290" type="qcurve"/>
      <point x="1149" y="1262" type="line"/>
      <point x="1089" y="1354"/>
      <point x="931" y="1425"/>
      <point x="803" y="1425" type="qcurve"/>
      <point x="659" y="745" type="line"/>
      <point x="742" y="726"/>
      <point x="857" y="691"/>
      <point x="968" y="639"/>
      <point x="1035" y="575"/>
      <point x="1075" y="484"/>
      <point x="1075" y="426" type="qcurve" smooth="yes"/>
      <point x="1075" y="224"/>
      <point x="764" y="-10"/>
      <point x="502" y="-10" type="qcurve" smooth="yes"/>
      <point x="498" y="-10" type="line"/>
      <point x="461" y="-190" type="line"/>
      <point x="420" y="-190" type="line"/>
      <point x="459" y="-10" type="line"/>
      <point x="310" y="-3"/>
      <point x="92" y="108"/>
      <point x="12" y="215" type="qcurve"/>
      <point x="47" y="242" type="line"/>
      <point x="121" y="137"/>
      <point x="326" y="33"/>
      <point x="467" y="27" type="qcurve"/>
      <point x="612" y="715" type="line"/>
      <point x="514" y="736"/>
      <point x="386" y="779"/>
      <point x="280" y="845"/>
      <point x="231" y="940"/>
      <point x="231" y="1006" type="qcurve" smooth="yes"/>
      <point x="231" y="1209"/>
      <point x="529" y="1455"/>
      <point x="772" y="1464" type="qcurve"/>
      <point x="815" y="1669" type="line"/>
      <point x="856" y="1669" type="line"/>
    </contour>
    <contour>
      <point x="274" y="1014" type="qcurve" smooth="yes"/>
      <point x="274" y="958"/>
      <point x="315" y="877"/>
      <point x="408" y="817"/>
      <point x="527" y="776"/>
      <point x="621" y="754" type="qcurve"/>
      <point x="764" y="1425" type="line"/>
      <point x="516" y="1416"/>
      <point x="274" y="1191"/>
    </contour>
    <contour>
      <point x="1032" y="416" type="qcurve" smooth="yes"/>
      <point x="1032" y="534"/>
      <point x="853" y="662"/>
      <point x="651" y="707" type="qcurve"/>
      <point x="506" y="25" type="line"/>
      <point x="512" y="25" type="line" smooth="yes"/>
      <point x="753" y="25"/>
      <point x="1032" y="227"/>
    </contour>
  </outline>
</glyph>
<glyph name="percent" format="2">
  <advance width="1318"/>
  <unicode hex="0025"/>
  <outline>
    <contour>
      <point x="215" y="1141" type="qcurve" smooth="yes"/>
      <point x="215" y="1273"/>
      <point x="422" y="1475"/>
      <point x="551" y="1475" type="qcurve" smooth="yes"/>
      <point x="645" y="1475"/>
      <point x="766" y="1341"/>
      <point x="766" y="1243" type="qcurve" smooth="yes"/>
      <point x="766" y="1156"/>
      <point x="669" y="1001"/>
      <point x="513" y="909"/>
      <point x="430" y="909" type="qcurve" smooth="yes"/>
      <point x="335" y="909"/>
      <point x="215" y="1042"/>
    </contour>
    <contour>
      <point x="-27" y="23" type="line"/>
      <point x="1364" y="1456" type="line"/>
      <point x="1391" y="1432" type="line"/>
      <point x="0" y="-2" type="line"/>
    </contour>
    <contour>
      <point x="725" y="1235" type="qcurve" smooth="yes"/>
      <point x="725" y="1320"/>
      <point x="619" y="1434"/>
      <point x="541" y="1434" type="qcurve" smooth="yes"/>
      <point x="432" y="1434"/>
      <point x="256" y="1258"/>
      <point x="256" y="1149" type="qcurve" smooth="yes"/>
      <point x="256" y="1064"/>
      <point x="359" y="950"/>
      <point x="438" y="950" type="qcurve" smooth="yes"/>
      <point x="547" y="950"/>
      <point x="725" y="1126"/>
    </contour>
    <contour>
      <point x="600" y="211" type="qcurve" smooth="yes"/>
      <point x="600" y="298"/>
      <point x="697" y="453"/>
      <point x="853" y="545"/>
      <point x="936" y="545" type="qcurve" smooth="yes"/>
      <point x="1030" y="545"/>
      <point x="1151" y="411"/>
      <point x="1151" y="313" type="qcurve" smooth="yes"/>
      <point x="1151" y="180"/>
      <point x="944" y="-20"/>
      <point x="815" y="-20" type="qcurve" smooth="yes"/>
      <point x="721" y="-20"/>
      <point x="600" y="112"/>
    </contour>
    <contour>
      <point x="1110" y="303" type="qcurve" smooth="yes"/>
      <point x="1110" y="388"/>
      <point x="1006" y="504"/>
      <point x="928" y="504" type="qcurve" smooth="yes"/>
      <point x="819" y="504"/>
      <point x="641" y="327"/>
      <point x="641" y="217" type="qcurve" smooth="yes"/>
      <point x="641" y="133"/>
      <point x="742" y="20"/>
      <point x="823" y="20" type="qcurve" smooth="yes"/>
      <point x="932" y="20"/>
      <point x="1110" y="195"/>
    </contour>
  </outline>
</glyph>
<glyph name="ampersand" format="2">
  <advance width="1368"/>
  <unicode hex="0026"/>
  <outline>
    <contour>
      <point x="1335" y="811" type="line"/>
      <point x="1135" y="811" type="line"/>
      <point x="1071" y="507"/>
      <point x="899" y="285" type="qcurve"/>
      <point x="1098" y="0" type="line"/>
      <point x="1038" y="0" type="line"/>
      <point x="868" y="246" type="line"/>
      <point x="764" y="120"/>
      <point x="514" y="-20"/>
      <point x="385" y="-20" type="qcurve" smooth="yes"/>
      <point x="233" y="-20"/>
      <point x="41" y="168"/>
      <point x="41" y="319" type="qcurve" smooth="yes"/>
      <point x="41" y="463"/>
      <point x="237" y="714"/>
      <point x="461" y="840" type="qcurve"/>
      <point x="392" y="946"/>
      <point x="336" y="1078"/>
      <point x="336" y="1135" type="qcurve" smooth="yes"/>
      <point x="336" y="1268"/>
      <point x="579" y="1473"/>
      <point x="737" y="1473" type="qcurve" smooth="yes"/>
      <point x="846" y="1473"/>
      <point x="1019" y="1358"/>
      <point x="1063" y="1257" type="qcurve"/>
      <point x="1034" y="1233" type="line"/>
      <point x="994" y="1328"/>
      <point x="834" y="1436"/>
      <point x="731" y="1436" type="qcurve" smooth="yes"/>
      <point x="593" y="1436"/>
      <point x="377" y="1254"/>
      <point x="377" y="1137" type="qcurve" smooth="yes"/>
      <point x="377" y="1033"/>
      <point x="504" y="850" type="qcurve" smooth="yes"/>
      <point x="874" y="319" type="line"/>
      <point x="1044" y="553"/>
      <point x="1098" y="852" type="qcurve"/>
      <point x="1343" y="852" type="line"/>
    </contour>
    <contour>
      <point x="391" y="23" type="qcurve" smooth="yes"/>
      <point x="511" y="23"/>
      <point x="746" y="159"/>
      <point x="844" y="281" type="qcurve"/>
      <point x="520" y="752" type="line" smooth="yes"/>
      <point x="519" y="754"/>
      <point x="489" y="796"/>
      <point x="483" y="807" type="qcurve"/>
      <point x="274" y="687"/>
      <point x="86" y="458"/>
      <point x="86" y="324" type="qcurve" smooth="yes"/>
      <point x="86" y="191"/>
      <point x="256" y="23"/>
    </contour>
  </outline>
</glyph>
<glyph name="quotesingle" format="2">
  <advance width="333"/>
  <unicode hex="0027"/>
  <outline>
    <contour>
      <point x="260" y="1165" type="line"/>
      <point x="322" y="1454" type="line"/>
      <point x="362" y="1454" type="line"/>
      <point x="301" y="1165" type="line"/>
    </contour>
  </outline>
</glyph>
<glyph name="parenleft" format="2">
  <advance width="466"/>
  <unicode hex="0028"/>
  <outline>
    <contour>
      <point x="549" y="1487" type="qcurve"/>
      <point x="575" y="1462" type="line"/>
      <point x="496" y="1370"/>
      <point x="353" y="1163"/>
      <point x="220" y="919"/>
      <point x="141" y="657"/>
      <point x="141" y="541" type="qcurve" smooth="yes"/>
      <point x="141" y="406"/>
      <point x="202" y="95"/>
      <point x="258" y="-29" type="qcurve"/>
      <point x="221" y="-53" type="line"/>
      <point x="163" y="79"/>
      <point x="100" y="385"/>
      <point x="100" y="524" type="qcurve" smooth="yes"/>
      <point x="100" y="613"/>
      <point x="131" y="786"/>
      <point x="196" y="953"/>
      <point x="268" y="1097"/>
      <point x="382" y="1267"/>
      <point x="478" y="1396"/>
    </contour>
  </outline>
</glyph>
<glyph name="parenright" format="2">
  <advance width="466"/>
  <unicode hex="0029"/>
  <outline>
    <contour>
      <point x="-39" y="-53" type="qcurve"/>
      <point x="-66" y="-29" type="line"/>
      <point x="135" y="200"/>
      <point x="362" y="658"/>
      <point x="362" y="868" type="qcurve" smooth="yes"/>
      <point x="362" y="1016"/>
      <point x="299" y="1353"/>
      <point x="252" y="1462" type="qcurve"/>
      <point x="289" y="1487" type="line"/>
      <point x="406" y="1164"/>
      <point x="406" y="887" type="qcurve" smooth="yes"/>
      <point x="406" y="655"/>
      <point x="184" y="206"/>
    </contour>
  </outline>
</glyph>
<glyph name="asterisk" format="2">
  <advance width="600"/>
  <unicode hex="002A"/>
  <outline>
    <contour>
      <point x="295" y="1155" type="line"/>
      <point x="399" y="1272" type="line"/>
      <point x="279" y="1317" type="line"/>
      <point x="299" y="1356" type="line"/>
      <point x="420" y="1311" type="line"/>
      <point x="451" y="1454" type="line"/>
      <point x="489" y="1454" type="line"/>
      <point x="459" y="1311" type="line"/>
      <point x="602" y="1356" type="line"/>
      <point x="602" y="1317" type="line"/>
      <point x="463" y="1272" type="line"/>
      <point x="520" y="1155" type="line"/>
      <point x="481" y="1130" type="line"/>
      <point x="426" y="1247" type="line"/>
      <point x="322" y="1130" type="line"/>
    </contour>
  </outline>
</glyph>
<glyph name="plus" format="2">
  <advance width="839"/>
  <unicode hex="002B"/>
  <outline>
    <contour>
      <point x="748" y="748" type="line"/>
      <point x="748" y="707" type="line"/>
      <point x="461" y="707" type="line"/>
      <point x="461" y="399" type="line"/>
      <point x="420" y="399" type="line"/>
      <point x="420" y="707" type="line"/>
      <point x="133" y="707" type="line"/>
      <point x="133" y="748" type="line"/>
      <point x="420" y="748" type="line"/>
      <point x="420" y="1055" type="line"/>
      <point x="461" y="1055" type="line"/>
      <point x="461" y="748" type="line"/>
    </contour>
  </outline>
</glyph>
<glyph name="comma" format="2">
  <advance width="423"/>
  <unicode hex="002C"/>
  <outline>
    <contour>
      <point x="66" y="-166" type="line"/>
      <point x="117" y="-20" type="line"/>
      <point x="98" y="-20" type="line"/>
      <point x="131" y="131" type="line"/>
      <point x="182" y="131" type="line"/>
      <point x="150" y="-20" type="line"/>
      <point x="94" y="-166" type="line"/>
    </contour>
  </outline>
</glyph>
<glyph name="hyphen" format="2">
  <advance width="827"/>
  <unicode hex="002D"/>
  <outline>
    <contour>
      <point x="121" y="535" type="line"/>
      <point x="129" y="575" type="line"/>
      <point x="680" y="575" type="line"/>
      <point x="672" y="535" type="line"/>
    </contour>
  </outline>
</glyph>
<glyph name="period" format="2">
  <advance width="325"/>
  <unicode hex="002E"/>
  <outline>
    <contour>
      <point x="16" y="0" type="line"/>
      <point x="45" y="131" type="line"/>
      <point x="84" y="131" type="line"/>
      <point x="57" y="0" type="line"/>
    </contour>
  </outline>
</glyph>
<glyph name="slash" format="2">
  <advance width="1087"/>
  <unicode hex="002F"/>
  <outline>
    <contour>
      <point x="1194" y="1454" type="line"/>
      <point x="-2" y="0" type="line"/>
      <point x="-53" y="0" type="line"/>
      <point x="1143" y="1454" type="line"/>
    </contour>
  </outline>
</glyph>
<glyph name="zero" format="2">
  <advance width="1314"/>
  <unicode hex="0030"/>
  <outline>
    <contour>
      <point x="109" y="557" type="qcurve" smooth="yes"/>
      <point x="109" y="658"/>
      <point x="163" y="872"/>
      <point x="257" y="1070"/>
      <point x="394" y="1247"/>
      <point x="552" y="1378"/>
      <point x="740" y="1454"/>
      <point x="836" y="1454" type="qcurve" smooth="yes"/>
      <point x="921" y="1454"/>
      <point x="1061" y="1385"/>
      <point x="1154" y="1271"/>
      <point x="1218" y="1119"/>
      <point x="1247" y="958"/>
      <point x="1247" y="874" type="qcurve" smooth="yes"/>
      <point x="1247" y="722"/>
      <point x="1130" y="402"/>
      <point x="937" y="145"/>
      <point x="665" y="-20"/>
      <point x="522" y="-20" type="qcurve" smooth="yes"/>
      <point x="417" y="-20"/>
      <point x="254" y="82"/>
      <point x="158" y="251"/>
      <point x="109" y="450"/>
    </contour>
    <contour>
      <point x="1206" y="868" type="qcurve" smooth="yes"/>
      <point x="1206" y="972"/>
      <point x="1158" y="1163"/>
      <point x="1068" y="1319"/>
      <point x="919" y="1413"/>
      <point x="827" y="1413" type="qcurve" smooth="yes"/>
      <point x="732" y="1413"/>
      <point x="551" y="1333"/>
      <point x="406" y="1199"/>
      <point x="283" y="1022"/>
      <point x="200" y="828"/>
      <point x="154" y="628"/>
      <point x="154" y="539" type="qcurve" smooth="yes"/>
      <point x="154" y="434"/>
      <point x="198" y="252"/>
      <point x="286" y="105"/>
      <point x="434" y="20"/>
      <point x="530" y="20" type="qcurve" smooth="yes"/>
      <point x="643" y="20"/>
      <point x="857" y="130"/>
      <point x="1018" y="310"/>
      <point x="1142" y="531"/>
      <point x="1206" y="765"/>
    </contour>
  </outline>
</glyph>
<glyph name="one" format="2">
  <advance width="688"/>
  <unicode hex="0031"/>
  <outline>
    <contour>
      <point x="2" y="41" type="line"/>
      <point x="260" y="41" type="line"/>
      <point x="549" y="1407" type="line"/>
      <point x="502" y="1353"/>
      <point x="283" y="1231"/>
      <point x="211" y="1231" type="qcurve"/>
      <point x="219" y="1272" type="line"/>
      <point x="279" y="1272"/>
      <point x="450" y="1373"/>
      <point x="559" y="1466"/>
      <point x="563" y="1475" type="qcurve"/>
      <point x="606" y="1475" type="line"/>
      <point x="301" y="41" type="line"/>
      <point x="547" y="41" type="line"/>
      <point x="539" y="0" type="line"/>
      <point x="-6" y="0" type="line"/>
    </contour>
  </outline>
</glyph>
<glyph name="two" format="2">
  <advance width="1091"/>
  <unicode hex="0032"/>
  <outline>
    <contour>
      <point x="506" y="653" type="qcurve" smooth="yes"/>
      <point x="537" y="665"/>
      <point x="654" y="707"/>
      <point x="727" y="735"/>
      <point x="833" y="783"/>
      <point x="901" y="828"/>
      <point x="978" y="898"/>
      <point x="1021" y="974"/>
      <point x="1051" y="1080"/>
      <point x="1051" y="1141" type="qcurve" smooth="yes"/>
      <point x="1051" y="1200"/>
      <point x="1016" y="1302"/>
      <point x="945" y="1384"/>
      <point x="826" y="1432"/>
      <point x="748" y="1432" type="qcurve" smooth="yes"/>
      <point x="484" y="1432"/>
      <point x="281" y="1194" type="qcurve"/>
      <point x="252" y="1214" type="line" smooth="yes"/>
      <point x="252" y="1217"/>
      <point x="297" y="1269"/>
      <point x="389" y="1347"/>
      <point x="505" y="1420"/>
      <point x="673" y="1473"/>
      <point x="760" y="1473" type="qcurve" smooth="yes"/>
      <point x="844" y="1473"/>
      <point x="976" y="1419"/>
      <point x="1054" y="1326"/>
      <point x="1094" y="1211"/>
      <point x="1094" y="1145" type="qcurve" smooth="yes"/>
      <point x="1094" y="1078"/>
      <point x="1060" y="961"/>
      <point x="1010" y="876"/>
      <point x="926" y="798"/>
      <point x="850" y="749"/>
      <point x="738" y="697"/>
      <point x="661" y="669"/>
      <point x="544" y="627"/>
      <point x="516" y="616" type="qcurve" smooth="yes"/>
      <point x="95" y="453"/>
      <point x="25" y="41" type="qcurve"/>
      <point x="866" y="41" type="line"/>
      <point x="858" y="0" type="line"/>
      <point x="-25" y="0" type="line"/>
      <point x="-6" y="137"/>
      <point x="92" y="355"/>
      <point x="239" y="508"/>
      <point x="403" y="613"/>
    </contour>
  </outline>
</glyph>
<glyph name="three" format="2">
  <advance width="1136"/>
  <unicode hex="0033"/>
  <outline>
    <contour>
      <point x="47" y="360" type="qcurve"/>
      <point x="88" y="360" type="line"/>
      <point x="88" y="198"/>
      <point x="295" y="23"/>
      <point x="455" y="23" type="qcurve" smooth="yes"/>
      <point x="580" y="23"/>
      <point x="803" y="128"/>
      <point x="940" y="312"/>
      <point x="940" y="420" type="qcurve" smooth="yes"/>
      <point x="940" y="556"/>
      <point x="721" y="717"/>
      <point x="530" y="717" type="qcurve" smooth="yes"/>
      <point x="463" y="717" type="line"/>
      <point x="471" y="758" type="line"/>
      <point x="541" y="758" type="line" smooth="yes"/>
      <point x="784" y="758"/>
      <point x="1051" y="953"/>
      <point x="1051" y="1122" type="qcurve" smooth="yes"/>
      <point x="1051" y="1263"/>
      <point x="869" y="1432"/>
      <point x="717" y="1432" type="qcurve" smooth="yes"/>
      <point x="584" y="1432"/>
      <point x="350" y="1304"/>
      <point x="285" y="1196" type="qcurve"/>
      <point x="252" y="1212" type="line"/>
      <point x="322" y="1330"/>
      <point x="582" y="1473"/>
      <point x="727" y="1473" type="qcurve" smooth="yes"/>
      <point x="892" y="1473"/>
      <point x="1094" y="1282"/>
      <point x="1094" y="1128" type="qcurve" smooth="yes"/>
      <point x="1094" y="982"/>
      <point x="907" y="779"/>
      <point x="733" y="735" type="qcurve"/>
      <point x="850" y="711"/>
      <point x="983" y="544"/>
      <point x="983" y="430" type="qcurve" smooth="yes"/>
      <point x="983" y="308"/>
      <point x="829" y="99"/>
      <point x="581" y="-18"/>
      <point x="444" y="-18" type="qcurve" smooth="yes"/>
      <point x="268" y="-18"/>
      <point x="47" y="180"/>
    </contour>
  </outline>
</glyph>
<glyph name="four" format="2">
  <advance width="1079"/>
  <unicode hex="0034"/>
  <outline>
    <contour>
      <point x="670" y="0" type="line"/>
      <point x="762" y="432" type="line"/>
      <point x="14" y="432" type="line"/>
      <point x="23" y="467" type="line"/>
      <point x="991" y="1454" type="line"/>
      <point x="1020" y="1454" type="line"/>
      <point x="811" y="473" type="line"/>
      <point x="983" y="473" type="line"/>
      <point x="975" y="432" type="line"/>
      <point x="803" y="432" type="line"/>
      <point x="711" y="0" type="line"/>
    </contour>
    <contour>
      <point x="770" y="473" type="line"/>
      <point x="963" y="1378" type="line"/>
      <point x="80" y="473" type="line"/>
    </contour>
  </outline>
</glyph>
<glyph name="five" format="2">
  <advance width="1091"/>
  <unicode hex="0035"/>
  <outline>
    <contour>
      <point x="25" y="279" type="qcurve"/>
      <point x="68" y="279" type="line"/>
      <point x="98" y="162"/>
      <point x="279" y="20"/>
      <point x="406" y="20" type="qcurve" smooth="yes"/>
      <point x="504" y="20"/>
      <point x="693" y="99"/>
      <point x="837" y="234"/>
      <point x="926" y="426"/>
      <point x="926" y="532" type="qcurve" smooth="yes"/>
      <point x="926" y="681"/>
      <point x="742" y="870"/>
      <point x="596" y="870" type="qcurve" smooth="yes"/>
      <point x="486" y="870"/>
      <point x="266" y="765"/>
      <point x="182" y="670" type="qcurve"/>
      <point x="133" y="670" type="line"/>
      <point x="453" y="1454" type="line"/>
      <point x="1108" y="1454" type="line"/>
      <point x="1100" y="1413" type="line"/>
      <point x="477" y="1413" type="line"/>
      <point x="211" y="748" type="line"/>
      <point x="297" y="827"/>
      <point x="502" y="911"/>
      <point x="606" y="911" type="qcurve" smooth="yes"/>
      <point x="765" y="911"/>
      <point x="967" y="704"/>
      <point x="967" y="539" type="qcurve" smooth="yes"/>
      <point x="967" y="421"/>
      <point x="867" y="209"/>
      <point x="706" y="64"/>
      <point x="501" y="-20"/>
      <point x="397" y="-20" type="qcurve" smooth="yes"/>
      <point x="253" y="-20"/>
      <point x="55" y="143"/>
    </contour>
  </outline>
</glyph>
<glyph name="seven" format="2">
  <advance width="948"/>
  <unicode hex="0037"/>
  <outline>
    <contour>
      <point x="1034" y="1413" type="line"/>
      <point x="207" y="1413" type="line"/>
      <point x="215" y="1454" type="line"/>
      <point x="1112" y="1454" type="line"/>
      <point x="94" y="0" type="line"/>
      <point x="47" y="0" type="line"/>
    </contour>
  </outline>
</glyph>
<glyph name="eight" format="2">
  <advance width="1140"/>
  <unicode hex="0038"/>
  <outline>
    <contour>
      <point x="430" y="-14" type="qcurve" smooth="yes"/>
      <point x="254" y="-14"/>
      <point x="51" y="183"/>
      <point x="51" y="326" type="qcurve" smooth="yes"/>
      <point x="51" y="411"/>
      <point x="125" y="566"/>
      <point x="246" y="680"/>
      <point x="388" y="760"/>
      <point x="461" y="780" type="qcurve"/>
      <point x="370" y="816"/>
      <point x="256" y="959"/>
      <point x="256" y="1055" type="qcurve" smooth="yes"/>
      <point x="256" y="1146"/>
      <point x="346" y="1301"/>
      <point x="490" y="1399"/>
      <point x="663" y="1454"/>
      <point x="750" y="1454" type="qcurve" smooth="yes"/>
      <point x="892" y="1454"/>
      <point x="1094" y="1297"/>
      <point x="1094" y="1165" type="qcurve" smooth="yes"/>
      <point x="1094" y="1094"/>
      <point x="1036" y="968"/>
      <point x="936" y="874"/>
      <point x="817" y="804"/>
      <point x="748" y="780" type="qcurve"/>
      <point x="858" y="744"/>
      <point x="993" y="568"/>
      <point x="993" y="451" type="qcurve" smooth="yes"/>
      <point x="993" y="317"/>
      <point x="827" y="100"/>
      <point x="571" y="-14"/>
    </contour>
    <contour>
      <point x="608" y="801" type="qcurve" smooth="yes"/>
      <point x="680" y="801"/>
      <point x="834" y="850"/>
      <point x="967" y="938"/>
      <point x="1053" y="1076"/>
      <point x="1053" y="1157" type="qcurve" smooth="yes"/>
      <point x="1053" y="1274"/>
      <point x="869" y="1413"/>
      <point x="737" y="1413" type="qcurve" smooth="yes"/>
      <point x="657" y="1413"/>
      <point x="501" y="1362"/>
      <point x="375" y="1273"/>
      <point x="297" y="1137"/>
      <point x="297" y="1059" type="qcurve" smooth="yes"/>
      <point x="297" y="980"/>
      <point x="390" y="859"/>
      <point x="530" y="801"/>
    </contour>
    <contour>
      <point x="598" y="760" type="qcurve" smooth="yes"/>
      <point x="514" y="760"/>
      <point x="336" y="696"/>
      <point x="187" y="587"/>
      <point x="92" y="422"/>
      <point x="92" y="330" type="qcurve" smooth="yes"/>
      <point x="92" y="236"/>
      <point x="198" y="91"/>
      <point x="357" y="20"/>
      <point x="446" y="20" type="qcurve" smooth="yes"/>
      <point x="513" y="20"/>
      <point x="655" y="59"/>
      <point x="786" y="135"/>
      <point x="890" y="237"/>
      <point x="952" y="374"/>
      <point x="952" y="449" type="qcurve" smooth="yes"/>
      <point x="952" y="543"/>
      <point x="846" y="689"/>
      <point x="687" y="760"/>
    </contour>
  </outline>
</glyph>
<glyph name="nine" format="2">
  <advance width="1187"/>
  <unicode hex="0039"/>
  <outline>
    <contour>
      <point x="530" y="471" type="qcurve" smooth="yes"/>
      <point x="684" y="471"/>
      <point x="977" y="661"/>
      <point x="1053" y="813" type="qcurve"/>
      <point x="975" y="441"/>
      <point x="640" y="20"/>
      <point x="436" y="20" type="qcurve" smooth="yes"/>
      <point x="311" y="20"/>
      <point x="143" y="172"/>
      <point x="133" y="295" type="qcurve"/>
      <point x="92" y="281" type="line"/>
      <point x="105" y="143"/>
      <point x="289" y="-20"/>
      <point x="430" y="-20" type="qcurve" smooth="yes"/>
      <point x="552" y="-20"/>
      <point x="774" y="96"/>
      <point x="943" y="299"/>
      <point x="1068" y="563"/>
      <point x="1133" y="872"/>
      <point x="1133" y="1030" type="qcurve" smooth="yes"/>
      <point x="1133" y="1229"/>
      <point x="923" y="1464"/>
      <point x="750" y="1464" type="qcurve" smooth="yes"/>
      <point x="638" y="1464"/>
      <point x="420" y="1369"/>
      <point x="256" y="1211"/>
      <point x="154" y="994"/>
      <point x="154" y="879" type="qcurve" smooth="yes"/>
      <point x="154" y="706"/>
      <point x="364" y="471"/>
    </contour>
    <contour>
      <point x="1087" y="1047" type="qcurve" smooth="yes"/>
      <point x="1087" y="910"/>
      <point x="929" y="661"/>
      <point x="678" y="512"/>
      <point x="545" y="512" type="qcurve" smooth="yes"/>
      <point x="394" y="512"/>
      <point x="197" y="732"/>
      <point x="197" y="891" type="qcurve" smooth="yes"/>
      <point x="197" y="1029"/>
      <point x="354" y="1278"/>
      <point x="604" y="1423"/>
      <point x="737" y="1423" type="qcurve" smooth="yes"/>
      <point x="890" y="1423"/>
      <point x="1087" y="1206"/>
    </contour>
  </outline>
</glyph>
<glyph name="colon" format="2">
  <advance width="317"/>
  <unicode hex="003A"/>
  <outline>
    <contour>
      <point x="203" y="928" type="line"/>
      <point x="231" y="1059" type="line"/>
      <point x="272" y="1059" type="line"/>
      <point x="244" y="928" type="line"/>
    </contour>
    <contour>
      <point x="6" y="0" type="line"/>
      <point x="35" y="131" type="line"/>
      <point x="74" y="131" type="line"/>
      <point x="47" y="0" type="line"/>
    </contour>
  </outline>
</glyph>
<glyph name="semicolon" format="2">
  <advance width="329"/>
  <unicode hex="003B"/>
  <outline>
    <contour>
      <point x="209" y="928" type="line"/>
      <point x="238" y="1059" type="line"/>
      <point x="279" y="1059" type="line"/>
      <point x="250" y="928" type="line"/>
    </contour>
    <contour>
      <point x="-29" y="-166" type="line"/>
      <point x="23" y="-20" type="line"/>
      <point x="4" y="-20" type="line"/>
      <point x="37" y="131" type="line"/>
      <point x="88" y="131" type="line"/>
      <point x="55" y="-20" type="line"/>
      <point x="0" y="-166" type="line"/>
    </contour>
  </outline>
</glyph>
<glyph name="less" format="2">
  <advance width="1107"/>
  <unicode hex="003C"/>
  <outline>
    <contour>
      <point x="63" y="549" type="line"/>
      <point x="918" y="1059" type="line"/>
      <point x="918" y="1014" type="line"/>
      <point x="123" y="530" type="line"/>
      <point x="918" y="45" type="line"/>
      <point x="918" y="0" type="line"/>
      <point x="63" y="512" type="line"/>
    </contour>
  </outline>
</glyph>
<glyph name="equal" format="2">
  <advance width="927"/>
  <unicode hex="003D"/>
  <outline>
    <contour>
      <point x="152" y="616" type="line"/>
      <point x="152" y="657" type="line"/>
      <point x="752" y="657" type="line"/>
      <point x="752" y="616" type="line"/>
    </contour>
    <contour>
      <point x="152" y="473" type="line"/>
      <point x="152" y="514" type="line"/>
      <point x="752" y="514" type="line"/>
      <point x="752" y="473" type="line"/>
    </contour>
  </outline>
</glyph>
<glyph name="greater" format="2">
  <advance width="1107"/>
  <unicode hex="003E"/>
  <outline>
    <contour>
      <point x="1008" y="512" type="line"/>
      <point x="154" y="0" type="line"/>
      <point x="154" y="45" type="line"/>
      <point x="948" y="530" type="line"/>
      <point x="154" y="1014" type="line"/>
      <point x="154" y="1059" type="line"/>
      <point x="1008" y="549" type="line"/>
    </contour>
  </outline>
</glyph>
<glyph name="question" format="2">
  <advance width="919"/>
  <unicode hex="003F"/>
  <outline>
    <contour>
      <point x="291" y="367" type="line"/>
      <point x="311" y="462"/>
      <point x="363" y="597"/>
      <point x="431" y="681"/>
      <point x="494" y="728"/>
      <point x="539" y="750" type="qcurve" smooth="yes"/>
      <point x="561" y="761"/>
      <point x="640" y="796"/>
      <point x="691" y="819"/>
      <point x="761" y="860"/>
      <point x="807" y="898"/>
      <point x="858" y="957"/>
      <point x="888" y="1024"/>
      <point x="907" y="1116"/>
      <point x="907" y="1171" type="qcurve" smooth="yes"/>
      <point x="907" y="1298"/>
      <point x="759" y="1432"/>
      <point x="647" y="1432" type="qcurve" smooth="yes"/>
      <point x="529" y="1432"/>
      <point x="298" y="1302"/>
      <point x="225" y="1192" type="qcurve"/>
      <point x="193" y="1208" type="line"/>
      <point x="272" y="1332"/>
      <point x="527" y="1473"/>
      <point x="653" y="1473" type="qcurve" smooth="yes"/>
      <point x="780" y="1473"/>
      <point x="948" y="1313"/>
      <point x="948" y="1171" type="qcurve" smooth="yes"/>
      <point x="948" y="1113"/>
      <point x="927" y="1015"/>
      <point x="897" y="944"/>
      <point x="842" y="879"/>
      <point x="794" y="838"/>
      <point x="717" y="791"/>
      <point x="663" y="766"/>
      <point x="574" y="724"/>
      <point x="549" y="711" type="qcurve" smooth="yes"/>
      <point x="508" y="691"/>
      <point x="455" y="650"/>
      <point x="396" y="576"/>
      <point x="350" y="455"/>
      <point x="332" y="367" type="qcurve"/>
    </contour>
    <contour>
      <point x="213" y="0" type="line"/>
      <point x="250" y="172" type="line"/>
      <point x="291" y="172" type="line"/>
      <point x="254" y="0" type="line"/>
    </contour>
  </outline>
</glyph>
<glyph name="at" format="2">
  <advance width="1619"/>
  <unicode hex="0040"/>
  <outline>
    <contour>
      <point x="1448" y="614" type="qcurve" smooth="yes"/>
      <point x="1448" y="742"/>
      <point x="1367" y="959"/>
      <point x="1226" y="1109"/>
      <point x="1028" y="1194"/>
      <point x="913" y="1194" type="qcurve" smooth="yes"/>
      <point x="760" y="1194"/>
      <point x="460" y="1047"/>
      <point x="234" y="809"/>
      <point x="94" y="488"/>
      <point x="94" y="324" type="qcurve" smooth="yes"/>
      <point x="94" y="73"/>
      <point x="397" y="-258"/>
      <point x="631" y="-258" type="qcurve" smooth="yes"/>
      <point x="781" y="-258"/>
      <point x="934" y="-180" type="qcurve"/>
      <point x="946" y="-217" type="line"/>
      <point x="771" y="-299"/>
      <point x="608" y="-299" type="qcurve" smooth="yes"/>
      <point x="451" y="-299"/>
      <point x="196" y="-134"/>
      <point x="53" y="150"/>
      <point x="53" y="322" type="qcurve" smooth="yes"/>
      <point x="53" y="460"/>
      <point x="149" y="734"/>
      <point x="319" y="961"/>
      <point x="535" y="1137"/>
      <point x="792" y="1235"/>
      <point x="920" y="1235" type="qcurve" smooth="yes"/>
      <point x="1166" y="1235"/>
      <point x="1489" y="894"/>
      <point x="1489" y="621" type="qcurve" smooth="yes"/>
      <point x="1489" y="462"/>
      <point x="1379" y="159"/>
      <point x="1190" y="-33"/>
      <point x="1085" y="-33" type="qcurve" smooth="yes"/>
      <point x="1030" y="-33"/>
      <point x="981" y="25"/>
      <point x="981" y="90" type="qcurve" smooth="yes"/>
      <point x="981" y="133"/>
      <point x="989" y="172" type="qcurve"/>
      <point x="920" y="105"/>
      <point x="739" y="25"/>
      <point x="655" y="25" type="qcurve" smooth="yes"/>
      <point x="525" y="25"/>
      <point x="365" y="220"/>
      <point x="365" y="377" type="qcurve" smooth="yes"/>
      <point x="365" y="519"/>
      <point x="498" y="770"/>
      <point x="721" y="920"/>
      <point x="848" y="920" type="qcurve" smooth="yes"/>
      <point x="943" y="920"/>
      <point x="1082" y="827"/>
      <point x="1116" y="741" type="qcurve"/>
      <point x="1153" y="922" type="line"/>
      <point x="1194" y="922" type="line"/>
      <point x="1040" y="203" type="line" smooth="yes"/>
      <point x="1026" y="134"/>
      <point x="1026" y="96" type="qcurve" smooth="yes"/>
      <point x="1026" y="8"/>
      <point x="1106" y="8" type="qcurve" smooth="yes"/>
      <point x="1191" y="8"/>
      <point x="1351" y="185"/>
      <point x="1448" y="467"/>
    </contour>
    <contour>
      <point x="1018" y="285" type="qcurve"/>
      <point x="1100" y="684" type="line"/>
      <point x="1074" y="775"/>
      <point x="937" y="877"/>
      <point x="842" y="877" type="qcurve" smooth="yes"/>
      <point x="759" y="877"/>
      <point x="598" y="795"/>
      <point x="479" y="660"/>
      <point x="406" y="477"/>
      <point x="406" y="381" type="qcurve" smooth="yes"/>
      <point x="406" y="243"/>
      <point x="549" y="66"/>
      <point x="666" y="66" type="qcurve" smooth="yes"/>
      <point x="770" y="66"/>
      <point x="982" y="195"/>
    </contour>
  </outline>
</glyph>
<glyph name="C" format="2">
  <advance width="1357"/>
  <unicode hex="0043"/>
  <anchor x="0" y="0" name="Anchor-11"/>
  <anchor x="0" y="0" name="Anchor-10"/>
  <anchor x="877" y="1454" name="Anchor-9"/>
  <anchor x="0" y="0" name="Anchor-8"/>
  <anchor x="567" y="0" name="Anchor-7"/>
  <outline>
    <contour>
      <point x="106" y="590" type="qcurve" smooth="yes"/>
      <point x="106" y="712"/>
      <point x="185" y="962"/>
      <point x="334" y="1185"/>
      <point x="532" y="1360"/>
      <point x="789" y="1462"/>
      <point x="926" y="1462" type="qcurve" smooth="yes"/>
      <point x="1108" y="1462"/>
      <point x="1332" y="1290"/>
      <point x="1366" y="1145" type="qcurve"/>
      <point x="1325" y="1133" type="line"/>
      <point x="1282" y="1284"/>
      <point x="1071" y="1421"/>
      <point x="924" y="1421" type="qcurve" smooth="yes"/>
      <point x="796" y="1421"/>
      <point x="555" y="1323"/>
      <point x="367" y="1155"/>
      <point x="223" y="942"/>
      <point x="147" y="699"/>
      <point x="147" y="582" type="qcurve" smooth="yes"/>
      <point x="147" y="472"/>
      <point x="215" y="272"/>
      <point x="337" y="119"/>
      <point x="524" y="29"/>
      <point x="635" y="29" type="qcurve" smooth="yes"/>
      <point x="728" y="29"/>
      <point x="918" y="90"/>
      <point x="1114" y="232"/>
      <point x="1188" y="336" type="qcurve"/>
      <point x="1225" y="326" type="line"/>
      <point x="1123" y="166"/>
      <point x="793" y="-12"/>
      <point x="629" y="-12" type="qcurve" smooth="yes"/>
      <point x="508" y="-12"/>
      <point x="306" y="91"/>
      <point x="177" y="262"/>
      <point x="106" y="476"/>
    </contour>
  </outline>
</glyph>
<glyph name="F" format="2">
  <advance width="1204"/>
  <unicode hex="0046"/>
  <outline>
    <contour>
      <point x="377" y="1454" type="line"/>
      <point x="1266" y="1454" type="line"/>
      <point x="1257" y="1413" type="line"/>
      <point x="410" y="1413" type="line"/>
      <point x="272" y="766" type="line"/>
      <point x="995" y="766" type="line"/>
      <point x="987" y="725" type="line"/>
      <point x="262" y="725" type="line"/>
      <point x="109" y="0" type="line"/>
      <point x="68" y="0" type="line"/>
    </contour>
  </outline>
</glyph>
<glyph name="H" format="2">
  <advance width="1435"/>
  <unicode hex="0048"/>
  <anchor x="0" y="0" name="Anchor-11"/>
  <anchor x="760" y="727" name="Anchor-10"/>
  <anchor x="915" y="1454" name="Anchor-9"/>
  <anchor x="0" y="0" name="Anchor-8"/>
  <anchor x="606" y="0" name="Anchor-7"/>
  <outline>
    <contour>
      <point x="377" y="1454" type="line"/>
      <point x="418" y="1454" type="line"/>
      <point x="270" y="764" type="line"/>
      <point x="1227" y="764" type="line"/>
      <point x="1374" y="1454" type="line"/>
      <point x="1415" y="1454" type="line"/>
      <point x="1106" y="0" type="line"/>
      <point x="1065" y="0" type="line"/>
      <point x="1219" y="723" type="line"/>
      <point x="262" y="723" type="line"/>
      <point x="109" y="0" type="line"/>
      <point x="68" y="0" type="line"/>
    </contour>
  </outline>
</glyph>
<glyph name="L" format="2">
  <advance width="1130"/>
  <unicode hex="004C"/>
  <anchor x="930" y="1063" name="Anchor-11"/>
  <anchor x="606" y="727" name="Anchor-10"/>
  <anchor x="395" y="1454" name="Anchor-9"/>
  <anchor x="0" y="0" name="Anchor-8"/>
  <anchor x="522" y="0" name="Anchor-7"/>
  <outline>
    <contour>
      <point x="377" y="1454" type="line"/>
      <point x="418" y="1454" type="line"/>
      <point x="117" y="41" type="line"/>
      <point x="983" y="41" type="line"/>
      <point x="975" y="0" type="line"/>
      <point x="68" y="0" type="line"/>
    </contour>
  </outline>
</glyph>
<glyph name="M" format="2">
  <advance width="1732"/>
  <unicode hex="004D"/>
  <anchor x="0" y="0" name="Anchor-11"/>
  <anchor x="0" y="0" name="Anchor-10"/>
  <anchor x="1063" y="1454" name="Anchor-9"/>
  <anchor x="0" y="0" name="Anchor-8"/>
  <anchor x="754" y="0" name="Anchor-7"/>
  <outline>
    <contour>
      <point x="377" y="1454" type="line"/>
      <point x="410" y="1454" type="line"/>
      <point x="807" y="336" type="line"/>
      <point x="1679" y="1454" type="line"/>
      <point x="1712" y="1454" type="line"/>
      <point x="1403" y="0" type="line"/>
      <point x="1362" y="0" type="line"/>
      <point x="1651" y="1364" type="line"/>
      <point x="813" y="287" type="line"/>
      <point x="780" y="287" type="line"/>
      <point x="399" y="1364" type="line"/>
      <point x="109" y="0" type="line"/>
      <point x="68" y="0" type="line"/>
    </contour>
  </outline>
</glyph>
<glyph name="N" format="2">
  <advance width="1521"/>
  <unicode hex="004E"/>
  <anchor x="0" y="0" name="Anchor-11"/>
  <anchor x="0" y="0" name="Anchor-10"/>
  <anchor x="961" y="1448" name="Anchor-9"/>
  <anchor x="0" y="0" name="Anchor-8"/>
  <anchor x="649" y="0" name="Anchor-7"/>
  <outline>
    <contour>
      <point x="377" y="1454" type="line"/>
      <point x="408" y="1454" type="line"/>
      <point x="1165" y="59" type="line"/>
      <point x="1460" y="1452" type="line"/>
      <point x="1501" y="1452" type="line"/>
      <point x="1192" y="0" type="line"/>
      <point x="1147" y="0" type="line"/>
      <point x="401" y="1374" type="line"/>
      <point x="109" y="0" type="line"/>
      <point x="68" y="0" type="line"/>
    </contour>
  </outline>
</glyph>
<glyph name="P" format="2">
  <advance width="1218"/>
  <unicode hex="0050"/>
  <outline>
    <contour>
      <point x="377" y="1454" type="line"/>
      <point x="926" y="1454" type="line" smooth="yes"/>
      <point x="1024" y="1454"/>
      <point x="1173" y="1349"/>
      <point x="1245" y="1187"/>
      <point x="1245" y="1094" type="qcurve" smooth="yes"/>
      <point x="1245" y="968"/>
      <point x="1115" y="726"/>
      <point x="891" y="571"/>
      <point x="766" y="571" type="qcurve" smooth="yes"/>
      <point x="229" y="571" type="line"/>
      <point x="109" y="0" type="line"/>
      <point x="68" y="0" type="line"/>
    </contour>
    <contour>
      <point x="774" y="612" type="line" smooth="yes"/>
      <point x="890" y="612"/>
      <point x="1092" y="762"/>
      <point x="1204" y="986"/>
      <point x="1204" y="1098" type="qcurve" smooth="yes"/>
      <point x="1204" y="1228"/>
      <point x="1051" y="1413"/>
      <point x="930" y="1413" type="qcurve" smooth="yes"/>
      <point x="410" y="1413" type="line"/>
      <point x="240" y="612" type="line"/>
    </contour>
  </outline>
</glyph>
<glyph name="Q" format="2">
  <advance width="1484"/>
  <unicode hex="0051"/>
  <outline>
    <contour>
      <point x="1427" y="868" type="qcurve" smooth="yes"/>
      <point x="1427" y="660"/>
      <point x="1249" y="290"/>
      <point x="1096" y="164" type="qcurve"/>
      <point x="1186" y="0" type="line"/>
      <point x="1135" y="0" type="line"/>
      <point x="1059" y="137" type="line"/>
      <point x="859" y="-10"/>
      <point x="625" y="-10" type="qcurve" smooth="yes"/>
      <point x="493" y="-10"/>
      <point x="289" y="88"/>
      <point x="167" y="256"/>
      <point x="106" y="464"/>
      <point x="106" y="582" type="qcurve" smooth="yes"/>
      <point x="106" y="756"/>
      <point x="236" y="1082"/>
      <point x="452" y="1320"/>
      <point x="748" y="1464"/>
      <point x="907" y="1464" type="qcurve" smooth="yes"/>
      <point x="1014" y="1464"/>
      <point x="1189" y="1398"/>
      <point x="1308" y="1285"/>
      <point x="1390" y="1132"/>
      <point x="1427" y="961"/>
    </contour>
    <contour>
      <point x="631" y="31" type="qcurve" smooth="yes"/>
      <point x="851" y="31"/>
      <point x="1040" y="170" type="qcurve"/>
      <point x="926" y="381" type="line"/>
      <point x="977" y="381" type="line"/>
      <point x="1077" y="199" type="line"/>
      <point x="1219" y="320"/>
      <point x="1386" y="678"/>
      <point x="1386" y="868" type="qcurve" smooth="yes"/>
      <point x="1386" y="957"/>
      <point x="1351" y="1118"/>
      <point x="1276" y="1260"/>
      <point x="1165" y="1363"/>
      <point x="1002" y="1423"/>
      <point x="903" y="1423" type="qcurve" smooth="yes"/>
      <point x="779" y="1423"/>
      <point x="545" y="1331"/>
      <point x="361" y="1170"/>
      <point x="222" y="960"/>
      <point x="147" y="711"/>
      <point x="147" y="584" type="qcurve" smooth="yes"/>
      <point x="147" y="472"/>
      <point x="204" y="277"/>
      <point x="318" y="121"/>
      <point x="508" y="31"/>
    </contour>
  </outline>
</glyph>
<glyph name="T" format="2">
  <advance width="1175"/>
  <unicode hex="0054"/>
  <anchor x="0" y="0" name="Anchor-11"/>
  <anchor x="0" y="0" name="Anchor-10"/>
  <anchor x="756" y="1448" name="Anchor-9"/>
  <anchor x="0" y="0" name="Anchor-8"/>
  <anchor x="449" y="0" name="Anchor-7"/>
  <outline>
    <contour>
      <point x="729" y="1413" type="line"/>
      <point x="201" y="1413" type="line"/>
      <point x="209" y="1454" type="line"/>
      <point x="1307" y="1454" type="line"/>
      <point x="1298" y="1413" type="line"/>
      <point x="770" y="1413" type="line"/>
      <point x="469" y="0" type="line"/>
      <point x="428" y="0" type="line"/>
    </contour>
  </outline>
</glyph>
<glyph name="V" format="2">
  <advance width="1318"/>
  <unicode hex="0056"/>
  <outline>
    <contour>
      <point x="207" y="1454" type="line"/>
      <point x="250" y="1454" type="line"/>
      <point x="532" y="51" type="line"/>
      <point x="1407" y="1454" type="line"/>
      <point x="1452" y="1454" type="line"/>
      <point x="543" y="0" type="line"/>
      <point x="498" y="0" type="line"/>
    </contour>
  </outline>
</glyph>
<glyph name="Y" format="2">
  <advance width="1216"/>
  <unicode hex="0059"/>
  <anchor x="0" y="0" name="Anchor-11"/>
  <anchor x="0" y="0" name="Anchor-10"/>
  <anchor x="776" y="1448" name="Anchor-9"/>
  <anchor x="0" y="0" name="Anchor-8"/>
  <anchor x="0" y="0" name="Anchor-7"/>
  <outline>
    <contour>
      <point x="567" y="567" type="line"/>
      <point x="199" y="1454" type="line"/>
      <point x="246" y="1454" type="line"/>
      <point x="598" y="610" type="line"/>
      <point x="1311" y="1454" type="line"/>
      <point x="1358" y="1454" type="line"/>
      <point x="608" y="563" type="line"/>
      <point x="487" y="0" type="line"/>
      <point x="446" y="0" type="line"/>
    </contour>
  </outline>
</glyph>
<glyph name="Z" format="2">
  <advance width="1202"/>
  <unicode hex="005A"/>
  <anchor x="0" y="0" name="Anchor-11"/>
  <anchor x="0" y="0" name="Anchor-10"/>
  <anchor x="799" y="1454" name="Anchor-9"/>
  <anchor x="0" y="0" name="Anchor-8"/>
  <anchor x="489" y="0" name="Anchor-7"/>
  <outline>
    <contour>
      <point x="-74" y="41" type="line"/>
      <point x="1270" y="1413" type="line"/>
      <point x="227" y="1413" type="line"/>
      <point x="238" y="1454" type="line"/>
      <point x="1331" y="1454" type="line"/>
      <point x="1321" y="1413" type="line"/>
      <point x="-23" y="41" type="line"/>
      <point x="1022" y="41" type="line"/>
      <point x="1014" y="0" type="line"/>
      <point x="-82" y="0" type="line"/>
    </contour>
  </outline>
</glyph>
<glyph name="bracketleft" format="2">
  <advance width="442"/>
  <unicode hex="005B"/>
  <outline>
    <contour>
      <point x="47" y="-82" type="line"/>
      <point x="387" y="1516" type="line"/>
      <point x="524" y="1516" type="line"/>
      <point x="516" y="1475" type="line"/>
      <point x="418" y="1475" type="line"/>
      <point x="96" y="-41" type="line"/>
      <point x="195" y="-41" type="line"/>
      <point x="186" y="-82" type="line"/>
    </contour>
  </outline>
</glyph>
<glyph name="backslash" format="2">
  <advance width="983"/>
  <unicode hex="005C"/>
  <outline>
    <contour>
      <point x="266" y="1454" type="line"/>
      <point x="803" y="0" type="line"/>
      <point x="752" y="0" type="line"/>
      <point x="213" y="1454" type="line"/>
    </contour>
  </outline>
</glyph>
<glyph name="bracketright" format="2">
  <advance width="440"/>
  <unicode hex="005D"/>
  <outline>
    <contour>
      <point x="-41" y="-82" type="line"/>
      <point x="-33" y="-41" type="line"/>
      <point x="66" y="-41" type="line"/>
      <point x="387" y="1475" type="line"/>
      <point x="291" y="1475" type="line"/>
      <point x="299" y="1516" type="line"/>
      <point x="436" y="1516" type="line"/>
      <point x="98" y="-82" type="line"/>
    </contour>
  </outline>
</glyph>
<glyph name="asciicircum" format="2">
  <advance width="1034"/>
  <unicode hex="005E"/>
  <outline>
    <contour>
      <point x="113" y="621" type="line"/>
      <point x="518" y="1454" type="line"/>
      <point x="555" y="1454" type="line"/>
      <point x="958" y="621" type="line"/>
      <point x="911" y="621" type="line"/>
      <point x="537" y="1395" type="line"/>
      <point x="156" y="621" type="line"/>
    </contour>
  </outline>
</glyph>
<glyph name="underscore" format="2">
  <advance width="1050"/>
  <unicode hex="005F"/>
  <outline>
    <contour>
      <point x="-2" y="-41" type="line"/>
      <point x="6" y="0" type="line"/>
      <point x="770" y="0" type="line"/>
      <point x="762" y="-41" type="line"/>
    </contour>
  </outline>
</glyph>
<glyph name="grave" format="2">
  <advance width="397"/>
  <unicode hex="0060"/>
  <anchor x="406" y="1495" name="Anchor-13"/>
  <outline>
    <contour>
      <point x="307" y="1495" type="line"/>
      <point x="373" y="1495" type="line"/>
      <point x="467" y="1346" type="line"/>
      <point x="430" y="1321" type="line"/>
    </contour>
  </outline>
</glyph>
<glyph name="b" format="2">
  <advance width="1179"/>
  <unicode hex="0062"/>
  <outline>
    <contour>
      <point x="123" y="221" type="qcurve"/>
      <point x="76" y="0" type="line"/>
      <point x="35" y="0" type="line"/>
      <point x="352" y="1495" type="line"/>
      <point x="393" y="1495" type="line"/>
      <point x="250" y="815" type="line"/>
      <point x="481" y="1079"/>
      <point x="715" y="1079" type="qcurve" smooth="yes"/>
      <point x="788" y="1079"/>
      <point x="910" y="1029"/>
      <point x="995" y="944"/>
      <point x="1055" y="831"/>
      <point x="1083" y="706"/>
      <point x="1083" y="641" type="qcurve" smooth="yes"/>
      <point x="1083" y="516"/>
      <point x="977" y="272"/>
      <point x="807" y="91"/>
      <point x="584" y="-20"/>
      <point x="473" y="-20" type="qcurve" smooth="yes"/>
      <point x="346" y="-20"/>
      <point x="163" y="118"/>
    </contour>
    <contour>
      <point x="1040" y="639" type="qcurve" smooth="yes"/>
      <point x="1040" y="745"/>
      <point x="963" y="924"/>
      <point x="805" y="1038"/>
      <point x="700" y="1038" type="qcurve" smooth="yes"/>
      <point x="573" y="1038"/>
      <point x="351" y="885"/>
      <point x="233" y="750" type="qcurve"/>
      <point x="139" y="289" type="line"/>
      <point x="160" y="166"/>
      <point x="349" y="20"/>
      <point x="477" y="20" type="qcurve" smooth="yes"/>
      <point x="583" y="20"/>
      <point x="791" y="127"/>
      <point x="945" y="299"/>
      <point x="1040" y="525"/>
    </contour>
  </outline>
</glyph>
<glyph name="c" format="2">
  <advance width="1052"/>
  <unicode hex="0063"/>
  <anchor x="0" y="0" name="Anchor-11"/>
  <anchor x="0" y="0" name="Anchor-10"/>
  <anchor x="676" y="1063" name="Anchor-9"/>
  <anchor x="0" y="0" name="Anchor-8"/>
  <anchor x="455" y="0" name="Anchor-7"/>
  <outline>
    <contour>
      <point x="63" y="430" type="qcurve" smooth="yes"/>
      <point x="63" y="559"/>
      <point x="167" y="800"/>
      <point x="337" y="974"/>
      <point x="563" y="1079"/>
      <point x="680" y="1079" type="qcurve" smooth="yes"/>
      <point x="808" y="1079"/>
      <point x="982" y="954"/>
      <point x="1010" y="842" type="qcurve"/>
      <point x="965" y="827" type="line"/>
      <point x="939" y="925"/>
      <point x="789" y="1038"/>
      <point x="686" y="1038" type="qcurve" smooth="yes"/>
      <point x="577" y="1038"/>
      <point x="365" y="941"/>
      <point x="203" y="779"/>
      <point x="104" y="556"/>
      <point x="104" y="438" type="qcurve" smooth="yes"/>
      <point x="104" y="262"/>
      <point x="300" y="20"/>
      <point x="451" y="20" type="qcurve" smooth="yes"/>
      <point x="569" y="20"/>
      <point x="813" y="156"/>
      <point x="854" y="244" type="qcurve"/>
      <point x="893" y="231" type="line"/>
      <point x="836" y="124"/>
      <point x="580" y="-20"/>
      <point x="449" y="-20" type="qcurve" smooth="yes"/>
      <point x="280" y="-20"/>
      <point x="63" y="239"/>
    </contour>
  </outline>
</glyph>
<glyph name="f" format="2">
  <advance width="598"/>
  <unicode hex="0066"/>
  <outline>
    <contour>
      <point x="285" y="1022" type="line"/>
      <point x="139" y="1022" type="line"/>
      <point x="147" y="1063" type="line"/>
      <point x="295" y="1063" type="line"/>
      <point x="303" y="1106" type="line" smooth="yes"/>
      <point x="341" y="1298"/>
      <point x="530" y="1516"/>
      <point x="657" y="1516" type="qcurve" smooth="yes"/>
      <point x="712" y="1516"/>
      <point x="807" y="1477"/>
      <point x="827" y="1446" type="qcurve"/>
      <point x="791" y="1421" type="line"/>
      <point x="772" y="1446"/>
      <point x="695" y="1477"/>
      <point x="651" y="1477" type="qcurve" smooth="yes"/>
      <point x="540" y="1477"/>
      <point x="379" y="1285"/>
      <point x="344" y="1106" type="qcurve" smooth="yes"/>
      <point x="336" y="1063" type="line"/>
      <point x="635" y="1063" type="line"/>
      <point x="627" y="1022" type="line"/>
      <point x="326" y="1022" type="line"/>
      <point x="16" y="-436" type="line"/>
      <point x="-25" y="-436" type="line"/>
    </contour>
  </outline>
</glyph>
<glyph name="i" format="2">
  <advance width="372"/>
  <unicode hex="0069"/>
  <anchor x="0" y="0" name="Anchor-11"/>
  <anchor x="0" y="0" name="Anchor-10"/>
  <anchor x="0" y="0" name="Anchor-9"/>
  <anchor x="76" y="0" name="Anchor-8"/>
  <anchor x="57" y="0" name="Anchor-7"/>
  <outline>
    <contour>
      <point x="352" y="1495" type="line"/>
      <point x="393" y="1495" type="line"/>
      <point x="360" y="1337" type="line"/>
      <point x="319" y="1337" type="line"/>
    </contour>
    <contour>
      <point x="260" y="1063" type="line"/>
      <point x="301" y="1063" type="line"/>
      <point x="76" y="0" type="line"/>
      <point x="35" y="0" type="line"/>
    </contour>
  </outline>
</glyph>
<glyph name="m" format="2">
  <advance width="1773"/>
  <unicode hex="006D"/>
  <anchor x="0" y="0" name="Anchor-11"/>
  <anchor x="0" y="0" name="Anchor-10"/>
  <anchor x="999" y="1063" name="Anchor-9"/>
  <anchor x="0" y="0" name="Anchor-8"/>
  <anchor x="774" y="0" name="Anchor-7"/>
  <outline>
    <contour>
      <point x="260" y="1063" type="line"/>
      <point x="301" y="1063" type="line"/>
      <point x="244" y="788" type="line"/>
      <point x="339" y="926"/>
      <point x="576" y="1079"/>
      <point x="696" y="1079" type="qcurve" smooth="yes"/>
      <point x="821" y="1079"/>
      <point x="949" y="909"/>
      <point x="936" y="758" type="qcurve"/>
      <point x="1010" y="909"/>
      <point x="1273" y="1079"/>
      <point x="1409" y="1079" type="qcurve" smooth="yes"/>
      <point x="1640" y="1079"/>
      <point x="1640" y="811" type="qcurve" smooth="yes"/>
      <point x="1640" y="713"/>
      <point x="1614" y="592" type="qcurve" smooth="yes"/>
      <point x="1489" y="0" type="line"/>
      <point x="1448" y="0" type="line"/>
      <point x="1573" y="592" type="line" smooth="yes"/>
      <point x="1597" y="712"/>
      <point x="1597" y="799" type="qcurve" smooth="yes"/>
      <point x="1597" y="920"/>
      <point x="1498" y="1038"/>
      <point x="1397" y="1038" type="qcurve" smooth="yes"/>
      <point x="1259" y="1038"/>
      <point x="1001" y="836"/>
      <point x="924" y="670" type="qcurve"/>
      <point x="782" y="0" type="line"/>
      <point x="741" y="0" type="line"/>
      <point x="866" y="592" type="line" smooth="yes"/>
      <point x="893" y="718"/>
      <point x="893" y="805" type="qcurve" smooth="yes"/>
      <point x="893" y="924"/>
      <point x="795" y="1038"/>
      <point x="694" y="1038" type="qcurve" smooth="yes"/>
      <point x="554" y="1038"/>
      <point x="298" y="838"/>
      <point x="219" y="672" type="qcurve"/>
      <point x="76" y="0" type="line"/>
      <point x="35" y="0" type="line"/>
    </contour>
  </outline>
</glyph>
<glyph name="p" format="2">
  <advance width="1181"/>
  <unicode hex="0070"/>
  <outline>
    <contour>
      <point x="262" y="1063" type="line"/>
      <point x="301" y="1063" type="line"/>
      <point x="254" y="838" type="line"/>
      <point x="341" y="945"/>
      <point x="586" y="1079"/>
      <point x="700" y="1079" type="qcurve" smooth="yes"/>
      <point x="788" y="1079"/>
      <point x="934" y="1003"/>
      <point x="1029" y="876"/>
      <point x="1081" y="714"/>
      <point x="1081" y="627" type="qcurve" smooth="yes"/>
      <point x="1081" y="467"/>
      <point x="921" y="169"/>
      <point x="642" y="-20"/>
      <point x="483" y="-20" type="qcurve" smooth="yes"/>
      <point x="357" y="-20"/>
      <point x="173" y="128"/>
      <point x="129" y="244" type="qcurve"/>
      <point x="-16" y="-436" type="line"/>
      <point x="-57" y="-436" type="line"/>
    </contour>
    <contour>
      <point x="1040" y="623" type="qcurve" smooth="yes"/>
      <point x="1040" y="794"/>
      <point x="845" y="1038"/>
      <point x="690" y="1038" type="qcurve" smooth="yes"/>
      <point x="612" y="1038"/>
      <point x="414" y="948"/>
      <point x="249" y="794"/>
      <point x="227" y="713" type="qcurve"/>
      <point x="145" y="330" type="line"/>
      <point x="174" y="196"/>
      <point x="362" y="20"/>
      <point x="492" y="20" type="qcurve" smooth="yes"/>
      <point x="637" y="20"/>
      <point x="894" y="204"/>
      <point x="1040" y="482"/>
    </contour>
  </outline>
</glyph>
<glyph name="q" format="2">
  <advance width="1179"/>
  <unicode hex="0071"/>
  <outline>
    <contour>
      <point x="893" y="244" type="line"/>
      <point x="663" y="-20"/>
      <point x="426" y="-20" type="qcurve" smooth="yes"/>
      <point x="311" y="-20"/>
      <point x="140" y="106"/>
      <point x="59" y="303"/>
      <point x="59" y="420" type="qcurve" smooth="yes"/>
      <point x="59" y="544"/>
      <point x="166" y="787"/>
      <point x="338" y="968"/>
      <point x="564" y="1079"/>
      <point x="678" y="1079" type="qcurve" smooth="yes"/>
      <point x="793" y="1079"/>
      <point x="981" y="942"/>
      <point x="1020" y="838" type="qcurve"/>
      <point x="1067" y="1063" type="line"/>
      <point x="1108" y="1063" type="line"/>
      <point x="791" y="-436" type="line"/>
      <point x="750" y="-436" type="line"/>
    </contour>
    <contour>
      <point x="911" y="330" type="qcurve"/>
      <point x="1004" y="748" type="line"/>
      <point x="991" y="863"/>
      <point x="805" y="1038"/>
      <point x="670" y="1038" type="qcurve" smooth="yes"/>
      <point x="561" y="1038"/>
      <point x="350" y="930"/>
      <point x="195" y="758"/>
      <point x="100" y="535"/>
      <point x="100" y="426" type="qcurve" smooth="yes"/>
      <point x="100" y="315"/>
      <point x="178" y="132"/>
      <point x="333" y="20"/>
      <point x="434" y="20" type="qcurve" smooth="yes"/>
      <point x="569" y="20"/>
      <point x="819" y="196"/>
    </contour>
  </outline>
</glyph>
<glyph name="v" format="2">
  <advance width="923"/>
  <unicode hex="0076"/>
  <outline>
    <contour>
      <point x="131" y="1063" type="line"/>
      <point x="174" y="1063" type="line"/>
      <point x="334" y="57" type="line"/>
      <point x="521" y="267"/>
      <point x="801" y="805"/>
      <point x="883" y="1063" type="qcurve"/>
      <point x="924" y="1063" type="line"/>
      <point x="731" y="445"/>
      <point x="338" y="0" type="qcurve"/>
      <point x="301" y="0" type="line"/>
    </contour>
  </outline>
</glyph>
<glyph name="z" format="2">
  <advance width="935"/>
  <unicode hex="007A"/>
  <anchor x="0" y="0" name="Anchor-11"/>
  <anchor x="0" y="0" name="Anchor-10"/>
  <anchor x="582" y="1063" name="Anchor-9"/>
  <anchor x="0" y="0" name="Anchor-8"/>
  <anchor x="356" y="0" name="Anchor-7"/>
  <outline>
    <contour>
      <point x="-66" y="41" type="line"/>
      <point x="911" y="1022" type="line"/>
      <point x="154" y="1022" type="line"/>
      <point x="162" y="1063" type="line"/>
      <point x="971" y="1063" type="line"/>
      <point x="963" y="1022" type="line"/>
      <point x="-12" y="41" type="line"/>
      <point x="748" y="41" type="line"/>
      <point x="737" y="0" type="line"/>
      <point x="-74" y="0" type="line"/>
    </contour>
  </outline>
</glyph>
<glyph name="braceleft" format="2">
  <advance width="444"/>
  <unicode hex="007B"/>
  <outline>
    <contour>
      <point x="418" y="1475" type="line"/>
      <point x="285" y="852" type="line" smooth="yes"/>
      <point x="283" y="841"/>
      <point x="273" y="808"/>
      <point x="241" y="755"/>
      <point x="219" y="737" type="qcurve"/>
      <point x="240" y="713"/>
      <point x="240" y="668" type="qcurve" smooth="yes"/>
      <point x="240" y="656"/>
      <point x="236" y="624"/>
      <point x="236" y="623" type="qcurve" smooth="yes"/>
      <point x="98" y="-23" type="line"/>
      <point x="207" y="-23" type="line"/>
      <point x="197" y="-63" type="line"/>
      <point x="94" y="-63" type="line" smooth="yes"/>
      <point x="61" y="-63"/>
      <point x="61" y="-25" type="qcurve" smooth="yes"/>
      <point x="61" y="-10"/>
      <point x="63" y="-2" type="qcurve" smooth="yes"/>
      <point x="197" y="623" type="line" smooth="yes"/>
      <point x="201" y="643"/>
      <point x="201" y="657" type="qcurve" smooth="yes"/>
      <point x="201" y="714"/>
      <point x="158" y="719" type="qcurve"/>
      <point x="166" y="760" type="line"/>
      <point x="191" y="760"/>
      <point x="228" y="802"/>
      <point x="240" y="835"/>
      <point x="244" y="852" type="qcurve" smooth="yes"/>
      <point x="373" y="1454" type="line" smooth="yes"/>
      <point x="380" y="1488"/>
      <point x="415" y="1516"/>
      <point x="430" y="1516" type="qcurve" smooth="yes"/>
      <point x="532" y="1516" type="line"/>
      <point x="524" y="1475" type="line"/>
    </contour>
  </outline>
</glyph>
<glyph name="bar" format="2">
  <advance width="520"/>
  <unicode hex="007C"/>
  <outline>
    <contour>
      <point x="250" y="-266" type="line"/>
      <point x="250" y="1587" type="line"/>
      <point x="291" y="1587" type="line"/>
      <point x="291" y="-266" type="line"/>
    </contour>
  </outline>
</glyph>
<glyph name="braceright" format="2">
  <advance width="446"/>
  <unicode hex="007D"/>
  <outline>
    <contour>
      <point x="287" y="1475" type="line"/>
      <point x="295" y="1516" type="line"/>
      <point x="397" y="1516" type="line" smooth="yes"/>
      <point x="403" y="1516"/>
      <point x="417" y="1511"/>
      <point x="432" y="1490"/>
      <point x="432" y="1473" type="qcurve" smooth="yes"/>
      <point x="432" y="1460"/>
      <point x="430" y="1454" type="qcurve" smooth="yes"/>
      <point x="301" y="852" type="line" smooth="yes"/>
      <point x="297" y="840"/>
      <point x="297" y="817" type="qcurve" smooth="yes"/>
      <point x="297" y="760"/>
      <point x="340" y="760" type="qcurve"/>
      <point x="332" y="719" type="line"/>
      <point x="300" y="715"/>
      <point x="259" y="659"/>
      <point x="252" y="623" type="qcurve" smooth="yes"/>
      <point x="121" y="-2" type="line" smooth="yes"/>
      <point x="114" y="-33"/>
      <point x="80" y="-63"/>
      <point x="61" y="-63" type="qcurve" smooth="yes"/>
      <point x="-41" y="-63" type="line"/>
      <point x="-33" y="-23" type="line"/>
      <point x="74" y="-23" type="line"/>
      <point x="211" y="623" type="line" smooth="yes"/>
      <point x="213" y="634"/>
      <point x="223" y="666"/>
      <point x="255" y="720"/>
      <point x="276" y="737" type="qcurve"/>
      <point x="256" y="762"/>
      <point x="256" y="807" type="qcurve" smooth="yes"/>
      <point x="256" y="840"/>
      <point x="260" y="852" type="qcurve" smooth="yes"/>
      <point x="393" y="1475" type="line"/>
    </contour>
  </outline>
</glyph>
<glyph name="asciitilde" format="2">
  <advance width="905"/>
  <unicode hex="007E"/>
  <outline>
    <contour>
      <point x="287" y="680" type="qcurve" smooth="yes"/>
      <point x="324" y="680"/>
      <point x="408" y="641"/>
      <point x="472" y="594"/>
      <point x="556" y="555"/>
      <point x="592" y="555" type="qcurve" smooth="yes"/>
      <point x="626" y="555"/>
      <point x="685" y="586"/>
      <point x="717" y="628"/>
      <point x="735" y="661"/>
      <point x="735" y="666" type="qcurve"/>
      <point x="776" y="664" type="line"/>
      <point x="774" y="658"/>
      <point x="766" y="638"/>
      <point x="736" y="586"/>
      <point x="698" y="546"/>
      <point x="631" y="514"/>
      <point x="592" y="514" type="qcurve" smooth="yes"/>
      <point x="549" y="514"/>
      <point x="456" y="553"/>
      <point x="391" y="600"/>
      <point x="315" y="639"/>
      <point x="287" y="639" type="qcurve" smooth="yes"/>
      <point x="250" y="639"/>
      <point x="184" y="576"/>
      <point x="156" y="520"/>
      <point x="156" y="514" type="qcurve"/>
      <point x="115" y="514" type="line"/>
      <point x="115" y="518"/>
      <point x="127" y="551"/>
      <point x="154" y="601"/>
      <point x="192" y="647"/>
      <point x="252" y="680"/>
    </contour>
  </outline>
</glyph>
<glyph name="exclamdown" format="2">
  <advance width="458"/>
  <unicode hex="00A1"/>
  <outline>
    <contour>
      <point x="430" y="1468" type="line"/>
      <point x="395" y="1296" type="line"/>
      <point x="344" y="1296" type="line"/>
      <point x="389" y="1468" type="line"/>
    </contour>
    <contour>
      <point x="344" y="1059" type="line"/>
      <point x="119" y="0" type="line"/>
      <point x="78" y="0" type="line"/>
      <point x="303" y="1059" type="line"/>
    </contour>
  </outline>
</glyph>
<glyph name="cent" format="2">
  <advance width="1069"/>
  <unicode hex="00A2"/>
  <outline>
    <contour>
      <point x="358" y="-246" type="line"/>
      <point x="408" y="-18" type="line"/>
      <point x="302" y="-9"/>
      <point x="142" y="123"/>
      <point x="63" y="319"/>
      <point x="63" y="430" type="qcurve" smooth="yes"/>
      <point x="63" y="583"/>
      <point x="221" y="877"/>
      <point x="491" y="1071"/>
      <point x="641" y="1079" type="qcurve"/>
      <point x="692" y="1321" type="line"/>
      <point x="731" y="1321" type="line"/>
      <point x="680" y="1079" type="line"/>
      <point x="823" y="1075"/>
      <point x="978" y="951"/>
      <point x="1008" y="842" type="qcurve"/>
      <point x="965" y="827" type="line"/>
      <point x="904" y="1028"/>
      <point x="672" y="1038" type="qcurve"/>
      <point x="455" y="20" type="line"/>
      <point x="520" y="20"/>
      <point x="679" y="74"/>
      <point x="825" y="180"/>
      <point x="854" y="244" type="qcurve"/>
      <point x="893" y="231" type="line"/>
      <point x="851" y="152"/>
      <point x="691" y="34"/>
      <point x="523" y="-20"/>
      <point x="446" y="-20" type="qcurve"/>
      <point x="397" y="-246" type="line"/>
    </contour>
    <contour>
      <point x="416" y="23" type="qcurve"/>
      <point x="631" y="1038" type="line"/>
      <point x="522" y="1032"/>
      <point x="321" y="915"/>
      <point x="185" y="741"/>
      <point x="104" y="532"/>
      <point x="104" y="434" type="qcurve" smooth="yes"/>
      <point x="104" y="273"/>
      <point x="277" y="36"/>
    </contour>
  </outline>
</glyph>
<glyph name="sterling" format="2">
  <advance width="913"/>
  <unicode hex="00A3"/>
  <outline>
    <contour>
      <point x="662" y="1464" type="qcurve" smooth="yes"/>
      <point x="758" y="1464"/>
      <point x="903" y="1348"/>
      <point x="932" y="1249" type="qcurve"/>
      <point x="893" y="1225" type="line"/>
      <point x="865" y="1317"/>
      <point x="735" y="1423"/>
      <point x="649" y="1423" type="qcurve" smooth="yes"/>
      <point x="520" y="1423"/>
      <point x="309" y="1213"/>
      <point x="309" y="1075" type="qcurve" smooth="yes"/>
      <point x="309" y="1026"/>
      <point x="333" y="924"/>
      <point x="379" y="786"/>
      <point x="389" y="750" type="qcurve"/>
      <point x="729" y="750" type="line"/>
      <point x="719" y="709" type="line"/>
      <point x="399" y="709" type="line"/>
      <point x="412" y="646"/>
      <point x="412" y="586" type="qcurve" smooth="yes"/>
      <point x="412" y="516"/>
      <point x="391" y="416"/>
      <point x="321" y="288"/>
      <point x="186" y="140"/>
      <point x="74" y="37" type="qcurve"/>
      <point x="149" y="51"/>
      <point x="215" y="51" type="qcurve" smooth="yes"/>
      <point x="277" y="51"/>
      <point x="446" y="10"/>
      <point x="494" y="10" type="qcurve" smooth="yes"/>
      <point x="575" y="10"/>
      <point x="694" y="53" type="qcurve"/>
      <point x="698" y="14" type="line"/>
      <point x="585" y="-31"/>
      <point x="483" y="-31" type="qcurve" smooth="yes"/>
      <point x="426" y="-31"/>
      <point x="252" y="10"/>
      <point x="193" y="10" type="qcurve" smooth="yes"/>
      <point x="102" y="10"/>
      <point x="4" y="-14" type="qcurve"/>
      <point x="-8" y="20" type="line"/>
      <point x="124" y="139"/>
      <point x="269" y="288"/>
      <point x="349" y="416"/>
      <point x="369" y="508"/>
      <point x="369" y="580" type="qcurve" smooth="yes"/>
      <point x="369" y="632"/>
      <point x="354" y="709" type="qcurve"/>
      <point x="123" y="709" type="line"/>
      <point x="131" y="750" type="line"/>
      <point x="344" y="750" type="line"/>
      <point x="336" y="777"/>
      <point x="286" y="920"/>
      <point x="264" y="1016"/>
      <point x="264" y="1065" type="qcurve" smooth="yes"/>
      <point x="264" y="1168"/>
      <point x="380" y="1355"/>
      <point x="565" y="1464"/>
    </contour>
  </outline>
</glyph>
<glyph name="currency" format="2">
  <advance width="1128"/>
  <unicode hex="00A4"/>
  <outline>
    <contour>
      <point x="328" y="956" type="line"/>
      <point x="430" y="1055"/>
      <point x="571" y="1055" type="qcurve" smooth="yes"/>
      <point x="718" y="1055"/>
      <point x="821" y="952" type="qcurve"/>
      <point x="965" y="1094" type="line"/>
      <point x="995" y="1065" type="line"/>
      <point x="850" y="922" type="line"/>
      <point x="934" y="813"/>
      <point x="934" y="686" type="qcurve" smooth="yes"/>
      <point x="934" y="555"/>
      <point x="846" y="449" type="qcurve"/>
      <point x="995" y="303" type="line"/>
      <point x="965" y="274" type="line"/>
      <point x="817" y="420" type="line"/>
      <point x="711" y="322"/>
      <point x="571" y="322" type="qcurve" smooth="yes"/>
      <point x="434" y="322"/>
      <point x="332" y="414" type="qcurve"/>
      <point x="190" y="274" type="line"/>
      <point x="160" y="303" type="line"/>
      <point x="303" y="444" type="line"/>
      <point x="213" y="548"/>
      <point x="213" y="686" type="qcurve" smooth="yes"/>
      <point x="213" y="819"/>
      <point x="299" y="926" type="qcurve"/>
      <point x="160" y="1065" type="line"/>
      <point x="190" y="1094" type="line"/>
    </contour>
    <contour>
      <point x="571" y="358" type="qcurve" smooth="yes"/>
      <point x="701" y="358"/>
      <point x="891" y="554"/>
      <point x="891" y="688" type="qcurve" smooth="yes"/>
      <point x="891" y="824"/>
      <point x="702" y="1016"/>
      <point x="571" y="1016" type="qcurve" smooth="yes"/>
      <point x="443" y="1016"/>
      <point x="256" y="821"/>
      <point x="256" y="684" type="qcurve" smooth="yes"/>
      <point x="256" y="549"/>
      <point x="442" y="358"/>
    </contour>
  </outline>
</glyph>
<glyph name="yen" format="2">
  <advance width="1284"/>
  <unicode hex="00A5"/>
  <outline>
    <contour>
      <point x="754" y="698" type="line"/>
      <point x="934" y="698" type="line"/>
      <point x="926" y="657" type="line"/>
      <point x="719" y="657" type="line"/>
      <point x="639" y="563" type="line"/>
      <point x="629" y="514" type="line"/>
      <point x="895" y="514" type="line"/>
      <point x="887" y="473" type="line"/>
      <point x="621" y="473" type="line"/>
      <point x="518" y="0" type="line"/>
      <point x="477" y="0" type="line"/>
      <point x="580" y="473" type="line"/>
      <point x="313" y="473" type="line"/>
      <point x="322" y="514" type="line"/>
      <point x="588" y="514" type="line"/>
      <point x="598" y="567" type="line"/>
      <point x="561" y="657" type="line"/>
      <point x="352" y="657" type="line"/>
      <point x="362" y="698" type="line"/>
      <point x="545" y="698" type="line"/>
      <point x="229" y="1454" type="line"/>
      <point x="276" y="1454" type="line"/>
      <point x="629" y="610" type="line"/>
      <point x="1341" y="1454" type="line"/>
      <point x="1389" y="1454" type="line"/>
    </contour>
  </outline>
</glyph>
<glyph name="section" format="2">
  <advance width="958"/>
  <unicode hex="00A7"/>
  <outline>
    <contour>
      <point x="776" y="217" type="qcurve" smooth="yes"/>
      <point x="776" y="125"/>
      <point x="690" y="-31"/>
      <point x="557" y="-127"/>
      <point x="404" y="-180"/>
      <point x="332" y="-180" type="qcurve" smooth="yes"/>
      <point x="217" y="-180"/>
      <point x="62" y="-90"/>
      <point x="4" y="-12" type="qcurve"/>
      <point x="41" y="14" type="line"/>
      <point x="104" y="-64"/>
      <point x="247" y="-139"/>
      <point x="342" y="-139" type="qcurve" smooth="yes"/>
      <point x="393" y="-139"/>
      <point x="502" y="-109"/>
      <point x="603" y="-50"/>
      <point x="683" y="31"/>
      <point x="731" y="141"/>
      <point x="731" y="203" type="qcurve" smooth="yes"/>
      <point x="731" y="258"/>
      <point x="686" y="334"/>
      <point x="604" y="372"/>
      <point x="520" y="387"/>
      <point x="465" y="389" type="qcurve" smooth="yes"/>
      <point x="330" y="392"/>
      <point x="160" y="517"/>
      <point x="160" y="639" type="qcurve" smooth="yes"/>
      <point x="160" y="709"/>
      <point x="226" y="848"/>
      <point x="272" y="891" type="qcurve"/>
      <point x="239" y="915"/>
      <point x="201" y="1015"/>
      <point x="201" y="1075" type="qcurve" smooth="yes"/>
      <point x="201" y="1147"/>
      <point x="257" y="1275"/>
      <point x="348" y="1366"/>
      <point x="462" y="1432"/>
      <point x="582" y="1464"/>
      <point x="637" y="1464" type="qcurve" smooth="yes"/>
      <point x="760" y="1464"/>
      <point x="892" y="1389"/>
      <point x="928" y="1311" type="qcurve"/>
      <point x="887" y="1294" type="line"/>
      <point x="877" y="1332"/>
      <point x="822" y="1385"/>
      <point x="746" y="1412"/>
      <point x="671" y="1423"/>
      <point x="629" y="1423" type="qcurve" smooth="yes"/>
      <point x="542" y="1423"/>
      <point x="368" y="1344"/>
      <point x="244" y="1183"/>
      <point x="244" y="1081" type="qcurve" smooth="yes"/>
      <point x="244" y="872"/>
      <point x="516" y="872" type="qcurve" smooth="yes"/>
      <point x="601" y="872"/>
      <point x="738" y="825"/>
      <point x="829" y="712"/>
      <point x="829" y="629" type="qcurve" smooth="yes"/>
      <point x="829" y="557"/>
      <point x="761" y="415"/>
      <point x="709" y="371" type="qcurve"/>
      <point x="776" y="325"/>
    </contour>
    <contour>
      <point x="672" y="389" type="qcurve"/>
      <point x="722" y="426"/>
      <point x="788" y="556"/>
      <point x="788" y="621" type="qcurve" smooth="yes"/>
      <point x="788" y="678"/>
      <point x="738" y="763"/>
      <point x="654" y="809"/>
      <point x="560" y="831"/>
      <point x="508" y="831" type="qcurve" smooth="yes"/>
      <point x="384" y="831"/>
      <point x="307" y="870" type="qcurve"/>
      <point x="262" y="833"/>
      <point x="201" y="708"/>
      <point x="201" y="639" type="qcurve" smooth="yes"/>
      <point x="201" y="578"/>
      <point x="252" y="493"/>
      <point x="331" y="454"/>
      <point x="438" y="428"/>
      <point x="537" y="420"/>
      <point x="642" y="403"/>
    </contour>
  </outline>
</glyph>
<glyph name="dieresis" format="2">
  <advance width="473"/>
  <unicode hex="00A8"/>
  <anchor x="442" y="1495" name="Anchor-13"/>
  <outline>
    <contour>
      <point x="274" y="1337" type="line"/>
      <point x="307" y="1495" type="line"/>
      <point x="348" y="1495" type="line"/>
      <point x="315" y="1337" type="line"/>
    </contour>
    <contour>
      <point x="502" y="1337" type="line"/>
      <point x="535" y="1495" type="line"/>
      <point x="575" y="1495" type="line"/>
      <point x="543" y="1337" type="line"/>
    </contour>
  </outline>
</glyph>
<glyph name="copyright" format="2">
  <advance width="1712"/>
  <unicode hex="00A9"/>
  <outline>
    <contour>
      <point x="139" y="727" type="qcurve" smooth="yes"/>
      <point x="139" y="883"/>
      <point x="252" y="1157"/>
      <point x="447" y="1352"/>
      <point x="722" y="1464"/>
      <point x="1036" y="1464"/>
      <point x="1310" y="1352"/>
      <point x="1506" y="1157"/>
      <point x="1618" y="883"/>
      <point x="1618" y="727" type="qcurve" smooth="yes"/>
      <point x="1618" y="570"/>
      <point x="1506" y="295"/>
      <point x="1310" y="99"/>
      <point x="1036" y="-14"/>
      <point x="722" y="-14"/>
      <point x="447" y="99"/>
      <point x="252" y="295"/>
      <point x="139" y="570"/>
    </contour>
    <contour>
      <point x="1575" y="721" type="qcurve" smooth="yes"/>
      <point x="1575" y="921"/>
      <point x="1395" y="1243"/>
      <point x="1078" y="1423"/>
      <point x="881" y="1423" type="qcurve" smooth="yes"/>
      <point x="683" y="1423"/>
      <point x="363" y="1242"/>
      <point x="182" y="923"/>
      <point x="182" y="725" type="qcurve" smooth="yes"/>
      <point x="182" y="528"/>
      <point x="362" y="209"/>
      <point x="682" y="27"/>
      <point x="881" y="27" type="qcurve" smooth="yes"/>
      <point x="1075" y="27"/>
      <point x="1391" y="200"/>
      <point x="1575" y="519"/>
    </contour>
    <contour>
      <point x="444" y="727" type="qcurve" smooth="yes"/>
      <point x="444" y="794"/>
      <point x="476" y="925"/>
      <point x="545" y="1049"/>
      <point x="644" y="1143"/>
      <point x="790" y="1200"/>
      <point x="877" y="1200" type="qcurve" smooth="yes"/>
      <point x="997" y="1200"/>
      <point x="1187" y="1096"/>
      <point x="1225" y="997" type="qcurve"/>
      <point x="1186" y="983" type="line"/>
      <point x="1164" y="1036"/>
      <point x="1086" y="1110"/>
      <point x="995" y="1145"/>
      <point x="917" y="1159"/>
      <point x="877" y="1159" type="qcurve" smooth="yes"/>
      <point x="780" y="1159"/>
      <point x="625" y="1081"/>
      <point x="533" y="953"/>
      <point x="485" y="804"/>
      <point x="485" y="727" type="qcurve" smooth="yes"/>
      <point x="485" y="630"/>
      <point x="561" y="463"/>
      <point x="679" y="359"/>
      <point x="818" y="301"/>
      <point x="885" y="301" type="qcurve" smooth="yes"/>
      <point x="980" y="301"/>
      <point x="1171" y="405"/>
      <point x="1206" y="487" type="qcurve"/>
      <point x="1245" y="477" type="line"/>
      <point x="1237" y="448"/>
      <point x="1178" y="376"/>
      <point x="1089" y="307"/>
      <point x="960" y="260"/>
      <point x="893" y="260" type="qcurve" smooth="yes"/>
      <point x="814" y="260"/>
      <point x="657" y="324"/>
      <point x="526" y="439"/>
      <point x="444" y="620"/>
    </contour>
  </outline>
</glyph>
<glyph name="ordfeminine" format="2">
  <advance width="827"/>
  <unicode hex="00AA"/>
  <anchor x="0" y="0" name="Anchor-11"/>
  <anchor x="0" y="0" name="Anchor-10"/>
  <anchor x="406" y="1063" name="Anchor-9"/>
  <anchor x="0" y="0" name="Anchor-8"/>
  <anchor x="801" y="23" name="Anchor-7"/>
  <outline>
    <contour>
      <point x="162" y="901" type="qcurve" smooth="yes"/>
      <point x="162" y="1008"/>
      <point x="359" y="1147"/>
      <point x="502" y="1147" type="qcurve" smooth="yes"/>
      <point x="628" y="1147"/>
      <point x="717" y="1108" type="qcurve"/>
      <point x="731" y="1180" type="line" smooth="yes"/>
      <point x="737" y="1210"/>
      <point x="737" y="1237" type="qcurve" smooth="yes"/>
      <point x="737" y="1313"/>
      <point x="645" y="1401"/>
      <point x="563" y="1401" type="qcurve" smooth="yes"/>
      <point x="460" y="1401"/>
      <point x="319" y="1317" type="qcurve"/>
      <point x="303" y="1358" type="line"/>
      <point x="458" y="1452"/>
      <point x="578" y="1452" type="qcurve" smooth="yes"/>
      <point x="684" y="1452"/>
      <point x="799" y="1346"/>
      <point x="799" y="1251" type="qcurve" smooth="yes"/>
      <point x="799" y="1210"/>
      <point x="791" y="1174" type="qcurve" smooth="yes"/>
      <point x="717" y="823" type="line" smooth="yes"/>
      <point x="715" y="819"/>
      <point x="715" y="811" type="qcurve" smooth="yes"/>
      <point x="715" y="791"/>
      <point x="737" y="791" type="qcurve"/>
      <point x="725" y="731" type="line"/>
      <point x="689" y="731"/>
      <point x="655" y="752"/>
      <point x="655" y="778" type="qcurve" smooth="yes"/>
      <point x="655" y="787"/>
      <point x="657" y="793" type="qcurve" smooth="yes"/>
      <point x="668" y="852" type="line"/>
      <point x="607" y="789"/>
      <point x="438" y="719"/>
      <point x="350" y="719" type="qcurve" smooth="yes"/>
      <point x="267" y="719"/>
      <point x="162" y="823"/>
    </contour>
    <contour>
      <point x="680" y="936" type="qcurve" smooth="yes"/>
      <point x="707" y="1061" type="line"/>
      <point x="625" y="1100"/>
      <point x="500" y="1100" type="qcurve" smooth="yes"/>
      <point x="379" y="1100"/>
      <point x="223" y="997"/>
      <point x="223" y="911" type="qcurve" smooth="yes"/>
      <point x="223" y="852"/>
      <point x="307" y="772"/>
      <point x="373" y="772" type="qcurve" smooth="yes"/>
      <point x="437" y="772"/>
      <point x="571" y="815"/>
      <point x="670" y="892"/>
    </contour>
  </outline>
</glyph>
<glyph name="guillemotleft" format="2">
  <advance width="1017"/>
  <unicode hex="00AB"/>
  <outline>
    <contour>
      <point x="74" y="549" type="line"/>
      <point x="608" y="895" type="line"/>
      <point x="598" y="850" type="line"/>
      <point x="109" y="530" type="line"/>
      <point x="463" y="209" type="line"/>
      <point x="453" y="164" type="line"/>
      <point x="66" y="512" type="line"/>
    </contour>
    <contour>
      <point x="406" y="549" type="line"/>
      <point x="942" y="895" type="line"/>
      <point x="932" y="850" type="line"/>
      <point x="440" y="530" type="line"/>
      <point x="795" y="209" type="line"/>
      <point x="786" y="164" type="line"/>
      <point x="399" y="512" type="line"/>
    </contour>
  </outline>
</glyph>
<glyph name="logicalnot" format="2">
  <advance width="1105"/>
  <unicode hex="00AC"/>
  <outline>
    <contour>
      <point x="979" y="692" type="line"/>
      <point x="893" y="287" type="line"/>
      <point x="852" y="287" type="line"/>
      <point x="930" y="651" type="line"/>
      <point x="184" y="651" type="line"/>
      <point x="193" y="692" type="line"/>
    </contour>
  </outline>
</glyph>
<glyph name="sfthyphen" format="2">
  <advance width="1062"/>
  <unicode hex="00AD"/>
  <outline>
    <contour>
      <point x="121" y="535" type="line"/>
      <point x="129" y="575" type="line"/>
      <point x="915" y="575" type="line"/>
      <point x="907" y="535" type="line"/>
    </contour>
  </outline>
</glyph>
<glyph name="registered" format="2">
  <advance width="1712"/>
  <unicode hex="00AE"/>
  <outline>
    <contour>
      <point x="139" y="727" type="qcurve" smooth="yes"/>
      <point x="139" y="883"/>
      <point x="252" y="1157"/>
      <point x="447" y="1352"/>
      <point x="722" y="1464"/>
      <point x="1036" y="1464"/>
      <point x="1310" y="1352"/>
      <point x="1506" y="1157"/>
      <point x="1618" y="883"/>
      <point x="1618" y="727" type="qcurve" smooth="yes"/>
      <point x="1618" y="570"/>
      <point x="1506" y="295"/>
      <point x="1310" y="99"/>
      <point x="1036" y="-14"/>
      <point x="722" y="-14"/>
      <point x="447" y="99"/>
      <point x="252" y="295"/>
      <point x="139" y="570"/>
    </contour>
    <contour>
      <point x="1575" y="727" type="qcurve" smooth="yes"/>
      <point x="1575" y="874"/>
      <point x="1469" y="1132"/>
      <point x="1286" y="1316"/>
      <point x="1027" y="1423"/>
      <point x="879" y="1423" type="qcurve" smooth="yes"/>
      <point x="732" y="1423"/>
      <point x="473" y="1316"/>
      <point x="288" y="1132"/>
      <point x="182" y="874"/>
      <point x="182" y="727" type="qcurve" smooth="yes"/>
      <point x="182" y="529"/>
      <point x="362" y="209"/>
      <point x="681" y="27"/>
      <point x="879" y="27" type="qcurve" smooth="yes"/>
      <point x="1075" y="27"/>
      <point x="1391" y="199"/>
      <point x="1575" y="520"/>
    </contour>
    <contour>
      <point x="582" y="1194" type="line"/>
      <point x="967" y="1194" type="line" smooth="yes"/>
      <point x="1080" y="1194"/>
      <point x="1233" y="1018"/>
      <point x="1233" y="907" type="qcurve" smooth="yes"/>
      <point x="1233" y="795"/>
      <point x="1096" y="628"/>
      <point x="991" y="621" type="qcurve"/>
      <point x="1231" y="248" type="line"/>
      <point x="1182" y="248" type="line"/>
      <point x="944" y="621" type="line"/>
      <point x="625" y="621" type="line"/>
      <point x="625" y="248" type="line"/>
      <point x="582" y="248" type="line"/>
    </contour>
    <contour>
      <point x="977" y="662" type="line" smooth="yes"/>
      <point x="1078" y="662"/>
      <point x="1192" y="803"/>
      <point x="1192" y="907" type="qcurve" smooth="yes"/>
      <point x="1192" y="1009"/>
      <point x="1065" y="1151"/>
      <point x="967" y="1151" type="qcurve" smooth="yes"/>
      <point x="625" y="1151" type="line"/>
      <point x="625" y="662" type="line"/>
    </contour>
  </outline>
</glyph>
<glyph name="macron" format="2">
  <advance width="749"/>
  <unicode hex="00AF"/>
  <anchor x="569" y="1446" name="Anchor-13"/>
  <outline>
    <contour>
      <point x="289" y="1405" type="line"/>
      <point x="297" y="1446" type="line"/>
      <point x="842" y="1446" type="line"/>
      <point x="834" y="1405" type="line"/>
    </contour>
  </outline>
</glyph>
<glyph name="degree" format="2">
  <advance width="501"/>
  <unicode hex="00B0"/>
  <outline>
    <contour>
      <point x="260" y="1311" type="qcurve" smooth="yes"/>
      <point x="260" y="1376"/>
      <point x="362" y="1483"/>
      <point x="430" y="1483" type="qcurve" smooth="yes"/>
      <point x="477" y="1483"/>
      <point x="539" y="1416"/>
      <point x="539" y="1366" type="qcurve" smooth="yes"/>
      <point x="539" y="1301"/>
      <point x="434" y="1200"/>
      <point x="369" y="1200" type="qcurve" smooth="yes"/>
      <point x="322" y="1200"/>
      <point x="260" y="1264"/>
    </contour>
    <contour>
      <point x="498" y="1360" type="qcurve" smooth="yes"/>
      <point x="498" y="1436"/>
      <point x="420" y="1436" type="qcurve" smooth="yes"/>
      <point x="375" y="1436"/>
      <point x="307" y="1370"/>
      <point x="307" y="1323" type="qcurve" smooth="yes"/>
      <point x="307" y="1288"/>
      <point x="345" y="1241"/>
      <point x="379" y="1241" type="qcurve" smooth="yes"/>
      <point x="420" y="1241"/>
      <point x="498" y="1313"/>
    </contour>
  </outline>
</glyph>
<glyph name="plusminus" format="2">
  <advance width="989"/>
  <unicode hex="00B1"/>
  <outline>
    <contour>
      <point x="772" y="748" type="line"/>
      <point x="772" y="707" type="line"/>
      <point x="485" y="707" type="line"/>
      <point x="485" y="399" type="line"/>
      <point x="444" y="399" type="line"/>
      <point x="444" y="707" type="line"/>
      <point x="158" y="707" type="line"/>
      <point x="158" y="748" type="line"/>
      <point x="444" y="748" type="line"/>
      <point x="444" y="1055" type="line"/>
      <point x="485" y="1055" type="line"/>
      <point x="485" y="748" type="line"/>
    </contour>
    <contour>
      <point x="158" y="174" type="line"/>
      <point x="158" y="215" type="line"/>
      <point x="772" y="215" type="line"/>
      <point x="772" y="174" type="line"/>
    </contour>
  </outline>
</glyph>
<glyph name="twosuperior" format="2">
  <advance width="724"/>
  <unicode hex="00B2"/>
  <outline>
    <contour>
      <point x="137" y="866" type="line"/>
      <point x="168" y="1011"/>
      <point x="325" y="1175"/>
      <point x="453" y="1221" type="qcurve" smooth="yes"/>
      <point x="470" y="1227"/>
      <point x="558" y="1256"/>
      <point x="601" y="1272"/>
      <point x="675" y="1304"/>
      <point x="715" y="1336"/>
      <point x="759" y="1381"/>
      <point x="778" y="1439"/>
      <point x="778" y="1473" type="qcurve" smooth="yes"/>
      <point x="778" y="1538"/>
      <point x="689" y="1622"/>
      <point x="598" y="1622" type="qcurve" smooth="yes"/>
      <point x="505" y="1622"/>
      <point x="360" y="1542"/>
      <point x="313" y="1493" type="qcurve"/>
      <point x="287" y="1524" type="line"/>
      <point x="292" y="1530"/>
      <point x="317" y="1555"/>
      <point x="377" y="1598"/>
      <point x="447" y="1634"/>
      <point x="549" y="1661"/>
      <point x="602" y="1661" type="qcurve" smooth="yes"/>
      <point x="710" y="1661"/>
      <point x="817" y="1558"/>
      <point x="817" y="1479" type="qcurve" smooth="yes"/>
      <point x="817" y="1443"/>
      <point x="797" y="1380"/>
      <point x="769" y="1334"/>
      <point x="716" y="1291"/>
      <point x="677" y="1265"/>
      <point x="604" y="1235"/>
      <point x="567" y="1222"/>
      <point x="489" y="1198"/>
      <point x="477" y="1194" type="qcurve" smooth="yes"/>
      <point x="400" y="1168"/>
      <point x="289" y="1093"/>
      <point x="231" y="1009"/>
      <point x="204" y="943"/>
      <point x="197" y="905" type="qcurve"/>
      <point x="700" y="905" type="line"/>
      <point x="692" y="866" type="line"/>
    </contour>
  </outline>
</glyph>
<glyph name="threesuperior" format="2">
  <advance width="743"/>
  <unicode hex="00B3"/>
  <outline>
    <contour>
      <point x="172" y="1053" type="qcurve"/>
      <point x="207" y="1067" type="line"/>
      <point x="207" y="984"/>
      <point x="323" y="895"/>
      <point x="428" y="895" type="qcurve" smooth="yes"/>
      <point x="545" y="895"/>
      <point x="715" y="1010"/>
      <point x="715" y="1094" type="qcurve" smooth="yes"/>
      <point x="715" y="1165"/>
      <point x="579" y="1247"/>
      <point x="461" y="1247" type="qcurve" smooth="yes"/>
      <point x="418" y="1247" type="line"/>
      <point x="426" y="1284" type="line"/>
      <point x="469" y="1284" type="line" smooth="yes"/>
      <point x="612" y="1284"/>
      <point x="770" y="1379"/>
      <point x="770" y="1468" type="qcurve" smooth="yes"/>
      <point x="770" y="1537"/>
      <point x="658" y="1624"/>
      <point x="567" y="1624" type="qcurve" smooth="yes"/>
      <point x="486" y="1624"/>
      <point x="347" y="1556"/>
      <point x="311" y="1501" type="qcurve"/>
      <point x="287" y="1526" type="line"/>
      <point x="328" y="1587"/>
      <point x="486" y="1661"/>
      <point x="575" y="1661" type="qcurve" smooth="yes"/>
      <point x="681" y="1661"/>
      <point x="813" y="1556"/>
      <point x="813" y="1475" type="qcurve" smooth="yes"/>
      <point x="813" y="1396"/>
      <point x="704" y="1289"/>
      <point x="598" y="1266" type="qcurve"/>
      <point x="671" y="1253"/>
      <point x="756" y="1160"/>
      <point x="756" y="1098" type="qcurve" smooth="yes"/>
      <point x="756" y="996"/>
      <point x="555" y="856"/>
      <point x="420" y="856" type="qcurve" smooth="yes"/>
      <point x="302" y="856"/>
      <point x="172" y="964"/>
    </contour>
  </outline>
</glyph>
<glyph name="acute" format="2">
  <advance width="397"/>
  <unicode hex="00B4"/>
  <anchor x="248" y="1495" name="Anchor-13"/>
  <outline>
    <contour>
      <point x="293" y="1321" type="line"/>
      <point x="266" y="1346" type="line"/>
      <point x="422" y="1495" type="line"/>
      <point x="489" y="1495" type="line"/>
    </contour>
  </outline>
</glyph>
<glyph name="mu" format="2">
  <advance width="1187"/>
  <unicode hex="00B5"/>
  <outline>
    <contour>
      <point x="279" y="1063" type="line"/>
      <point x="322" y="1063" type="line"/>
      <point x="195" y="467" type="line" smooth="yes"/>
      <point x="170" y="348"/>
      <point x="170" y="268" type="qcurve" smooth="yes"/>
      <point x="170" y="20"/>
      <point x="383" y="20" type="qcurve" smooth="yes"/>
      <point x="529" y="20"/>
      <point x="821" y="227"/>
      <point x="899" y="387" type="qcurve"/>
      <point x="1042" y="1063" type="line"/>
      <point x="1085" y="1063" type="line"/>
      <point x="877" y="82" type="line" smooth="yes"/>
      <point x="874" y="76"/>
      <point x="874" y="68" type="qcurve" smooth="yes"/>
      <point x="874" y="41"/>
      <point x="899" y="41" type="qcurve"/>
      <point x="889" y="0" type="line"/>
      <point x="834" y="0"/>
      <point x="834" y="61" type="qcurve" smooth="yes"/>
      <point x="834" y="76"/>
      <point x="836" y="82" type="qcurve" smooth="yes"/>
      <point x="877" y="270" type="line"/>
      <point x="782" y="137"/>
      <point x="510" y="-20"/>
      <point x="375" y="-20" type="qcurve" smooth="yes"/>
      <point x="162" y="-20"/>
      <point x="135" y="193" type="qcurve"/>
      <point x="2" y="-434" type="line"/>
      <point x="-39" y="-434" type="line"/>
    </contour>
  </outline>
</glyph>
<glyph name="paragraph" format="2">
  <advance width="1107"/>
  <unicode hex="00B6"/>
  <outline>
    <contour>
      <point x="793" y="1454" type="qcurve" smooth="yes"/>
      <point x="1186" y="1454" type="line"/>
      <point x="1176" y="1413" type="line"/>
      <point x="1040" y="1413" type="line"/>
      <point x="705" y="-164" type="line"/>
      <point x="664" y="-164" type="line"/>
      <point x="807" y="508" type="line"/>
      <point x="631" y="508" type="line"/>
      <point x="487" y="-164" type="line"/>
      <point x="446" y="-164" type="line"/>
      <point x="590" y="508" type="line"/>
      <point x="371" y="512"/>
      <point x="131" y="712"/>
      <point x="131" y="887" type="qcurve" smooth="yes"/>
      <point x="131" y="1141"/>
      <point x="493" y="1454"/>
    </contour>
    <contour>
      <point x="598" y="549" type="qcurve"/>
      <point x="782" y="1413" type="line"/>
      <point x="495" y="1413"/>
      <point x="172" y="1131"/>
      <point x="172" y="897" type="qcurve" smooth="yes"/>
      <point x="172" y="810"/>
      <point x="238" y="678"/>
      <point x="356" y="596"/>
      <point x="507" y="553"/>
    </contour>
    <contour>
      <point x="999" y="1413" type="line"/>
      <point x="823" y="1413" type="line"/>
      <point x="639" y="549" type="line"/>
      <point x="815" y="549" type="line"/>
    </contour>
  </outline>
</glyph>
<glyph name="periodcentered" format="2">
  <advance width="317"/>
  <unicode hex="00B7"/>
  <outline>
    <contour>
      <point x="115" y="512" type="line"/>
      <point x="152" y="682" type="line"/>
      <point x="190" y="682" type="line"/>
      <point x="156" y="512" type="line"/>
    </contour>
  </outline>
</glyph>
<glyph name="cedilla" format="2">
  <advance width="579"/>
  <unicode hex="00B8"/>
  <outline>
    <contour>
      <point x="115" y="-336" type="qcurve" smooth="yes"/>
      <point x="5" y="-336"/>
      <point x="-72" y="-285" type="qcurve"/>
      <point x="-49" y="-254" type="line"/>
      <point x="-3" y="-278"/>
      <point x="68" y="-299"/>
      <point x="117" y="-299" type="qcurve" smooth="yes"/>
      <point x="195" y="-299"/>
      <point x="291" y="-216"/>
      <point x="291" y="-156" type="qcurve" smooth="yes"/>
      <point x="291" y="-111"/>
      <point x="238" y="-37"/>
      <point x="184" y="0" type="qcurve"/>
      <point x="225" y="18" type="line"/>
      <point x="276" y="-22"/>
      <point x="328" y="-100"/>
      <point x="328" y="-150" type="qcurve" smooth="yes"/>
      <point x="328" y="-242"/>
      <point x="210" y="-336"/>
    </contour>
  </outline>
</glyph>
<glyph name="onesuperior" format="2">
  <advance width="491"/>
  <unicode hex="00B9"/>
  <outline>
    <contour>
      <point x="512" y="903" type="line"/>
      <point x="504" y="864" type="line"/>
      <point x="152" y="864" type="line"/>
      <point x="160" y="903" type="line"/>
      <point x="322" y="903" type="line"/>
      <point x="471" y="1608" type="line"/>
      <point x="441" y="1578"/>
      <point x="306" y="1511"/>
      <point x="262" y="1511" type="qcurve"/>
      <point x="270" y="1550" type="line"/>
      <point x="308" y="1550"/>
      <point x="412" y="1605"/>
      <point x="477" y="1655"/>
      <point x="481" y="1661" type="qcurve"/>
      <point x="522" y="1661" type="line"/>
      <point x="360" y="903" type="line"/>
    </contour>
  </outline>
</glyph>
<glyph name="ordmasculine" format="2">
  <advance width="882"/>
  <unicode hex="00BA"/>
  <anchor x="0" y="0" name="Anchor-11"/>
  <anchor x="0" y="0" name="Anchor-10"/>
  <anchor x="469" y="1063" name="Anchor-9"/>
  <anchor x="0" y="0" name="Anchor-8"/>
  <anchor x="467" y="0" name="Anchor-7"/>
  <outline>
    <contour>
      <point x="186" y="1018" type="qcurve" smooth="yes"/>
      <point x="186" y="1129"/>
      <point x="308" y="1331"/>
      <point x="505" y="1452"/>
      <point x="612" y="1452" type="qcurve" smooth="yes"/>
      <point x="734" y="1452"/>
      <point x="889" y="1278"/>
      <point x="889" y="1151" type="qcurve" smooth="yes"/>
      <point x="889" y="1041"/>
      <point x="766" y="840"/>
      <point x="565" y="719"/>
      <point x="457" y="719" type="qcurve" smooth="yes"/>
      <point x="336" y="719"/>
      <point x="186" y="893"/>
    </contour>
    <contour>
      <point x="844" y="1145" type="qcurve" smooth="yes"/>
      <point x="844" y="1259"/>
      <point x="709" y="1411"/>
      <point x="604" y="1411" type="qcurve" smooth="yes"/>
      <point x="514" y="1411"/>
      <point x="340" y="1305"/>
      <point x="229" y="1123"/>
      <point x="229" y="1022" type="qcurve" smooth="yes"/>
      <point x="229" y="910"/>
      <point x="362" y="758"/>
      <point x="465" y="758" type="qcurve" smooth="yes"/>
      <point x="558" y="758"/>
      <point x="733" y="865"/>
      <point x="844" y="1045"/>
    </contour>
  </outline>
</glyph>
<glyph name="guillemotright" format="2">
  <advance width="1017"/>
  <unicode hex="00BB"/>
  <outline>
    <contour>
      <point x="575" y="512" type="line"/>
      <point x="39" y="164" type="line"/>
      <point x="49" y="209" type="line"/>
      <point x="541" y="530" type="line"/>
      <point x="184" y="850" type="line"/>
      <point x="195" y="895" type="line"/>
      <point x="582" y="549" type="line"/>
    </contour>
    <contour>
      <point x="907" y="512" type="line"/>
      <point x="373" y="164" type="line"/>
      <point x="381" y="209" type="line"/>
      <point x="872" y="530" type="line"/>
      <point x="518" y="850" type="line"/>
      <point x="526" y="895" type="line"/>
      <point x="915" y="549" type="line"/>
    </contour>
  </outline>
</glyph>
<glyph name="onequarter" format="2">
  <advance width="1458"/>
  <unicode hex="00BC"/>
  <outline>
    <contour>
      <point x="477" y="739" type="line"/>
      <point x="469" y="700" type="line"/>
      <point x="117" y="700" type="line"/>
      <point x="125" y="739" type="line"/>
      <point x="287" y="739" type="line"/>
      <point x="436" y="1444" type="line"/>
      <point x="407" y="1415"/>
      <point x="271" y="1348"/>
      <point x="227" y="1348" type="qcurve"/>
      <point x="236" y="1386" type="line"/>
      <point x="274" y="1386"/>
      <point x="378" y="1441"/>
      <point x="442" y="1491"/>
      <point x="446" y="1497" type="qcurve"/>
      <point x="487" y="1497" type="line"/>
      <point x="326" y="739" type="line"/>
    </contour>
    <contour>
      <point x="-72" y="23" type="line"/>
      <point x="1319" y="1456" type="line"/>
      <point x="1346" y="1432" type="line"/>
      <point x="-45" y="-2" type="line"/>
    </contour>
    <contour>
      <point x="1161" y="225" type="line"/>
      <point x="709" y="225" type="line"/>
      <point x="717" y="260" type="line"/>
      <point x="1292" y="784" type="line"/>
      <point x="1321" y="784" type="line"/>
      <point x="1210" y="264" type="line"/>
      <point x="1317" y="264" type="line"/>
      <point x="1309" y="225" type="line"/>
      <point x="1202" y="225" type="line"/>
      <point x="1153" y="0" type="line"/>
      <point x="1114" y="0" type="line"/>
    </contour>
    <contour>
      <point x="1169" y="264" type="line"/>
      <point x="1266" y="713" type="line"/>
      <point x="772" y="264" type="line"/>
    </contour>
  </outline>
</glyph>
<glyph name="onehalf" format="2">
  <advance width="1462"/>
  <unicode hex="00BD"/>
  <outline>
    <contour>
      <point x="477" y="739" type="line"/>
      <point x="469" y="700" type="line"/>
      <point x="117" y="700" type="line"/>
      <point x="125" y="739" type="line"/>
      <point x="287" y="739" type="line"/>
      <point x="436" y="1444" type="line"/>
      <point x="407" y="1415"/>
      <point x="271" y="1348"/>
      <point x="227" y="1348" type="qcurve"/>
      <point x="236" y="1386" type="line"/>
      <point x="274" y="1386"/>
      <point x="378" y="1441"/>
      <point x="442" y="1491"/>
      <point x="446" y="1497" type="qcurve"/>
      <point x="487" y="1497" type="line"/>
      <point x="326" y="739" type="line"/>
    </contour>
    <contour>
      <point x="-72" y="23" type="line"/>
      <point x="1319" y="1456" type="line"/>
      <point x="1346" y="1432" type="line"/>
      <point x="-45" y="-2" type="line"/>
    </contour>
    <contour>
      <point x="690" y="0" type="line"/>
      <point x="721" y="145"/>
      <point x="877" y="308"/>
      <point x="1006" y="354" type="qcurve" smooth="yes"/>
      <point x="1023" y="360"/>
      <point x="1111" y="389"/>
      <point x="1154" y="405"/>
      <point x="1228" y="437"/>
      <point x="1268" y="469"/>
      <point x="1312" y="514"/>
      <point x="1331" y="572"/>
      <point x="1331" y="606" type="qcurve" smooth="yes"/>
      <point x="1331" y="671"/>
      <point x="1242" y="756"/>
      <point x="1151" y="756" type="qcurve" smooth="yes"/>
      <point x="1058" y="756"/>
      <point x="913" y="676"/>
      <point x="866" y="627" type="qcurve"/>
      <point x="840" y="657" type="line"/>
      <point x="845" y="663"/>
      <point x="870" y="688"/>
      <point x="930" y="732"/>
      <point x="1000" y="768"/>
      <point x="1102" y="795"/>
      <point x="1155" y="795" type="qcurve" smooth="yes"/>
      <point x="1263" y="795"/>
      <point x="1370" y="692"/>
      <point x="1370" y="612" type="qcurve" smooth="yes"/>
      <point x="1370" y="576"/>
      <point x="1350" y="513"/>
      <point x="1322" y="467"/>
      <point x="1269" y="425"/>
      <point x="1229" y="399"/>
      <point x="1158" y="369"/>
      <point x="1119" y="356"/>
      <point x="1043" y="332"/>
      <point x="1030" y="328" type="qcurve" smooth="yes"/>
      <point x="953" y="302"/>
      <point x="842" y="227"/>
      <point x="784" y="143"/>
      <point x="757" y="77"/>
      <point x="750" y="39" type="qcurve"/>
      <point x="1253" y="39" type="line"/>
      <point x="1245" y="0" type="line"/>
    </contour>
  </outline>
</glyph>
<glyph name="threequarters" format="2">
  <advance width="1710"/>
  <unicode hex="00BE"/>
  <outline>
    <contour>
      <point x="137" y="889" type="qcurve"/>
      <point x="172" y="903" type="line"/>
      <point x="172" y="830"/>
      <point x="292" y="731"/>
      <point x="393" y="731" type="qcurve" smooth="yes"/>
      <point x="510" y="731"/>
      <point x="680" y="846"/>
      <point x="680" y="930" type="qcurve" smooth="yes"/>
      <point x="680" y="1000"/>
      <point x="543" y="1083"/>
      <point x="426" y="1083" type="qcurve" smooth="yes"/>
      <point x="383" y="1083" type="line"/>
      <point x="391" y="1120" type="line"/>
      <point x="434" y="1120" type="line" smooth="yes"/>
      <point x="577" y="1120"/>
      <point x="735" y="1216"/>
      <point x="735" y="1305" type="qcurve" smooth="yes"/>
      <point x="735" y="1374"/>
      <point x="623" y="1460"/>
      <point x="532" y="1460" type="qcurve" smooth="yes"/>
      <point x="451" y="1460"/>
      <point x="312" y="1392"/>
      <point x="276" y="1337" type="qcurve"/>
      <point x="252" y="1362" type="line"/>
      <point x="293" y="1423"/>
      <point x="451" y="1497"/>
      <point x="541" y="1497" type="qcurve" smooth="yes"/>
      <point x="647" y="1497"/>
      <point x="778" y="1392"/>
      <point x="778" y="1311" type="qcurve" smooth="yes"/>
      <point x="778" y="1232"/>
      <point x="669" y="1125"/>
      <point x="563" y="1102" type="qcurve"/>
      <point x="636" y="1089"/>
      <point x="721" y="996"/>
      <point x="721" y="934" type="qcurve" smooth="yes"/>
      <point x="721" y="832"/>
      <point x="520" y="692"/>
      <point x="385" y="692" type="qcurve" smooth="yes"/>
      <point x="344" y="692"/>
      <point x="260" y="715"/>
      <point x="185" y="761"/>
      <point x="137" y="839"/>
    </contour>
    <contour>
      <point x="180" y="23" type="line"/>
      <point x="1571" y="1456" type="line"/>
      <point x="1597" y="1432" type="line"/>
      <point x="207" y="-2" type="line"/>
    </contour>
    <contour>
      <point x="1413" y="225" type="line"/>
      <point x="961" y="225" type="line"/>
      <point x="969" y="260" type="line"/>
      <point x="1544" y="784" type="line"/>
      <point x="1573" y="784" type="line"/>
      <point x="1462" y="264" type="line"/>
      <point x="1569" y="264" type="line"/>
      <point x="1561" y="225" type="line"/>
      <point x="1454" y="225" type="line"/>
      <point x="1405" y="0" type="line"/>
      <point x="1366" y="0" type="line"/>
    </contour>
    <contour>
      <point x="1421" y="264" type="line"/>
      <point x="1518" y="713" type="line"/>
      <point x="1024" y="264" type="line"/>
    </contour>
  </outline>
</glyph>
<glyph name="questiondown" format="2">
  <advance width="911"/>
  <unicode hex="00BF"/>
  <outline>
    <contour>
      <point x="659" y="1036" type="line"/>
      <point x="623" y="864" type="line"/>
      <point x="582" y="864" type="line"/>
      <point x="618" y="1036" type="line"/>
    </contour>
    <contour>
      <point x="582" y="670" type="line"/>
      <point x="562" y="575"/>
      <point x="510" y="440"/>
      <point x="442" y="356"/>
      <point x="379" y="309"/>
      <point x="334" y="287" type="qcurve" smooth="yes"/>
      <point x="312" y="276"/>
      <point x="233" y="241"/>
      <point x="182" y="218"/>
      <point x="111" y="177"/>
      <point x="65" y="139"/>
      <point x="14" y="79"/>
      <point x="-15" y="12"/>
      <point x="-35" y="-80"/>
      <point x="-35" y="-135" type="qcurve" smooth="yes"/>
      <point x="-35" y="-262"/>
      <point x="113" y="-395"/>
      <point x="225" y="-395" type="qcurve" smooth="yes"/>
      <point x="343" y="-395"/>
      <point x="574" y="-265"/>
      <point x="647" y="-156" type="qcurve"/>
      <point x="680" y="-172" type="line"/>
      <point x="601" y="-295"/>
      <point x="345" y="-436"/>
      <point x="219" y="-436" type="qcurve" smooth="yes"/>
      <point x="92" y="-436"/>
      <point x="-76" y="-277"/>
      <point x="-76" y="-135" type="qcurve" smooth="yes"/>
      <point x="-76" y="-77"/>
      <point x="-55" y="21"/>
      <point x="-25" y="92"/>
      <point x="30" y="157"/>
      <point x="78" y="199"/>
      <point x="156" y="245"/>
      <point x="210" y="271"/>
      <point x="299" y="313"/>
      <point x="324" y="326" type="qcurve" smooth="yes"/>
      <point x="365" y="346"/>
      <point x="418" y="387"/>
      <point x="477" y="461"/>
      <point x="523" y="582"/>
      <point x="541" y="670" type="qcurve"/>
    </contour>
  </outline>
</glyph>
<glyph name="Agrave" format="2">
  <advance width="1325"/>
  <unicode hex="00C0"/>
  <anchor x="0" y="0" name="Anchor-11"/>
  <anchor x="0" y="0" name="Anchor-10"/>
  <anchor x="821" y="1886" name="Anchor-9"/>
  <anchor x="1159" y="0" name="Anchor-8"/>
  <anchor x="551" y="0" name="Anchor-7"/>
  <outline>
    <contour>
      <point x="723" y="1886" type="line"/>
      <point x="788" y="1886" type="line"/>
      <point x="883" y="1737" type="line"/>
      <point x="846" y="1712" type="line"/>
    </contour>
    <contour>
      <point x="831" y="1454" type="line"/>
      <point x="868" y="1454" type="line"/>
      <point x="1159" y="0" type="line"/>
      <point x="1114" y="0" type="line"/>
      <point x="1010" y="520" type="line"/>
      <point x="291" y="520" type="line"/>
      <point x="-35" y="0" type="line"/>
      <point x="-80" y="0" type="line"/>
    </contour>
    <contour>
      <point x="1001" y="561" type="line"/>
      <point x="838" y="1395" type="line"/>
      <point x="315" y="561" type="line"/>
    </contour>
  </outline>
</glyph>
<glyph name="Acircumflex" format="2">
  <advance width="1325"/>
  <unicode hex="00C2"/>
  <anchor x="0" y="0" name="Anchor-11"/>
  <anchor x="0" y="0" name="Anchor-10"/>
  <anchor x="922" y="1827" name="Anchor-9"/>
  <anchor x="1159" y="0" name="Anchor-8"/>
  <anchor x="551" y="0" name="Anchor-7"/>
  <outline>
    <contour>
      <point x="705" y="1675" type="line"/>
      <point x="918" y="1827" type="line"/>
      <point x="950" y="1827" type="line"/>
      <point x="1100" y="1675" type="line"/>
      <point x="1063" y="1651" type="line"/>
      <point x="924" y="1780" type="line"/>
      <point x="731" y="1651" type="line"/>
    </contour>
    <contour>
      <point x="831" y="1454" type="line"/>
      <point x="868" y="1454" type="line"/>
      <point x="1159" y="0" type="line"/>
      <point x="1114" y="0" type="line"/>
      <point x="1010" y="520" type="line"/>
      <point x="291" y="520" type="line"/>
      <point x="-35" y="0" type="line"/>
      <point x="-80" y="0" type="line"/>
    </contour>
    <contour>
      <point x="1001" y="561" type="line"/>
      <point x="838" y="1395" type="line"/>
      <point x="315" y="561" type="line"/>
    </contour>
  </outline>
</glyph>
<glyph name="Atilde" format="2">
  <advance width="1325"/>
  <unicode hex="00C3"/>
  <anchor x="0" y="0" name="Anchor-11"/>
  <anchor x="0" y="0" name="Anchor-10"/>
  <anchor x="942" y="1886" name="Anchor-9"/>
  <anchor x="1159" y="0" name="Anchor-8"/>
  <anchor x="551" y="0" name="Anchor-7"/>
  <outline>
    <contour>
      <point x="799" y="1827" type="qcurve" smooth="yes"/>
      <point x="770" y="1827"/>
      <point x="722" y="1801"/>
      <point x="694" y="1762"/>
      <point x="681" y="1738"/>
      <point x="678" y="1729" type="qcurve"/>
      <point x="639" y="1729" type="line"/>
      <point x="640" y="1735"/>
      <point x="650" y="1761"/>
      <point x="677" y="1803"/>
      <point x="713" y="1839"/>
      <point x="775" y="1866"/>
      <point x="811" y="1866" type="qcurve" smooth="yes"/>
      <point x="861" y="1866"/>
      <point x="988" y="1788"/>
      <point x="1038" y="1788" type="qcurve" smooth="yes"/>
      <point x="1068" y="1788"/>
      <point x="1117" y="1807"/>
      <point x="1145" y="1832"/>
      <point x="1166" y="1864"/>
      <point x="1173" y="1881"/>
      <point x="1174" y="1886" type="qcurve"/>
      <point x="1212" y="1886" type="line"/>
      <point x="1209" y="1874"/>
      <point x="1191" y="1838"/>
      <point x="1151" y="1785"/>
      <point x="1075" y="1749"/>
      <point x="1026" y="1749" type="qcurve" smooth="yes"/>
      <point x="987" y="1749"/>
      <point x="919" y="1773"/>
      <point x="879" y="1803"/>
      <point x="825" y="1827"/>
    </contour>
    <contour>
      <point x="831" y="1454" type="line"/>
      <point x="868" y="1454" type="line"/>
      <point x="1159" y="0" type="line"/>
      <point x="1114" y="0" type="line"/>
      <point x="1010" y="520" type="line"/>
      <point x="291" y="520" type="line"/>
      <point x="-35" y="0" type="line"/>
      <point x="-80" y="0" type="line"/>
    </contour>
    <contour>
      <point x="1001" y="561" type="line"/>
      <point x="838" y="1395" type="line"/>
      <point x="315" y="561" type="line"/>
    </contour>
  </outline>
</glyph>
<glyph name="Adieresis" format="2">
  <advance width="1325"/>
  <unicode hex="00C4"/>
  <anchor x="0" y="0" name="Anchor-11"/>
  <anchor x="0" y="0" name="Anchor-10"/>
  <anchor x="942" y="1886" name="Anchor-9"/>
  <anchor x="1159" y="0" name="Anchor-8"/>
  <anchor x="551" y="0" name="Anchor-7"/>
  <outline>
    <contour>
      <point x="774" y="1729" type="line"/>
      <point x="807" y="1886" type="line"/>
      <point x="848" y="1886" type="line"/>
      <point x="815" y="1729" type="line"/>
    </contour>
    <contour>
      <point x="1001" y="1729" type="line"/>
      <point x="1034" y="1886" type="line"/>
      <point x="1075" y="1886" type="line"/>
      <point x="1042" y="1729" type="line"/>
    </contour>
    <contour>
      <point x="831" y="1454" type="line"/>
      <point x="868" y="1454" type="line"/>
      <point x="1159" y="0" type="line"/>
      <point x="1114" y="0" type="line"/>
      <point x="1010" y="520" type="line"/>
      <point x="291" y="520" type="line"/>
      <point x="-35" y="0" type="line"/>
      <point x="-80" y="0" type="line"/>
    </contour>
    <contour>
      <point x="1001" y="561" type="line"/>
      <point x="838" y="1395" type="line"/>
      <point x="315" y="561" type="line"/>
    </contour>
  </outline>
</glyph>
<glyph name="Aring" format="2">
  <advance width="1325"/>
  <unicode hex="00C5"/>
  <anchor x="0" y="0" name="Anchor-11"/>
  <anchor x="0" y="0" name="Anchor-10"/>
  <anchor x="942" y="1886" name="Anchor-9"/>
  <anchor x="1159" y="0" name="Anchor-8"/>
  <anchor x="551" y="0" name="Anchor-7"/>
  <outline>
    <contour>
      <point x="942" y="1886" type="qcurve" smooth="yes"/>
      <point x="981" y="1886"/>
      <point x="1030" y="1832"/>
      <point x="1030" y="1792" type="qcurve" smooth="yes"/>
      <point x="1030" y="1736"/>
      <point x="946" y="1653"/>
      <point x="891" y="1653" type="qcurve" smooth="yes"/>
      <point x="852" y="1653"/>
      <point x="803" y="1707"/>
      <point x="803" y="1747" type="qcurve" smooth="yes"/>
      <point x="803" y="1803"/>
      <point x="887" y="1886"/>
    </contour>
    <contour>
      <point x="836" y="1753" type="qcurve" smooth="yes"/>
      <point x="836" y="1723"/>
      <point x="870" y="1686"/>
      <point x="899" y="1686" type="qcurve" smooth="yes"/>
      <point x="934" y="1686"/>
      <point x="999" y="1745"/>
      <point x="999" y="1786" type="qcurve" smooth="yes"/>
      <point x="999" y="1816"/>
      <point x="962" y="1853"/>
      <point x="934" y="1853" type="qcurve" smooth="yes"/>
      <point x="896" y="1853"/>
      <point x="836" y="1796"/>
    </contour>
    <contour>
      <point x="831" y="1454" type="line"/>
      <point x="868" y="1454" type="line"/>
      <point x="1159" y="0" type="line"/>
      <point x="1114" y="0" type="line"/>
      <point x="1010" y="520" type="line"/>
      <point x="291" y="520" type="line"/>
      <point x="-35" y="0" type="line"/>
      <point x="-80" y="0" type="line"/>
    </contour>
    <contour>
      <point x="1001" y="561" type="line"/>
      <point x="838" y="1395" type="line"/>
      <point x="315" y="561" type="line"/>
    </contour>
  </outline>
</glyph>
<glyph name="Egrave" format="2">
  <advance width="1204"/>
  <unicode hex="00C8"/>
  <anchor x="0" y="0" name="Anchor-11"/>
  <anchor x="0" y="0" name="Anchor-10"/>
  <anchor x="770" y="1886" name="Anchor-9"/>
  <anchor x="975" y="0" name="Anchor-8"/>
  <anchor x="489" y="0" name="Anchor-7"/>
  <outline>
    <contour>
      <point x="672" y="1886" type="line"/>
      <point x="737" y="1886" type="line"/>
      <point x="831" y="1737" type="line"/>
      <point x="795" y="1712" type="line"/>
    </contour>
    <contour>
      <point x="377" y="1454" type="line"/>
      <point x="1266" y="1454" type="line"/>
      <point x="1257" y="1413" type="line"/>
      <point x="410" y="1413" type="line"/>
      <point x="270" y="764" type="line"/>
      <point x="1014" y="764" type="line"/>
      <point x="1006" y="723" type="line"/>
      <point x="262" y="723" type="line"/>
      <point x="117" y="41" type="line"/>
      <point x="983" y="41" type="line"/>
      <point x="975" y="0" type="line"/>
      <point x="68" y="0" type="line"/>
    </contour>
  </outline>
</glyph>
<glyph name="Ecircumflex" format="2">
  <advance width="1204"/>
  <unicode hex="00CA"/>
  <anchor x="0" y="0" name="Anchor-11"/>
  <anchor x="0" y="0" name="Anchor-10"/>
  <anchor x="870" y="1827" name="Anchor-9"/>
  <anchor x="975" y="0" name="Anchor-8"/>
  <anchor x="489" y="0" name="Anchor-7"/>
  <outline>
    <contour>
      <point x="653" y="1675" type="line"/>
      <point x="866" y="1827" type="line"/>
      <point x="899" y="1827" type="line"/>
      <point x="1049" y="1675" type="line"/>
      <point x="1012" y="1651" type="line"/>
      <point x="872" y="1780" type="line"/>
      <point x="680" y="1651" type="line"/>
    </contour>
    <contour>
      <point x="377" y="1454" type="line"/>
      <point x="1266" y="1454" type="line"/>
      <point x="1257" y="1413" type="line"/>
      <point x="410" y="1413" type="line"/>
      <point x="270" y="764" type="line"/>
      <point x="1014" y="764" type="line"/>
      <point x="1006" y="723" type="line"/>
      <point x="262" y="723" type="line"/>
      <point x="117" y="41" type="line"/>
      <point x="983" y="41" type="line"/>
      <point x="975" y="0" type="line"/>
      <point x="68" y="0" type="line"/>
    </contour>
  </outline>
</glyph>
<glyph name="Igrave" format="2">
  <advance width="438"/>
  <unicode hex="00CC"/>
  <anchor x="0" y="0" name="Anchor-11"/>
  <anchor x="0" y="0" name="Anchor-10"/>
  <anchor x="367" y="1880" name="Anchor-9"/>
  <anchor x="109" y="0" name="Anchor-8"/>
  <anchor x="88" y="0" name="Anchor-7"/>
  <outline>
    <contour>
      <point x="268" y="1880" type="line"/>
      <point x="334" y="1880" type="line"/>
      <point x="428" y="1731" type="line"/>
      <point x="391" y="1706" type="line"/>
    </contour>
    <contour>
      <point x="377" y="1452" type="line"/>
      <point x="418" y="1452" type="line"/>
      <point x="109" y="0" type="line"/>
      <point x="68" y="0" type="line"/>
    </contour>
  </outline>
</glyph>
<glyph name="Iacute" format="2">
  <advance width="438"/>
  <unicode hex="00CD"/>
  <anchor x="0" y="0" name="Anchor-11"/>
  <anchor x="0" y="0" name="Anchor-10"/>
  <anchor x="395" y="1880" name="Anchor-9"/>
  <anchor x="109" y="0" name="Anchor-8"/>
  <anchor x="88" y="0" name="Anchor-7"/>
  <outline>
    <contour>
      <point x="440" y="1706" type="line"/>
      <point x="414" y="1731" type="line"/>
      <point x="569" y="1880" type="line"/>
      <point x="637" y="1880" type="line"/>
    </contour>
    <contour>
      <point x="377" y="1452" type="line"/>
      <point x="418" y="1452" type="line"/>
      <point x="109" y="0" type="line"/>
      <point x="68" y="0" type="line"/>
    </contour>
  </outline>
</glyph>
<glyph name="Icircumflex" format="2">
  <advance width="438"/>
  <unicode hex="00CE"/>
  <anchor x="0" y="0" name="Anchor-11"/>
  <anchor x="0" y="0" name="Anchor-10"/>
  <anchor x="467" y="1821" name="Anchor-9"/>
  <anchor x="109" y="0" name="Anchor-8"/>
  <anchor x="88" y="0" name="Anchor-7"/>
  <outline>
    <contour>
      <point x="250" y="1669" type="line"/>
      <point x="463" y="1821" type="line"/>
      <point x="496" y="1821" type="line"/>
      <point x="645" y="1669" type="line"/>
      <point x="608" y="1645" type="line"/>
      <point x="469" y="1774" type="line"/>
      <point x="276" y="1645" type="line"/>
    </contour>
    <contour>
      <point x="377" y="1452" type="line"/>
      <point x="418" y="1452" type="line"/>
      <point x="109" y="0" type="line"/>
      <point x="68" y="0" type="line"/>
    </contour>
  </outline>
</glyph>
<glyph name="Eth" format="2">
  <advance width="1415"/>
  <unicode hex="00D0"/>
  <outline>
    <contour>
      <point x="836" y="1454" type="line" smooth="yes"/>
      <point x="965" y="1454"/>
      <point x="1166" y="1369"/>
      <point x="1289" y="1217"/>
      <point x="1352" y="1019"/>
      <point x="1352" y="901" type="qcurve" smooth="yes"/>
      <point x="1352" y="646"/>
      <point x="1139" y="234"/>
      <point x="761" y="0"/>
      <point x="526" y="0" type="qcurve" smooth="yes"/>
      <point x="82" y="0" type="line"/>
      <point x="233" y="711" type="line"/>
      <point x="96" y="711" type="line"/>
      <point x="104" y="752" type="line"/>
      <point x="242" y="752" type="line"/>
      <point x="391" y="1454" type="line"/>
    </contour>
    <contour>
      <point x="535" y="41" type="line" smooth="yes"/>
      <point x="712" y="41"/>
      <point x="1008" y="181"/>
      <point x="1203" y="417"/>
      <point x="1311" y="723"/>
      <point x="1311" y="891" type="qcurve" smooth="yes"/>
      <point x="1311" y="1127"/>
      <point x="1060" y="1413"/>
      <point x="827" y="1413" type="qcurve" smooth="yes"/>
      <point x="424" y="1413" type="line"/>
      <point x="283" y="752" type="line"/>
      <point x="655" y="752" type="line"/>
      <point x="647" y="711" type="line"/>
      <point x="274" y="711" type="line"/>
      <point x="131" y="41" type="line"/>
    </contour>
  </outline>
</glyph>
<glyph name="Ntilde" format="2">
  <advance width="1521"/>
  <unicode hex="00D1"/>
  <anchor x="0" y="0" name="Anchor-11"/>
  <anchor x="0" y="0" name="Anchor-10"/>
  <anchor x="1053" y="1880" name="Anchor-9"/>
  <anchor x="0" y="0" name="Anchor-8"/>
  <anchor x="649" y="0" name="Anchor-7"/>
  <outline>
    <contour>
      <point x="909" y="1821" type="qcurve" smooth="yes"/>
      <point x="880" y="1821"/>
      <point x="832" y="1795"/>
      <point x="804" y="1755"/>
      <point x="791" y="1731"/>
      <point x="788" y="1722" type="qcurve"/>
      <point x="750" y="1722" type="line"/>
      <point x="751" y="1728"/>
      <point x="761" y="1754"/>
      <point x="788" y="1797"/>
      <point x="824" y="1833"/>
      <point x="886" y="1860"/>
      <point x="922" y="1860" type="qcurve" smooth="yes"/>
      <point x="972" y="1860"/>
      <point x="1099" y="1782"/>
      <point x="1149" y="1782" type="qcurve" smooth="yes"/>
      <point x="1179" y="1782"/>
      <point x="1228" y="1801"/>
      <point x="1256" y="1826"/>
      <point x="1276" y="1858"/>
      <point x="1283" y="1875"/>
      <point x="1284" y="1880" type="qcurve"/>
      <point x="1323" y="1880" type="line"/>
      <point x="1320" y="1868"/>
      <point x="1302" y="1832"/>
      <point x="1262" y="1779"/>
      <point x="1186" y="1743"/>
      <point x="1088" y="1743"/>
      <point x="1008" y="1782"/>
      <point x="941" y="1821"/>
    </contour>
    <contour>
      <point x="377" y="1454" type="line"/>
      <point x="408" y="1454" type="line"/>
      <point x="1165" y="59" type="line"/>
      <point x="1460" y="1452" type="line"/>
      <point x="1501" y="1452" type="line"/>
      <point x="1192" y="0" type="line"/>
      <point x="1147" y="0" type="line"/>
      <point x="401" y="1374" type="line"/>
      <point x="109" y="0" type="line"/>
      <point x="68" y="0" type="line"/>
    </contour>
  </outline>
</glyph>
<glyph name="Otilde" format="2">
  <advance width="1486"/>
  <unicode hex="00D5"/>
  <anchor x="1159" y="1376" name="Anchor-11"/>
  <anchor x="743" y="727" name="Anchor-10"/>
  <anchor x="1034" y="1880" name="Anchor-9"/>
  <anchor x="674" y="0" name="Anchor-8"/>
  <anchor x="614" y="0" name="Anchor-7"/>
  <outline>
    <contour>
      <point x="891" y="1821" type="qcurve" smooth="yes"/>
      <point x="862" y="1821"/>
      <point x="814" y="1795"/>
      <point x="786" y="1755"/>
      <point x="773" y="1731"/>
      <point x="770" y="1722" type="qcurve"/>
      <point x="731" y="1722" type="line"/>
      <point x="732" y="1728"/>
      <point x="742" y="1754"/>
      <point x="769" y="1797"/>
      <point x="805" y="1833"/>
      <point x="867" y="1860"/>
      <point x="903" y="1860" type="qcurve" smooth="yes"/>
      <point x="953" y="1860"/>
      <point x="1080" y="1782"/>
      <point x="1130" y="1782" type="qcurve" smooth="yes"/>
      <point x="1160" y="1782"/>
      <point x="1209" y="1801"/>
      <point x="1237" y="1826"/>
      <point x="1258" y="1858"/>
      <point x="1265" y="1875"/>
      <point x="1266" y="1880" type="qcurve"/>
      <point x="1305" y="1880" type="line"/>
      <point x="1303" y="1872"/>
      <point x="1292" y="1846"/>
      <point x="1263" y="1803"/>
      <point x="1224" y="1769"/>
      <point x="1158" y="1743"/>
      <point x="1118" y="1743" type="qcurve" smooth="yes"/>
      <point x="1079" y="1743"/>
      <point x="1011" y="1767"/>
      <point x="971" y="1797"/>
      <point x="917" y="1821"/>
    </contour>
    <contour>
      <point x="106" y="582" type="qcurve" smooth="yes"/>
      <point x="106" y="756"/>
      <point x="236" y="1082"/>
      <point x="452" y="1320"/>
      <point x="748" y="1464"/>
      <point x="907" y="1464" type="qcurve" smooth="yes"/>
      <point x="1014" y="1464"/>
      <point x="1189" y="1398"/>
      <point x="1308" y="1285"/>
      <point x="1390" y="1132"/>
      <point x="1427" y="961"/>
      <point x="1427" y="868" type="qcurve" smooth="yes"/>
      <point x="1427" y="695"/>
      <point x="1297" y="371"/>
      <point x="1081" y="133"/>
      <point x="784" y="-10"/>
      <point x="625" y="-10" type="qcurve" smooth="yes"/>
      <point x="493" y="-10"/>
      <point x="289" y="88"/>
      <point x="167" y="256"/>
      <point x="106" y="464"/>
    </contour>
    <contour>
      <point x="1386" y="868" type="qcurve" smooth="yes"/>
      <point x="1386" y="957"/>
      <point x="1351" y="1118"/>
      <point x="1276" y="1260"/>
      <point x="1165" y="1363"/>
      <point x="1002" y="1423"/>
      <point x="903" y="1423" type="qcurve" smooth="yes"/>
      <point x="779" y="1423"/>
      <point x="545" y="1331"/>
      <point x="361" y="1170"/>
      <point x="222" y="960"/>
      <point x="147" y="711"/>
      <point x="147" y="584" type="qcurve" smooth="yes"/>
      <point x="147" y="472"/>
      <point x="204" y="277"/>
      <point x="318" y="121"/>
      <point x="508" y="31"/>
      <point x="631" y="31" type="qcurve" smooth="yes"/>
      <point x="787" y="31"/>
      <point x="1071" y="174"/>
      <point x="1269" y="407"/>
      <point x="1386" y="711"/>
    </contour>
  </outline>
</glyph>
<glyph name="Odieresis" format="2">
  <advance width="1486"/>
  <unicode hex="00D6"/>
  <anchor x="1159" y="1376" name="Anchor-11"/>
  <anchor x="743" y="727" name="Anchor-10"/>
  <anchor x="1034" y="1880" name="Anchor-9"/>
  <anchor x="674" y="0" name="Anchor-8"/>
  <anchor x="614" y="0" name="Anchor-7"/>
  <outline>
    <contour>
      <point x="866" y="1722" type="line"/>
      <point x="899" y="1880" type="line"/>
      <point x="940" y="1880" type="line"/>
      <point x="907" y="1722" type="line"/>
    </contour>
    <contour>
      <point x="1094" y="1722" type="line"/>
      <point x="1126" y="1880" type="line"/>
      <point x="1167" y="1880" type="line"/>
      <point x="1135" y="1722" type="line"/>
    </contour>
    <contour>
      <point x="106" y="582" type="qcurve" smooth="yes"/>
      <point x="106" y="756"/>
      <point x="236" y="1082"/>
      <point x="452" y="1320"/>
      <point x="748" y="1464"/>
      <point x="907" y="1464" type="qcurve" smooth="yes"/>
      <point x="1014" y="1464"/>
      <point x="1189" y="1398"/>
      <point x="1308" y="1285"/>
      <point x="1390" y="1132"/>
      <point x="1427" y="961"/>
      <point x="1427" y="868" type="qcurve" smooth="yes"/>
      <point x="1427" y="695"/>
      <point x="1297" y="371"/>
      <point x="1081" y="133"/>
      <point x="784" y="-10"/>
      <point x="625" y="-10" type="qcurve" smooth="yes"/>
      <point x="493" y="-10"/>
      <point x="289" y="88"/>
      <point x="167" y="256"/>
      <point x="106" y="464"/>
    </contour>
    <contour>
      <point x="1386" y="868" type="qcurve" smooth="yes"/>
      <point x="1386" y="957"/>
      <point x="1351" y="1118"/>
      <point x="1276" y="1260"/>
      <point x="1165" y="1363"/>
      <point x="1002" y="1423"/>
      <point x="903" y="1423" type="qcurve" smooth="yes"/>
      <point x="779" y="1423"/>
      <point x="545" y="1331"/>
      <point x="361" y="1170"/>
      <point x="222" y="960"/>
      <point x="147" y="711"/>
      <point x="147" y="584" type="qcurve" smooth="yes"/>
      <point x="147" y="472"/>
      <point x="204" y="277"/>
      <point x="318" y="121"/>
      <point x="508" y="31"/>
      <point x="631" y="31" type="qcurve" smooth="yes"/>
      <point x="787" y="31"/>
      <point x="1071" y="174"/>
      <point x="1269" y="407"/>
      <point x="1386" y="711"/>
    </contour>
  </outline>
</glyph>
<glyph name="multiply" format="2">
  <advance width="942"/>
  <unicode hex="00D7"/>
  <outline>
    <contour>
      <point x="762" y="276" type="line"/>
      <point x="731" y="248" type="line"/>
      <point x="455" y="524" type="line"/>
      <point x="178" y="248" type="line"/>
      <point x="150" y="279" type="line"/>
      <point x="424" y="553" type="line"/>
      <point x="147" y="831" type="line"/>
      <point x="178" y="860" type="line"/>
      <point x="455" y="584" type="line"/>
      <point x="733" y="862" type="line"/>
      <point x="762" y="831" type="line"/>
      <point x="483" y="553" type="line"/>
    </contour>
  </outline>
</glyph>
<glyph name="Oslash" format="2">
  <advance width="1486"/>
  <unicode hex="00D8"/>
  <anchor x="1159" y="1376" name="Anchor-11"/>
  <anchor x="743" y="727" name="Anchor-10"/>
  <anchor x="942" y="1448" name="Anchor-9"/>
  <anchor x="674" y="0" name="Anchor-8"/>
  <anchor x="614" y="0" name="Anchor-7"/>
  <outline>
    <contour>
      <point x="1278" y="1313" type="line"/>
      <point x="1352" y="1231"/>
      <point x="1427" y="998"/>
      <point x="1427" y="868" type="qcurve" smooth="yes"/>
      <point x="1427" y="695"/>
      <point x="1297" y="371"/>
      <point x="1081" y="133"/>
      <point x="784" y="-10"/>
      <point x="625" y="-10" type="qcurve" smooth="yes"/>
      <point x="419" y="-10"/>
      <point x="287" y="109" type="qcurve"/>
      <point x="197" y="0" type="line"/>
      <point x="145" y="0" type="line"/>
      <point x="258" y="137" type="line"/>
      <point x="106" y="302"/>
      <point x="106" y="582" type="qcurve" smooth="yes"/>
      <point x="106" y="756"/>
      <point x="236" y="1082"/>
      <point x="452" y="1320"/>
      <point x="748" y="1464"/>
      <point x="907" y="1464" type="qcurve" smooth="yes"/>
      <point x="1116" y="1464"/>
      <point x="1249" y="1341" type="qcurve"/>
      <point x="1341" y="1454" type="line"/>
      <point x="1393" y="1454" type="line"/>
    </contour>
    <contour>
      <point x="147" y="584" type="qcurve" smooth="yes"/>
      <point x="147" y="323"/>
      <point x="285" y="170" type="qcurve"/>
      <point x="1223" y="1309" type="line"/>
      <point x="1103" y="1423"/>
      <point x="903" y="1423" type="qcurve" smooth="yes"/>
      <point x="779" y="1423"/>
      <point x="545" y="1331"/>
      <point x="361" y="1170"/>
      <point x="222" y="960"/>
      <point x="147" y="711"/>
    </contour>
    <contour>
      <point x="631" y="31" type="qcurve" smooth="yes"/>
      <point x="787" y="31"/>
      <point x="1071" y="174"/>
      <point x="1269" y="407"/>
      <point x="1386" y="711"/>
      <point x="1386" y="868" type="qcurve" smooth="yes"/>
      <point x="1386" y="1129"/>
      <point x="1251" y="1282" type="qcurve"/>
      <point x="313" y="141" type="line"/>
      <point x="436" y="31"/>
    </contour>
  </outline>
</glyph>
<glyph name="Thorn" format="2">
  <advance width="1175"/>
  <unicode hex="00DE"/>
  <outline>
    <contour>
      <point x="377" y="1454" type="line"/>
      <point x="418" y="1454" type="line"/>
      <point x="352" y="1147" type="line"/>
      <point x="836" y="1147" type="line" smooth="yes"/>
      <point x="974" y="1147"/>
      <point x="1141" y="930"/>
      <point x="1141" y="784" type="qcurve" smooth="yes"/>
      <point x="1141" y="659"/>
      <point x="1011" y="419"/>
      <point x="787" y="264"/>
      <point x="662" y="264" type="qcurve" smooth="yes"/>
      <point x="164" y="264" type="line"/>
      <point x="109" y="0" type="line"/>
      <point x="68" y="0" type="line"/>
    </contour>
    <contour>
      <point x="670" y="305" type="line" smooth="yes"/>
      <point x="786" y="305"/>
      <point x="988" y="451"/>
      <point x="1100" y="669"/>
      <point x="1100" y="778" type="qcurve" smooth="yes"/>
      <point x="1100" y="913"/>
      <point x="946" y="1106"/>
      <point x="825" y="1106" type="qcurve" smooth="yes"/>
      <point x="344" y="1106" type="line"/>
      <point x="174" y="305" type="line"/>
    </contour>
  </outline>
</glyph>
<glyph name="germandbls" format="2">
  <advance width="1071"/>
  <unicode hex="00DF"/>
  <outline>
    <contour>
      <point x="326" y="27" type="line"/>
      <point x="597" y="31"/>
      <point x="903" y="279"/>
      <point x="903" y="492" type="qcurve" smooth="yes"/>
      <point x="903" y="634"/>
      <point x="729" y="805"/>
      <point x="578" y="805" type="qcurve" smooth="yes"/>
      <point x="545" y="805" type="line"/>
      <point x="553" y="846" type="line"/>
      <point x="584" y="846" type="line" smooth="yes"/>
      <point x="731" y="846"/>
      <point x="950" y="1043"/>
      <point x="950" y="1180" type="qcurve" smooth="yes"/>
      <point x="950" y="1285"/>
      <point x="808" y="1421"/>
      <point x="694" y="1421" type="qcurve" smooth="yes"/>
      <point x="550" y="1421"/>
      <point x="334" y="1214"/>
      <point x="297" y="1042" type="qcurve" smooth="yes"/>
      <point x="76" y="0" type="line"/>
      <point x="35" y="0" type="line"/>
      <point x="256" y="1042" type="line" smooth="yes"/>
      <point x="296" y="1230"/>
      <point x="545" y="1462"/>
      <point x="705" y="1462" type="qcurve" smooth="yes"/>
      <point x="834" y="1462"/>
      <point x="993" y="1311"/>
      <point x="993" y="1194" type="qcurve" smooth="yes"/>
      <point x="993" y="1069"/>
      <point x="806" y="851"/>
      <point x="686" y="827" type="qcurve"/>
      <point x="812" y="798"/>
      <point x="946" y="628"/>
      <point x="946" y="502" type="qcurve" smooth="yes"/>
      <point x="946" y="271"/>
      <point x="616" y="-2"/>
      <point x="317" y="-12" type="qcurve"/>
    </contour>
  </outline>
</glyph>
<glyph name="ae" format="2">
  <advance width="1808"/>
  <unicode hex="00E6"/>
  <anchor x="0" y="0" name="Anchor-11"/>
  <anchor x="0" y="0" name="Anchor-10"/>
  <anchor x="926" y="1063" name="Anchor-9"/>
  <anchor x="0" y="0" name="Anchor-8"/>
  <anchor x="0" y="0" name="Anchor-7"/>
  <outline>
    <contour>
      <point x="2" y="246" type="qcurve" smooth="yes"/>
      <point x="2" y="406"/>
      <point x="285" y="608"/>
      <point x="494" y="608" type="qcurve" smooth="yes"/>
      <point x="633" y="608"/>
      <point x="764" y="567" type="qcurve"/>
      <point x="790" y="669"/>
      <point x="852" y="770" type="qcurve"/>
      <point x="852" y="894"/>
      <point x="715" y="1038"/>
      <point x="596" y="1038" type="qcurve" smooth="yes"/>
      <point x="440" y="1038"/>
      <point x="236" y="907" type="qcurve"/>
      <point x="219" y="940" type="line"/>
      <point x="444" y="1079"/>
      <point x="604" y="1079" type="qcurve" smooth="yes"/>
      <point x="725" y="1079"/>
      <point x="881" y="947"/>
      <point x="891" y="825" type="qcurve"/>
      <point x="981" y="942"/>
      <point x="1224" y="1079"/>
      <point x="1350" y="1079" type="qcurve" smooth="yes"/>
      <point x="1517" y="1079"/>
      <point x="1741" y="847"/>
      <point x="1741" y="672" type="qcurve" smooth="yes"/>
      <point x="1741" y="566"/>
      <point x="1714" y="508" type="qcurve"/>
      <point x="793" y="508" type="line"/>
      <point x="786" y="454"/>
      <point x="786" y="422" type="qcurve" smooth="yes"/>
      <point x="786" y="247"/>
      <point x="980" y="20"/>
      <point x="1137" y="20" type="qcurve" smooth="yes"/>
      <point x="1254" y="20"/>
      <point x="1481" y="145"/>
      <point x="1544" y="244" type="qcurve"/>
      <point x="1581" y="233" type="line"/>
      <point x="1517" y="124"/>
      <point x="1257" y="-20"/>
      <point x="1126" y="-20" type="qcurve" smooth="yes"/>
      <point x="1002" y="-20"/>
      <point x="818" y="113"/>
      <point x="774" y="227" type="qcurve"/>
      <point x="732" y="164"/>
      <point x="603" y="64"/>
      <point x="465" y="8"/>
      <point x="336" y="-20"/>
      <point x="281" y="-20" type="qcurve" smooth="yes"/>
      <point x="148" y="-20"/>
      <point x="2" y="133"/>
    </contour>
    <contour>
      <point x="1681" y="549" type="line"/>
      <point x="1696" y="608"/>
      <point x="1696" y="666" type="qcurve" smooth="yes"/>
      <point x="1696" y="766"/>
      <point x="1620" y="931"/>
      <point x="1456" y="1038"/>
      <point x="1343" y="1038" type="qcurve" smooth="yes"/>
      <point x="1163" y="1038"/>
      <point x="857" y="760"/>
      <point x="801" y="549" type="qcurve"/>
    </contour>
    <contour>
      <point x="758" y="281" type="qcurve"/>
      <point x="741" y="347"/>
      <point x="741" y="408" type="qcurve" smooth="yes"/>
      <point x="741" y="457"/>
      <point x="754" y="524" type="qcurve"/>
      <point x="632" y="567"/>
      <point x="489" y="567" type="qcurve" smooth="yes"/>
      <point x="292" y="567"/>
      <point x="43" y="395"/>
      <point x="43" y="254" type="qcurve" smooth="yes"/>
      <point x="43" y="156"/>
      <point x="169" y="20"/>
      <point x="293" y="20" type="qcurve" smooth="yes"/>
      <point x="380" y="20"/>
      <point x="575" y="85"/>
      <point x="734" y="208"/>
    </contour>
  </outline>
</glyph>
<glyph name="egrave" format="2">
  <advance width="1067"/>
  <unicode hex="00E8"/>
  <anchor x="0" y="0" name="Anchor-11"/>
  <anchor x="0" y="0" name="Anchor-10"/>
  <anchor x="643" y="1495" name="Anchor-9"/>
  <anchor x="498" y="0" name="Anchor-8"/>
  <anchor x="451" y="0" name="Anchor-7"/>
  <outline>
    <contour>
      <point x="705" y="1346" type="line"/>
      <point x="668" y="1321" type="line"/>
      <point x="545" y="1495" type="line"/>
      <point x="610" y="1495" type="line"/>
    </contour>
    <contour>
      <point x="459" y="508" type="qcurve" smooth="yes"/>
      <point x="319" y="508"/>
      <point x="113" y="520" type="qcurve"/>
      <point x="106" y="469"/>
      <point x="106" y="432" type="qcurve" smooth="yes"/>
      <point x="106" y="318"/>
      <point x="185" y="134"/>
      <point x="351" y="20"/>
      <point x="465" y="20" type="qcurve" smooth="yes"/>
      <point x="581" y="20"/>
      <point x="813" y="154"/>
      <point x="872" y="262" type="qcurve"/>
      <point x="911" y="250" type="line"/>
      <point x="842" y="128"/>
      <point x="590" y="-20"/>
      <point x="451" y="-20" type="qcurve" smooth="yes"/>
      <point x="333" y="-20"/>
      <point x="154" y="103"/>
      <point x="63" y="306"/>
      <point x="63" y="430" type="qcurve" smooth="yes"/>
      <point x="63" y="551"/>
      <point x="159" y="785"/>
      <point x="321" y="967"/>
      <point x="554" y="1079"/>
      <point x="682" y="1079" type="qcurve" smooth="yes"/>
      <point x="755" y="1079"/>
      <point x="895" y="1018"/>
      <point x="995" y="886"/>
      <point x="995" y="799" type="qcurve" smooth="yes"/>
      <point x="995" y="508"/>
    </contour>
    <contour>
      <point x="672" y="1038" type="qcurve" smooth="yes"/>
      <point x="542" y="1038"/>
      <point x="307" y="906"/>
      <point x="150" y="689"/>
      <point x="121" y="561" type="qcurve"/>
      <point x="326" y="549"/>
      <point x="465" y="549" type="qcurve" smooth="yes"/>
      <point x="952" y="549"/>
      <point x="952" y="801" type="qcurve" smooth="yes"/>
      <point x="952" y="860"/>
      <point x="899" y="955"/>
      <point x="815" y="1010"/>
      <point x="720" y="1038"/>
    </contour>
  </outline>
</glyph>
<glyph name="igrave" format="2">
  <advance width="372"/>
  <unicode hex="00EC"/>
  <anchor x="0" y="0" name="Anchor-11"/>
  <anchor x="0" y="0" name="Anchor-10"/>
  <anchor x="475" y="1386" name="Anchor-9"/>
  <anchor x="223" y="20" name="Anchor-8"/>
  <anchor x="57" y="0" name="Anchor-7"/>
  <outline>
    <contour>
      <point x="377" y="1386" type="line"/>
      <point x="442" y="1386" type="line"/>
      <point x="537" y="1237" type="line"/>
      <point x="500" y="1212" type="line"/>
    </contour>
    <contour>
      <point x="260" y="1063" type="line"/>
      <point x="301" y="1063" type="line"/>
      <point x="76" y="0" type="line"/>
      <point x="35" y="0" type="line"/>
    </contour>
  </outline>
</glyph>
<glyph name="iacute" format="2">
  <advance width="372"/>
  <unicode hex="00ED"/>
  <anchor x="0" y="0" name="Anchor-11"/>
  <anchor x="0" y="0" name="Anchor-10"/>
  <anchor x="283" y="1495" name="Anchor-9"/>
  <anchor x="223" y="20" name="Anchor-8"/>
  <anchor x="57" y="0" name="Anchor-7"/>
  <outline>
    <contour>
      <point x="328" y="1321" type="line"/>
      <point x="301" y="1346" type="line"/>
      <point x="457" y="1495" type="line"/>
      <point x="524" y="1495" type="line"/>
    </contour>
    <contour>
      <point x="260" y="1063" type="line"/>
      <point x="301" y="1063" type="line"/>
      <point x="76" y="0" type="line"/>
      <point x="35" y="0" type="line"/>
    </contour>
  </outline>
</glyph>
<glyph name="icircumflex" format="2">
  <advance width="372"/>
  <unicode hex="00EE"/>
  <anchor x="0" y="0" name="Anchor-11"/>
  <anchor x="0" y="0" name="Anchor-10"/>
  <anchor x="354" y="1436" name="Anchor-9"/>
  <anchor x="223" y="20" name="Anchor-8"/>
  <anchor x="57" y="0" name="Anchor-7"/>
  <outline>
    <contour>
      <point x="137" y="1284" type="line"/>
      <point x="350" y="1436" type="line"/>
      <point x="383" y="1436" type="line"/>
      <point x="532" y="1284" type="line"/>
      <point x="496" y="1260" type="line"/>
      <point x="356" y="1389" type="line"/>
      <point x="164" y="1260" type="line"/>
    </contour>
    <contour>
      <point x="260" y="1063" type="line"/>
      <point x="301" y="1063" type="line"/>
      <point x="76" y="0" type="line"/>
      <point x="35" y="0" type="line"/>
    </contour>
  </outline>
</glyph>
<glyph name="idieresis" format="2">
  <advance width="372"/>
  <unicode hex="00EF"/>
  <anchor x="0" y="0" name="Anchor-11"/>
  <anchor x="0" y="0" name="Anchor-10"/>
  <anchor x="375" y="1495" name="Anchor-9"/>
  <anchor x="223" y="20" name="Anchor-8"/>
  <anchor x="57" y="0" name="Anchor-7"/>
  <outline>
    <contour>
      <point x="207" y="1337" type="line"/>
      <point x="240" y="1495" type="line"/>
      <point x="281" y="1495" type="line"/>
      <point x="248" y="1337" type="line"/>
    </contour>
    <contour>
      <point x="434" y="1337" type="line"/>
      <point x="467" y="1495" type="line"/>
      <point x="508" y="1495" type="line"/>
      <point x="475" y="1337" type="line"/>
    </contour>
    <contour>
      <point x="260" y="1063" type="line"/>
      <point x="301" y="1063" type="line"/>
      <point x="76" y="0" type="line"/>
      <point x="35" y="0" type="line"/>
    </contour>
  </outline>
</glyph>
<glyph name="eth" format="2">
  <advance width="1163"/>
  <unicode hex="00F0"/>
  <outline>
    <contour>
      <point x="1094" y="1432" type="line"/>
      <point x="883" y="1303" type="line"/>
      <point x="1073" y="1069"/>
      <point x="1073" y="756" type="qcurve" smooth="yes"/>
      <point x="1073" y="582"/>
      <point x="960" y="284"/>
      <point x="779" y="89"/>
      <point x="555" y="-20"/>
      <point x="442" y="-20" type="qcurve" smooth="yes"/>
      <point x="272" y="-20"/>
      <point x="55" y="217"/>
      <point x="55" y="389" type="qcurve" smooth="yes"/>
      <point x="55" y="502"/>
      <point x="160" y="718"/>
      <point x="327" y="876"/>
      <point x="544" y="973"/>
      <point x="653" y="973" type="qcurve" smooth="yes"/>
      <point x="802" y="973"/>
      <point x="1006" y="808"/>
      <point x="1030" y="676" type="qcurve"/>
      <point x="1036" y="738"/>
      <point x="1036" y="799" type="qcurve" smooth="yes"/>
      <point x="1036" y="1072"/>
      <point x="852" y="1286" type="qcurve"/>
      <point x="578" y="1120" type="line"/>
      <point x="563" y="1149" type="line"/>
      <point x="831" y="1311" type="line"/>
      <point x="747" y="1404"/>
      <point x="616" y="1495" type="qcurve"/>
      <point x="676" y="1495" type="line"/>
      <point x="779" y="1421"/>
      <point x="860" y="1327" type="qcurve"/>
      <point x="1079" y="1460" type="line"/>
    </contour>
    <contour>
      <point x="449" y="20" type="qcurve" smooth="yes"/>
      <point x="583" y="20"/>
      <point x="841" y="178"/>
      <point x="1004" y="436"/>
      <point x="1004" y="573" type="qcurve" smooth="yes"/>
      <point x="1004" y="724"/>
      <point x="800" y="932"/>
      <point x="645" y="932" type="qcurve" smooth="yes"/>
      <point x="512" y="932"/>
      <point x="257" y="783"/>
      <point x="96" y="531"/>
      <point x="96" y="393" type="qcurve" smooth="yes"/>
      <point x="96" y="235"/>
      <point x="295" y="20"/>
    </contour>
  </outline>
</glyph>
<glyph name="ntilde" format="2">
  <advance width="1105"/>
  <unicode hex="00F1"/>
  <anchor x="0" y="0" name="Anchor-11"/>
  <anchor x="0" y="0" name="Anchor-10"/>
  <anchor x="764" y="1495" name="Anchor-9"/>
  <anchor x="0" y="0" name="Anchor-8"/>
  <anchor x="444" y="0" name="Anchor-7"/>
  <outline>
    <contour>
      <point x="621" y="1436" type="qcurve" smooth="yes"/>
      <point x="592" y="1436"/>
      <point x="544" y="1410"/>
      <point x="516" y="1370"/>
      <point x="503" y="1346"/>
      <point x="500" y="1337" type="qcurve"/>
      <point x="461" y="1337" type="line"/>
      <point x="462" y="1343"/>
      <point x="472" y="1369"/>
      <point x="499" y="1412"/>
      <point x="535" y="1448"/>
      <point x="597" y="1475"/>
      <point x="633" y="1475" type="qcurve" smooth="yes"/>
      <point x="683" y="1475"/>
      <point x="810" y="1397"/>
      <point x="860" y="1397" type="qcurve" smooth="yes"/>
      <point x="890" y="1397"/>
      <point x="939" y="1416"/>
      <point x="967" y="1441"/>
      <point x="987" y="1473"/>
      <point x="994" y="1490"/>
      <point x="995" y="1495" type="qcurve"/>
      <point x="1034" y="1495" type="line"/>
      <point x="1031" y="1483"/>
      <point x="1013" y="1447"/>
      <point x="973" y="1394"/>
      <point x="897" y="1358"/>
      <point x="848" y="1358" type="qcurve" smooth="yes"/>
      <point x="809" y="1358"/>
      <point x="741" y="1382"/>
      <point x="701" y="1412"/>
      <point x="647" y="1436"/>
    </contour>
    <contour>
      <point x="260" y="1063" type="line"/>
      <point x="301" y="1063" type="line"/>
      <point x="244" y="788" type="line"/>
      <point x="333" y="917"/>
      <point x="615" y="1079"/>
      <point x="750" y="1079" type="qcurve" smooth="yes"/>
      <point x="864" y="1079"/>
      <point x="975" y="953"/>
      <point x="975" y="821" type="qcurve" smooth="yes"/>
      <point x="975" y="734"/>
      <point x="946" y="592" type="qcurve" smooth="yes"/>
      <point x="821" y="0" type="line"/>
      <point x="780" y="0" type="line"/>
      <point x="905" y="592" type="line" smooth="yes"/>
      <point x="932" y="721"/>
      <point x="932" y="811" type="qcurve" smooth="yes"/>
      <point x="932" y="927"/>
      <point x="838" y="1038"/>
      <point x="741" y="1038" type="qcurve" smooth="yes"/>
      <point x="595" y="1038"/>
      <point x="294" y="828"/>
      <point x="219" y="672" type="qcurve"/>
      <point x="76" y="0" type="line"/>
      <point x="35" y="0" type="line"/>
    </contour>
  </outline>
</glyph>
<glyph name="ograve" format="2">
  <advance width="1148"/>
  <unicode hex="00F2"/>
  <anchor x="911" y="985" name="Anchor-11"/>
  <anchor x="575" y="532" name="Anchor-10"/>
  <anchor x="639" y="1495" name="Anchor-9"/>
  <anchor x="516" y="0" name="Anchor-8"/>
  <anchor x="442" y="0" name="Anchor-7"/>
  <outline>
    <contour>
      <point x="541" y="1495" type="line"/>
      <point x="606" y="1495" type="line"/>
      <point x="700" y="1346" type="line"/>
      <point x="664" y="1321" type="line"/>
    </contour>
    <contour>
      <point x="61" y="420" type="qcurve" smooth="yes"/>
      <point x="61" y="555"/>
      <point x="164" y="802"/>
      <point x="332" y="976"/>
      <point x="552" y="1079"/>
      <point x="666" y="1079" type="qcurve" smooth="yes"/>
      <point x="790" y="1079"/>
      <point x="967" y="957"/>
      <point x="1051" y="760"/>
      <point x="1051" y="635" type="qcurve" smooth="yes"/>
      <point x="1051" y="502"/>
      <point x="950" y="257"/>
      <point x="785" y="83"/>
      <point x="565" y="-20"/>
      <point x="449" y="-20" type="qcurve" smooth="yes"/>
      <point x="323" y="-20"/>
      <point x="144" y="101"/>
      <point x="61" y="296"/>
    </contour>
    <contour>
      <point x="1010" y="627" type="qcurve" smooth="yes"/>
      <point x="1010" y="804"/>
      <point x="826" y="1038"/>
      <point x="657" y="1038" type="qcurve" smooth="yes"/>
      <point x="552" y="1038"/>
      <point x="350" y="942"/>
      <point x="196" y="780"/>
      <point x="102" y="551"/>
      <point x="102" y="426" type="qcurve" smooth="yes"/>
      <point x="102" y="249"/>
      <point x="285" y="20"/>
      <point x="455" y="20" type="qcurve" smooth="yes"/>
      <point x="561" y="20"/>
      <point x="763" y="115"/>
      <point x="916" y="276"/>
      <point x="1010" y="503"/>
    </contour>
  </outline>
</glyph>
<glyph name="otilde" format="2">
  <advance width="1148"/>
  <unicode hex="00F5"/>
  <anchor x="911" y="985" name="Anchor-11"/>
  <anchor x="575" y="532" name="Anchor-10"/>
  <anchor x="760" y="1495" name="Anchor-9"/>
  <anchor x="516" y="0" name="Anchor-8"/>
  <anchor x="442" y="0" name="Anchor-7"/>
  <outline>
    <contour>
      <point x="616" y="1436" type="qcurve" smooth="yes"/>
      <point x="587" y="1436"/>
      <point x="539" y="1410"/>
      <point x="511" y="1370"/>
      <point x="499" y="1347"/>
      <point x="496" y="1337" type="qcurve"/>
      <point x="457" y="1337" type="line"/>
      <point x="458" y="1343"/>
      <point x="468" y="1369"/>
      <point x="495" y="1412"/>
      <point x="531" y="1448"/>
      <point x="593" y="1475"/>
      <point x="629" y="1475" type="qcurve" smooth="yes"/>
      <point x="679" y="1475"/>
      <point x="806" y="1397"/>
      <point x="856" y="1397" type="qcurve" smooth="yes"/>
      <point x="886" y="1397"/>
      <point x="935" y="1416"/>
      <point x="963" y="1441"/>
      <point x="983" y="1473"/>
      <point x="990" y="1490"/>
      <point x="991" y="1495" type="qcurve"/>
      <point x="1030" y="1495" type="line"/>
      <point x="1027" y="1483"/>
      <point x="1009" y="1447"/>
      <point x="969" y="1394"/>
      <point x="893" y="1358"/>
      <point x="795" y="1358"/>
      <point x="715" y="1397"/>
      <point x="648" y="1436"/>
    </contour>
    <contour>
      <point x="61" y="420" type="qcurve" smooth="yes"/>
      <point x="61" y="555"/>
      <point x="164" y="802"/>
      <point x="332" y="976"/>
      <point x="552" y="1079"/>
      <point x="666" y="1079" type="qcurve" smooth="yes"/>
      <point x="790" y="1079"/>
      <point x="967" y="957"/>
      <point x="1051" y="760"/>
      <point x="1051" y="635" type="qcurve" smooth="yes"/>
      <point x="1051" y="502"/>
      <point x="950" y="257"/>
      <point x="785" y="83"/>
      <point x="565" y="-20"/>
      <point x="449" y="-20" type="qcurve" smooth="yes"/>
      <point x="323" y="-20"/>
      <point x="144" y="101"/>
      <point x="61" y="296"/>
    </contour>
    <contour>
      <point x="1010" y="627" type="qcurve" smooth="yes"/>
      <point x="1010" y="804"/>
      <point x="826" y="1038"/>
      <point x="657" y="1038" type="qcurve" smooth="yes"/>
      <point x="552" y="1038"/>
      <point x="350" y="942"/>
      <point x="196" y="780"/>
      <point x="102" y="551"/>
      <point x="102" y="426" type="qcurve" smooth="yes"/>
      <point x="102" y="249"/>
      <point x="285" y="20"/>
      <point x="455" y="20" type="qcurve" smooth="yes"/>
      <point x="561" y="20"/>
      <point x="763" y="115"/>
      <point x="916" y="276"/>
      <point x="1010" y="503"/>
    </contour>
  </outline>
</glyph>
<glyph name="divide" format="2">
  <advance width="1122"/>
  <unicode hex="00F7"/>
  <outline>
    <contour>
      <point x="526" y="788" type="line"/>
      <point x="526" y="920" type="line"/>
      <point x="567" y="920" type="line"/>
      <point x="567" y="788" type="line"/>
    </contour>
    <contour>
      <point x="135" y="535" type="line"/>
      <point x="135" y="575" type="line"/>
      <point x="961" y="575" type="line"/>
      <point x="961" y="535" type="line"/>
    </contour>
    <contour>
      <point x="526" y="188" type="line"/>
      <point x="526" y="319" type="line"/>
      <point x="567" y="319" type="line"/>
      <point x="567" y="188" type="line"/>
    </contour>
  </outline>
</glyph>
<glyph name="oslash" format="2">
  <advance width="1148"/>
  <unicode hex="00F8"/>
  <outline>
    <contour>
      <point x="930" y="967" type="line"/>
      <point x="1051" y="833"/>
      <point x="1051" y="631" type="qcurve" smooth="yes"/>
      <point x="1051" y="507"/>
      <point x="945" y="266"/>
      <point x="774" y="89"/>
      <point x="552" y="-20"/>
      <point x="440" y="-20" type="qcurve" smooth="yes"/>
      <point x="307" y="-20"/>
      <point x="211" y="63" type="qcurve"/>
      <point x="162" y="0" type="line"/>
      <point x="113" y="0" type="line"/>
      <point x="182" y="90" type="line"/>
      <point x="61" y="221"/>
      <point x="61" y="424" type="qcurve" smooth="yes"/>
      <point x="61" y="550"/>
      <point x="169" y="793"/>
      <point x="341" y="970"/>
      <point x="564" y="1079"/>
      <point x="674" y="1079" type="qcurve" smooth="yes"/>
      <point x="806" y="1079"/>
      <point x="901" y="993" type="qcurve"/>
      <point x="956" y="1063" type="line"/>
      <point x="1008" y="1063" type="line"/>
    </contour>
    <contour>
      <point x="666" y="1038" type="qcurve" smooth="yes"/>
      <point x="565" y="1038"/>
      <point x="360" y="936"/>
      <point x="202" y="770"/>
      <point x="102" y="544"/>
      <point x="102" y="428" type="qcurve" smooth="yes"/>
      <point x="102" y="245"/>
      <point x="211" y="123" type="qcurve"/>
      <point x="872" y="958" type="line"/>
      <point x="786" y="1038"/>
    </contour>
    <contour>
      <point x="446" y="20" type="qcurve" smooth="yes"/>
      <point x="547" y="20"/>
      <point x="752" y="121"/>
      <point x="910" y="285"/>
      <point x="1010" y="510"/>
      <point x="1010" y="625" type="qcurve" smooth="yes"/>
      <point x="1010" y="810"/>
      <point x="903" y="930" type="qcurve"/>
      <point x="240" y="98" type="line"/>
      <point x="328" y="20"/>
    </contour>
  </outline>
</glyph>
<glyph name="ugrave" format="2">
  <advance width="1128"/>
  <unicode hex="00F9"/>
  <anchor x="1161" y="985" name="Anchor-11"/>
  <anchor x="0" y="0" name="Anchor-10"/>
  <anchor x="649" y="1495" name="Anchor-9"/>
  <anchor x="858" y="0" name="Anchor-8"/>
  <anchor x="453" y="0" name="Anchor-7"/>
  <outline>
    <contour>
      <point x="551" y="1495" type="line"/>
      <point x="616" y="1495" type="line"/>
      <point x="711" y="1346" type="line"/>
      <point x="674" y="1321" type="line"/>
    </contour>
    <contour>
      <point x="96" y="264" type="qcurve" smooth="yes"/>
      <point x="96" y="348"/>
      <point x="121" y="467" type="qcurve" smooth="yes"/>
      <point x="248" y="1063" type="line"/>
      <point x="289" y="1063" type="line"/>
      <point x="162" y="467" type="line" smooth="yes"/>
      <point x="137" y="348"/>
      <point x="137" y="268" type="qcurve" smooth="yes"/>
      <point x="137" y="20"/>
      <point x="352" y="20" type="qcurve" smooth="yes"/>
      <point x="498" y="20"/>
      <point x="790" y="227"/>
      <point x="868" y="387" type="qcurve"/>
      <point x="1012" y="1063" type="line"/>
      <point x="1053" y="1063" type="line"/>
      <point x="856" y="137" type="line" smooth="yes"/>
      <point x="854" y="124"/>
      <point x="846" y="91"/>
      <point x="842" y="72"/>
      <point x="842" y="70" type="qcurve" smooth="yes"/>
      <point x="842" y="41"/>
      <point x="868" y="41" type="qcurve"/>
      <point x="858" y="0" type="line"/>
      <point x="846" y="0"/>
      <point x="834" y="4" type="qcurve" smooth="yes"/>
      <point x="803" y="16"/>
      <point x="803" y="59" type="qcurve" smooth="yes"/>
      <point x="803" y="73"/>
      <point x="844" y="270" type="qcurve"/>
      <point x="750" y="137"/>
      <point x="479" y="-20"/>
      <point x="342" y="-20" type="qcurve" smooth="yes"/>
      <point x="96" y="-20"/>
    </contour>
  </outline>
</glyph>
<glyph name="Amacron" format="2">
  <advance width="1325"/>
  <unicode hex="0100"/>
  <anchor x="0" y="0" name="Anchor-11"/>
  <anchor x="0" y="0" name="Anchor-10"/>
  <anchor x="932" y="1837" name="Anchor-9"/>
  <anchor x="1159" y="0" name="Anchor-8"/>
  <anchor x="551" y="0" name="Anchor-7"/>
  <outline>
    <contour>
      <point x="651" y="1796" type="line"/>
      <point x="659" y="1837" type="line"/>
      <point x="1204" y="1837" type="line"/>
      <point x="1196" y="1796" type="line"/>
    </contour>
    <contour>
      <point x="831" y="1454" type="line"/>
      <point x="868" y="1454" type="line"/>
      <point x="1159" y="0" type="line"/>
      <point x="1114" y="0" type="line"/>
      <point x="1010" y="520" type="line"/>
      <point x="291" y="520" type="line"/>
      <point x="-35" y="0" type="line"/>
      <point x="-80" y="0" type="line"/>
    </contour>
    <contour>
      <point x="1001" y="561" type="line"/>
      <point x="838" y="1395" type="line"/>
      <point x="315" y="561" type="line"/>
    </contour>
  </outline>
</glyph>
<glyph name="abreve" format="2">
  <advance width="1187"/>
  <unicode hex="0103"/>
  <anchor x="0" y="0" name="Anchor-11"/>
  <anchor x="0" y="0" name="Anchor-10"/>
  <anchor x="799" y="1495" name="Anchor-9"/>
  <anchor x="918" y="0" name="Anchor-8"/>
  <anchor x="481" y="0" name="Anchor-7"/>
  <outline>
    <contour>
      <point x="909" y="1495" type="qcurve"/>
      <point x="946" y="1495" type="line"/>
      <point x="933" y="1432"/>
      <point x="825" y="1337"/>
      <point x="768" y="1337" type="qcurve" smooth="yes"/>
      <point x="717" y="1337"/>
      <point x="651" y="1410"/>
      <point x="651" y="1464" type="qcurve" smooth="yes"/>
      <point x="651" y="1475"/>
      <point x="655" y="1495" type="qcurve"/>
      <point x="694" y="1495" type="line"/>
      <point x="692" y="1487"/>
      <point x="692" y="1473" type="qcurve" smooth="yes"/>
      <point x="692" y="1432"/>
      <point x="739" y="1372"/>
      <point x="774" y="1372" type="qcurve" smooth="yes"/>
      <point x="814" y="1372"/>
      <point x="894" y="1444"/>
    </contour>
    <contour>
      <point x="63" y="430" type="qcurve" smooth="yes"/>
      <point x="63" y="550"/>
      <point x="163" y="788"/>
      <point x="326" y="968"/>
      <point x="545" y="1079"/>
      <point x="657" y="1079" type="qcurve" smooth="yes"/>
      <point x="791" y="1079"/>
      <point x="976" y="930"/>
      <point x="1018" y="815" type="qcurve"/>
      <point x="1071" y="1063" type="line"/>
      <point x="1114" y="1063" type="line"/>
      <point x="905" y="90" type="line" smooth="yes"/>
      <point x="901" y="78"/>
      <point x="901" y="66" type="qcurve" smooth="yes"/>
      <point x="901" y="41"/>
      <point x="926" y="41" type="qcurve"/>
      <point x="918" y="0" type="line"/>
      <point x="905" y="0"/>
      <point x="899" y="2" type="qcurve" smooth="yes"/>
      <point x="860" y="14"/>
      <point x="860" y="59" type="qcurve" smooth="yes"/>
      <point x="860" y="68"/>
      <point x="891" y="221" type="qcurve"/>
      <point x="803" y="113"/>
      <point x="560" y="-20"/>
      <point x="442" y="-20" type="qcurve" smooth="yes"/>
      <point x="328" y="-20"/>
      <point x="152" y="110"/>
      <point x="63" y="313"/>
    </contour>
    <contour>
      <point x="918" y="346" type="qcurve"/>
      <point x="999" y="729" type="line"/>
      <point x="981" y="857"/>
      <point x="790" y="1038"/>
      <point x="651" y="1038" type="qcurve" smooth="yes"/>
      <point x="547" y="1038"/>
      <point x="344" y="928"/>
      <point x="196" y="756"/>
      <point x="104" y="536"/>
      <point x="104" y="430" type="qcurve" smooth="yes"/>
      <point x="104" y="264"/>
      <point x="301" y="20"/>
      <point x="446" y="20" type="qcurve" smooth="yes"/>
      <point x="533" y="20"/>
      <point x="735" y="110"/>
      <point x="895" y="263"/>
    </contour>
  </outline>
</glyph>
<glyph name="Aogonek" format="2">
  <advance width="1325"/>
  <unicode hex="0104"/>
  <anchor x="0" y="0" name="Anchor-11"/>
  <anchor x="0" y="0" name="Anchor-10"/>
  <anchor x="850" y="1454" name="Anchor-9"/>
  <anchor x="1159" y="0" name="Anchor-8"/>
  <anchor x="551" y="0" name="Anchor-7"/>
  <outline>
    <contour>
      <point x="999" y="-217" type="qcurve" smooth="yes"/>
      <point x="999" y="-247"/>
      <point x="1041" y="-286"/>
      <point x="1090" y="-301" type="qcurve"/>
      <point x="1063" y="-336" type="line"/>
      <point x="965" y="-311"/>
      <point x="965" y="-231" type="qcurve" smooth="yes"/>
      <point x="965" y="-177"/>
      <point x="1036" y="-72"/>
      <point x="1114" y="0" type="qcurve"/>
      <point x="1010" y="520" type="line"/>
      <point x="291" y="520" type="line"/>
      <point x="-35" y="0" type="line"/>
      <point x="-80" y="0" type="line"/>
      <point x="831" y="1454" type="line"/>
      <point x="868" y="1454" type="line"/>
      <point x="1159" y="0" type="line"/>
      <point x="1069" y="-76"/>
      <point x="999" y="-172"/>
    </contour>
    <contour>
      <point x="315" y="561" type="line"/>
      <point x="1001" y="561" type="line"/>
      <point x="838" y="1395" type="line"/>
    </contour>
  </outline>
</glyph>
<glyph name="Dcaron" format="2">
  <advance width="1400"/>
  <unicode hex="010E"/>
  <anchor x="0" y="0" name="Anchor-11"/>
  <anchor x="664" y="727" name="Anchor-10"/>
  <anchor x="928" y="1886" name="Anchor-9"/>
  <anchor x="0" y="0" name="Anchor-8"/>
  <anchor x="506" y="0" name="Anchor-7"/>
  <outline>
    <contour>
      <point x="711" y="1862" type="line"/>
      <point x="748" y="1886" type="line"/>
      <point x="887" y="1757" type="line"/>
      <point x="1079" y="1886" type="line"/>
      <point x="1106" y="1862" type="line"/>
      <point x="893" y="1710" type="line"/>
      <point x="860" y="1710" type="line"/>
    </contour>
    <contour>
      <point x="377" y="1454" type="line"/>
      <point x="821" y="1454" type="line" smooth="yes"/>
      <point x="950" y="1454"/>
      <point x="1151" y="1369"/>
      <point x="1274" y="1217"/>
      <point x="1337" y="1019"/>
      <point x="1337" y="901" type="qcurve" smooth="yes"/>
      <point x="1337" y="710"/>
      <point x="1212" y="376"/>
      <point x="995" y="137"/>
      <point x="688" y="0"/>
      <point x="512" y="0" type="qcurve" smooth="yes"/>
      <point x="68" y="0" type="line"/>
    </contour>
    <contour>
      <point x="520" y="41" type="line" smooth="yes"/>
      <point x="697" y="41"/>
      <point x="993" y="181"/>
      <point x="1188" y="417"/>
      <point x="1296" y="723"/>
      <point x="1296" y="891" type="qcurve" smooth="yes"/>
      <point x="1296" y="1127"/>
      <point x="1046" y="1413"/>
      <point x="813" y="1413" type="qcurve" smooth="yes"/>
      <point x="410" y="1413" type="line"/>
      <point x="117" y="41" type="line"/>
    </contour>
  </outline>
</glyph>
<glyph name="Ebreve" format="2">
  <advance width="1204"/>
  <unicode hex="0114"/>
  <anchor x="0" y="0" name="Anchor-11"/>
  <anchor x="0" y="0" name="Anchor-10"/>
  <anchor x="891" y="1886" name="Anchor-9"/>
  <anchor x="975" y="0" name="Anchor-8"/>
  <anchor x="489" y="0" name="Anchor-7"/>
  <outline>
    <contour>
      <point x="1001" y="1886" type="qcurve"/>
      <point x="1038" y="1886" type="line"/>
      <point x="1025" y="1823"/>
      <point x="917" y="1729"/>
      <point x="860" y="1729" type="qcurve" smooth="yes"/>
      <point x="809" y="1729"/>
      <point x="743" y="1801"/>
      <point x="743" y="1855" type="qcurve" smooth="yes"/>
      <point x="743" y="1861"/>
      <point x="748" y="1886" type="qcurve"/>
      <point x="786" y="1886" type="line"/>
      <point x="784" y="1878"/>
      <point x="784" y="1864" type="qcurve" smooth="yes"/>
      <point x="784" y="1823"/>
      <point x="831" y="1763"/>
      <point x="866" y="1763" type="qcurve" smooth="yes"/>
      <point x="906" y="1763"/>
      <point x="986" y="1835"/>
    </contour>
    <contour>
      <point x="377" y="1454" type="line"/>
      <point x="1266" y="1454" type="line"/>
      <point x="1257" y="1413" type="line"/>
      <point x="410" y="1413" type="line"/>
      <point x="270" y="764" type="line"/>
      <point x="1014" y="764" type="line"/>
      <point x="1006" y="723" type="line"/>
      <point x="262" y="723" type="line"/>
      <point x="117" y="41" type="line"/>
      <point x="983" y="41" type="line"/>
      <point x="975" y="0" type="line"/>
      <point x="68" y="0" type="line"/>
    </contour>
  </outline>
</glyph>
<glyph name="ebreve" format="2">
  <advance width="1067"/>
  <unicode hex="0115"/>
  <anchor x="0" y="0" name="Anchor-11"/>
  <anchor x="0" y="0" name="Anchor-10"/>
  <anchor x="764" y="1495" name="Anchor-9"/>
  <anchor x="498" y="0" name="Anchor-8"/>
  <anchor x="451" y="0" name="Anchor-7"/>
  <outline>
    <contour>
      <point x="733" y="1337" type="qcurve" smooth="yes"/>
      <point x="682" y="1337"/>
      <point x="616" y="1410"/>
      <point x="616" y="1464" type="qcurve" smooth="yes"/>
      <point x="616" y="1470"/>
      <point x="621" y="1495" type="qcurve"/>
      <point x="659" y="1495" type="line"/>
      <point x="657" y="1487"/>
      <point x="657" y="1473" type="qcurve" smooth="yes"/>
      <point x="657" y="1432"/>
      <point x="704" y="1372"/>
      <point x="739" y="1372" type="qcurve" smooth="yes"/>
      <point x="779" y="1372"/>
      <point x="859" y="1444"/>
      <point x="874" y="1495" type="qcurve"/>
      <point x="911" y="1495" type="line"/>
      <point x="898" y="1432"/>
      <point x="790" y="1337"/>
    </contour>
    <contour>
      <point x="459" y="508" type="qcurve" smooth="yes"/>
      <point x="319" y="508"/>
      <point x="113" y="520" type="qcurve"/>
      <point x="106" y="469"/>
      <point x="106" y="432" type="qcurve" smooth="yes"/>
      <point x="106" y="318"/>
      <point x="185" y="134"/>
      <point x="351" y="20"/>
      <point x="465" y="20" type="qcurve" smooth="yes"/>
      <point x="581" y="20"/>
      <point x="813" y="154"/>
      <point x="872" y="262" type="qcurve"/>
      <point x="911" y="250" type="line"/>
      <point x="842" y="128"/>
      <point x="590" y="-20"/>
      <point x="451" y="-20" type="qcurve" smooth="yes"/>
      <point x="333" y="-20"/>
      <point x="154" y="103"/>
      <point x="63" y="306"/>
      <point x="63" y="430" type="qcurve" smooth="yes"/>
      <point x="63" y="551"/>
      <point x="159" y="785"/>
      <point x="321" y="967"/>
      <point x="554" y="1079"/>
      <point x="682" y="1079" type="qcurve" smooth="yes"/>
      <point x="755" y="1079"/>
      <point x="895" y="1018"/>
      <point x="995" y="886"/>
      <point x="995" y="799" type="qcurve" smooth="yes"/>
      <point x="995" y="508"/>
    </contour>
    <contour>
      <point x="672" y="1038" type="qcurve" smooth="yes"/>
      <point x="542" y="1038"/>
      <point x="307" y="906"/>
      <point x="150" y="689"/>
      <point x="121" y="561" type="qcurve"/>
      <point x="326" y="549"/>
      <point x="465" y="549" type="qcurve" smooth="yes"/>
      <point x="952" y="549"/>
      <point x="952" y="801" type="qcurve" smooth="yes"/>
      <point x="952" y="860"/>
      <point x="899" y="955"/>
      <point x="815" y="1010"/>
      <point x="720" y="1038"/>
    </contour>
  </outline>
</glyph>
<glyph name="Eogonek" format="2">
  <advance width="1204"/>
  <unicode hex="0118"/>
  <anchor x="0" y="0" name="Anchor-11"/>
  <anchor x="0" y="0" name="Anchor-10"/>
  <anchor x="799" y="1454" name="Anchor-9"/>
  <anchor x="975" y="0" name="Anchor-8"/>
  <anchor x="489" y="0" name="Anchor-7"/>
  <outline>
    <contour>
      <point x="1257" y="1413" type="line"/>
      <point x="410" y="1413" type="line"/>
      <point x="270" y="764" type="line"/>
      <point x="1014" y="764" type="line"/>
      <point x="1006" y="723" type="line"/>
      <point x="262" y="723" type="line"/>
      <point x="117" y="41" type="line"/>
      <point x="983" y="41" type="line"/>
      <point x="975" y="0" type="line"/>
      <point x="885" y="-76"/>
      <point x="815" y="-172"/>
      <point x="815" y="-217" type="qcurve" smooth="yes"/>
      <point x="815" y="-247"/>
      <point x="856" y="-286"/>
      <point x="905" y="-301" type="qcurve"/>
      <point x="879" y="-336" type="line"/>
      <point x="780" y="-311"/>
      <point x="780" y="-231" type="qcurve" smooth="yes"/>
      <point x="780" y="-177"/>
      <point x="851" y="-72"/>
      <point x="930" y="0" type="qcurve"/>
      <point x="68" y="0" type="line"/>
      <point x="377" y="1454" type="line"/>
      <point x="1266" y="1454" type="line"/>
    </contour>
  </outline>
</glyph>
<glyph name="eogonek" format="2">
  <advance width="1067"/>
  <unicode hex="0119"/>
  <anchor x="0" y="0" name="Anchor-11"/>
  <anchor x="0" y="0" name="Anchor-10"/>
  <anchor x="672" y="1063" name="Anchor-9"/>
  <anchor x="498" y="0" name="Anchor-8"/>
  <anchor x="451" y="0" name="Anchor-7"/>
  <outline>
    <contour>
      <point x="459" y="508" type="qcurve" smooth="yes"/>
      <point x="319" y="508"/>
      <point x="113" y="520" type="qcurve"/>
      <point x="106" y="469"/>
      <point x="106" y="432" type="qcurve" smooth="yes"/>
      <point x="106" y="318"/>
      <point x="185" y="134"/>
      <point x="351" y="20"/>
      <point x="465" y="20" type="qcurve" smooth="yes"/>
      <point x="475" y="20" type="line"/>
      <point x="479" y="25" type="line"/>
      <point x="487" y="25" type="line"/>
      <point x="489" y="20" type="line"/>
      <point x="600" y="28"/>
      <point x="817" y="161"/>
      <point x="872" y="262" type="qcurve"/>
      <point x="911" y="250" type="line"/>
      <point x="846" y="133"/>
      <point x="608" y="-12"/>
      <point x="475" y="-20" type="qcurve"/>
      <point x="399" y="-87"/>
      <point x="338" y="-175"/>
      <point x="338" y="-217" type="qcurve" smooth="yes"/>
      <point x="338" y="-247"/>
      <point x="379" y="-286"/>
      <point x="428" y="-301" type="qcurve"/>
      <point x="401" y="-336" type="line"/>
      <point x="303" y="-311"/>
      <point x="303" y="-231" type="qcurve" smooth="yes"/>
      <point x="303" y="-181"/>
      <point x="364" y="-84"/>
      <point x="430" y="-20" type="qcurve"/>
      <point x="262" y="-13"/>
      <point x="63" y="244"/>
      <point x="63" y="430" type="qcurve" smooth="yes"/>
      <point x="63" y="551"/>
      <point x="159" y="785"/>
      <point x="321" y="967"/>
      <point x="554" y="1079"/>
      <point x="682" y="1079" type="qcurve" smooth="yes"/>
      <point x="755" y="1079"/>
      <point x="895" y="1018"/>
      <point x="995" y="886"/>
      <point x="995" y="799" type="qcurve" smooth="yes"/>
      <point x="995" y="508"/>
    </contour>
    <contour>
      <point x="672" y="1038" type="qcurve" smooth="yes"/>
      <point x="542" y="1038"/>
      <point x="307" y="906"/>
      <point x="150" y="689"/>
      <point x="121" y="561" type="qcurve"/>
      <point x="326" y="549"/>
      <point x="465" y="549" type="qcurve" smooth="yes"/>
      <point x="952" y="549"/>
      <point x="952" y="801" type="qcurve" smooth="yes"/>
      <point x="952" y="860"/>
      <point x="899" y="955"/>
      <point x="815" y="1010"/>
      <point x="720" y="1038"/>
    </contour>
  </outline>
</glyph>
<glyph name="Ecaron" format="2">
  <advance width="1204"/>
  <unicode hex="011A"/>
  <anchor x="0" y="0" name="Anchor-11"/>
  <anchor x="0" y="0" name="Anchor-10"/>
  <anchor x="891" y="1886" name="Anchor-9"/>
  <anchor x="975" y="0" name="Anchor-8"/>
  <anchor x="489" y="0" name="Anchor-7"/>
  <outline>
    <contour>
      <point x="674" y="1862" type="line"/>
      <point x="711" y="1886" type="line"/>
      <point x="850" y="1757" type="line"/>
      <point x="1042" y="1886" type="line"/>
      <point x="1069" y="1862" type="line"/>
      <point x="856" y="1710" type="line"/>
      <point x="823" y="1710" type="line"/>
    </contour>
    <contour>
      <point x="377" y="1454" type="line"/>
      <point x="1266" y="1454" type="line"/>
      <point x="1257" y="1413" type="line"/>
      <point x="410" y="1413" type="line"/>
      <point x="270" y="764" type="line"/>
      <point x="1014" y="764" type="line"/>
      <point x="1006" y="723" type="line"/>
      <point x="262" y="723" type="line"/>
      <point x="117" y="41" type="line"/>
      <point x="983" y="41" type="line"/>
      <point x="975" y="0" type="line"/>
      <point x="68" y="0" type="line"/>
    </contour>
  </outline>
</glyph>
<glyph name="Gbreve" format="2">
  <advance width="1409"/>
  <unicode hex="011E"/>
  <anchor x="0" y="0" name="Anchor-11"/>
  <anchor x="0" y="0" name="Anchor-10"/>
  <anchor x="995" y="1880" name="Anchor-9"/>
  <anchor x="0" y="0" name="Anchor-8"/>
  <anchor x="616" y="0" name="Anchor-7"/>
  <outline>
    <contour>
      <point x="965" y="1722" type="qcurve" smooth="yes"/>
      <point x="914" y="1722"/>
      <point x="848" y="1795"/>
      <point x="848" y="1849" type="qcurve" smooth="yes"/>
      <point x="848" y="1860"/>
      <point x="852" y="1880" type="qcurve"/>
      <point x="891" y="1880" type="line"/>
      <point x="889" y="1872"/>
      <point x="889" y="1858" type="qcurve" smooth="yes"/>
      <point x="889" y="1817"/>
      <point x="936" y="1757"/>
      <point x="971" y="1757" type="qcurve" smooth="yes"/>
      <point x="1011" y="1757"/>
      <point x="1091" y="1829"/>
      <point x="1106" y="1880" type="qcurve"/>
      <point x="1143" y="1880" type="line"/>
      <point x="1130" y="1817"/>
      <point x="1022" y="1722"/>
    </contour>
    <contour>
      <point x="924" y="1423" type="qcurve" smooth="yes"/>
      <point x="760" y="1423"/>
      <point x="466" y="1278"/>
      <point x="265" y="1046"/>
      <point x="147" y="750"/>
      <point x="147" y="600" type="qcurve" smooth="yes"/>
      <point x="147" y="486"/>
      <point x="216" y="279"/>
      <point x="339" y="123"/>
      <point x="525" y="31"/>
      <point x="635" y="31" type="qcurve" smooth="yes"/>
      <point x="897" y="31"/>
      <point x="1182" y="309" type="qcurve"/>
      <point x="1255" y="651" type="line"/>
      <point x="932" y="651" type="line"/>
      <point x="940" y="692" type="line"/>
      <point x="1305" y="692" type="line"/>
      <point x="1157" y="0" type="line"/>
      <point x="1116" y="0" type="line"/>
      <point x="1169" y="248" type="line"/>
      <point x="1036" y="120"/>
      <point x="753" y="-10"/>
      <point x="616" y="-10" type="qcurve" smooth="yes"/>
      <point x="494" y="-10"/>
      <point x="296" y="94"/>
      <point x="172" y="267"/>
      <point x="106" y="483"/>
      <point x="106" y="600" type="qcurve" smooth="yes"/>
      <point x="106" y="763"/>
      <point x="233" y="1077"/>
      <point x="448" y="1317"/>
      <point x="755" y="1464"/>
      <point x="924" y="1464" type="qcurve" smooth="yes"/>
      <point x="1111" y="1464"/>
      <point x="1332" y="1293"/>
      <point x="1368" y="1147" type="qcurve"/>
      <point x="1327" y="1135" type="line"/>
      <point x="1243" y="1423"/>
    </contour>
  </outline>
</glyph>
<glyph name="gbreve" format="2">
  <advance width="1179"/>
  <unicode hex="011F"/>
  <anchor x="0" y="0" name="Anchor-11"/>
  <anchor x="0" y="0" name="Anchor-10"/>
  <anchor x="776" y="1495" name="Anchor-9"/>
  <anchor x="0" y="0" name="Anchor-8"/>
  <anchor x="0" y="0" name="Anchor-7"/>
  <outline>
    <contour>
      <point x="887" y="1495" type="qcurve"/>
      <point x="924" y="1495" type="line"/>
      <point x="911" y="1432"/>
      <point x="802" y="1337"/>
      <point x="745" y="1337" type="qcurve" smooth="yes"/>
      <point x="694" y="1337"/>
      <point x="629" y="1410"/>
      <point x="629" y="1464" type="qcurve" smooth="yes"/>
      <point x="629" y="1475"/>
      <point x="633" y="1495" type="qcurve"/>
      <point x="672" y="1495" type="line"/>
      <point x="670" y="1487"/>
      <point x="670" y="1473" type="qcurve" smooth="yes"/>
      <point x="670" y="1432"/>
      <point x="717" y="1372"/>
      <point x="752" y="1372" type="qcurve" smooth="yes"/>
      <point x="792" y="1372"/>
      <point x="872" y="1444"/>
    </contour>
    <contour>
      <point x="-45" y="-203" type="qcurve"/>
      <point x="-4" y="-190" type="line"/>
      <point x="30" y="-305"/>
      <point x="218" y="-416"/>
      <point x="348" y="-416" type="qcurve" smooth="yes"/>
      <point x="461" y="-416"/>
      <point x="658" y="-334"/>
      <point x="805" y="-163"/>
      <point x="831" y="-45" type="qcurve" smooth="yes"/>
      <point x="889" y="221" type="line"/>
      <point x="802" y="114"/>
      <point x="556" y="-20"/>
      <point x="442" y="-20" type="qcurve" smooth="yes"/>
      <point x="355" y="-20"/>
      <point x="209" y="56"/>
      <point x="113" y="182"/>
      <point x="61" y="344"/>
      <point x="61" y="432" type="qcurve" smooth="yes"/>
      <point x="61" y="548"/>
      <point x="160" y="783"/>
      <point x="321" y="965"/>
      <point x="544" y="1079"/>
      <point x="659" y="1079" type="qcurve" smooth="yes"/>
      <point x="892" y="1079"/>
      <point x="1016" y="815" type="qcurve"/>
      <point x="1069" y="1063" type="line"/>
      <point x="1108" y="1063" type="line"/>
      <point x="872" y="-45" type="line" smooth="yes"/>
      <point x="851" y="-147"/>
      <point x="743" y="-308"/>
      <point x="596" y="-406"/>
      <point x="428" y="-457"/>
      <point x="340" y="-457" type="qcurve" smooth="yes"/>
      <point x="169" y="-457"/>
      <point x="-10" y="-326"/>
    </contour>
    <contour>
      <point x="915" y="346" type="qcurve"/>
      <point x="997" y="729" type="line"/>
      <point x="977" y="862"/>
      <point x="780" y="1038"/>
      <point x="651" y="1038" type="qcurve" smooth="yes"/>
      <point x="539" y="1038"/>
      <point x="331" y="925"/>
      <point x="188" y="750"/>
      <point x="102" y="536"/>
      <point x="102" y="436" type="qcurve" smooth="yes"/>
      <point x="102" y="324"/>
      <point x="187" y="135"/>
      <point x="350" y="20"/>
      <point x="453" y="20" type="qcurve" smooth="yes"/>
      <point x="592" y="20"/>
      <point x="880" y="229"/>
    </contour>
  </outline>
</glyph>
<glyph name="Hcircumflex" format="2">
  <advance width="1435"/>
  <unicode hex="0124"/>
  <anchor x="0" y="0" name="Anchor-11"/>
  <anchor x="760" y="727" name="Anchor-10"/>
  <anchor x="987" y="1827" name="Anchor-9"/>
  <anchor x="0" y="0" name="Anchor-8"/>
  <anchor x="606" y="0" name="Anchor-7"/>
  <outline>
    <contour>
      <point x="770" y="1675" type="line"/>
      <point x="983" y="1827" type="line"/>
      <point x="1016" y="1827" type="line"/>
      <point x="1165" y="1675" type="line"/>
      <point x="1128" y="1651" type="line"/>
      <point x="989" y="1780" type="line"/>
      <point x="797" y="1651" type="line"/>
    </contour>
    <contour>
      <point x="377" y="1454" type="line"/>
      <point x="418" y="1454" type="line"/>
      <point x="270" y="764" type="line"/>
      <point x="1227" y="764" type="line"/>
      <point x="1374" y="1454" type="line"/>
      <point x="1415" y="1454" type="line"/>
      <point x="1106" y="0" type="line"/>
      <point x="1065" y="0" type="line"/>
      <point x="1219" y="723" type="line"/>
      <point x="262" y="723" type="line"/>
      <point x="109" y="0" type="line"/>
      <point x="68" y="0" type="line"/>
    </contour>
  </outline>
</glyph>
<glyph name="Hbar" format="2">
  <advance width="1452"/>
  <unicode hex="0126"/>
  <outline>
    <contour>
      <point x="1460" y="1176" type="line"/>
      <point x="1452" y="1135" type="line"/>
      <point x="1356" y="1135" type="line"/>
      <point x="1114" y="0" type="line"/>
      <point x="1073" y="0" type="line"/>
      <point x="1227" y="723" type="line"/>
      <point x="270" y="723" type="line"/>
      <point x="117" y="0" type="line"/>
      <point x="76" y="0" type="line"/>
      <point x="317" y="1135" type="line"/>
      <point x="219" y="1135" type="line"/>
      <point x="229" y="1176" type="line"/>
      <point x="326" y="1176" type="line"/>
      <point x="385" y="1454" type="line"/>
      <point x="426" y="1454" type="line"/>
      <point x="367" y="1176" type="line"/>
      <point x="1323" y="1176" type="line"/>
      <point x="1382" y="1454" type="line"/>
      <point x="1423" y="1454" type="line"/>
      <point x="1364" y="1176" type="line"/>
    </contour>
    <contour>
      <point x="1235" y="764" type="line"/>
      <point x="1315" y="1135" type="line"/>
      <point x="358" y="1135" type="line"/>
      <point x="279" y="764" type="line"/>
    </contour>
  </outline>
</glyph>
<glyph name="Itilde" format="2">
  <advance width="438"/>
  <unicode hex="0128"/>
  <anchor x="0" y="0" name="Anchor-11"/>
  <anchor x="0" y="0" name="Anchor-10"/>
  <anchor x="487" y="1880" name="Anchor-9"/>
  <anchor x="109" y="0" name="Anchor-8"/>
  <anchor x="88" y="0" name="Anchor-7"/>
  <outline>
    <contour>
      <point x="344" y="1821" type="qcurve" smooth="yes"/>
      <point x="315" y="1821"/>
      <point x="267" y="1795"/>
      <point x="239" y="1755"/>
      <point x="226" y="1731"/>
      <point x="223" y="1722" type="qcurve"/>
      <point x="184" y="1722" type="line"/>
      <point x="185" y="1728"/>
      <point x="195" y="1754"/>
      <point x="222" y="1797"/>
      <point x="258" y="1833"/>
      <point x="320" y="1860"/>
      <point x="356" y="1860" type="qcurve" smooth="yes"/>
      <point x="406" y="1860"/>
      <point x="534" y="1782"/>
      <point x="584" y="1782" type="qcurve" smooth="yes"/>
      <point x="614" y="1782"/>
      <point x="663" y="1801"/>
      <point x="691" y="1826"/>
      <point x="711" y="1858"/>
      <point x="718" y="1875"/>
      <point x="719" y="1880" type="qcurve"/>
      <point x="758" y="1880" type="line"/>
      <point x="756" y="1872"/>
      <point x="745" y="1846"/>
      <point x="716" y="1803"/>
      <point x="677" y="1769"/>
      <point x="611" y="1743"/>
      <point x="571" y="1743" type="qcurve" smooth="yes"/>
      <point x="532" y="1743"/>
      <point x="464" y="1767"/>
      <point x="424" y="1797"/>
      <point x="370" y="1821"/>
    </contour>
    <contour>
      <point x="377" y="1452" type="line"/>
      <point x="418" y="1452" type="line"/>
      <point x="109" y="0" type="line"/>
      <point x="68" y="0" type="line"/>
    </contour>
  </outline>
</glyph>
<glyph name="itilde" format="2">
  <advance width="372"/>
  <unicode hex="0129"/>
  <anchor x="0" y="0" name="Anchor-11"/>
  <anchor x="0" y="0" name="Anchor-10"/>
  <anchor x="541" y="1368" name="Anchor-9"/>
  <anchor x="223" y="20" name="Anchor-8"/>
  <anchor x="57" y="0" name="Anchor-7"/>
  <outline>
    <contour>
      <point x="397" y="1309" type="qcurve" smooth="yes"/>
      <point x="368" y="1309"/>
      <point x="320" y="1283"/>
      <point x="292" y="1243"/>
      <point x="279" y="1219"/>
      <point x="276" y="1210" type="qcurve"/>
      <point x="238" y="1210" type="line"/>
      <point x="239" y="1216"/>
      <point x="249" y="1242"/>
      <point x="276" y="1285"/>
      <point x="312" y="1321"/>
      <point x="374" y="1348"/>
      <point x="410" y="1348" type="qcurve" smooth="yes"/>
      <point x="460" y="1348"/>
      <point x="587" y="1270"/>
      <point x="637" y="1270" type="qcurve" smooth="yes"/>
      <point x="667" y="1270"/>
      <point x="716" y="1289"/>
      <point x="744" y="1314"/>
      <point x="764" y="1346"/>
      <point x="771" y="1363"/>
      <point x="772" y="1368" type="qcurve"/>
      <point x="811" y="1368" type="line"/>
      <point x="808" y="1356"/>
      <point x="790" y="1320"/>
      <point x="750" y="1267"/>
      <point x="674" y="1231"/>
      <point x="576" y="1231"/>
      <point x="496" y="1270"/>
      <point x="429" y="1309"/>
    </contour>
    <contour>
      <point x="260" y="1063" type="line"/>
      <point x="301" y="1063" type="line"/>
      <point x="76" y="0" type="line"/>
      <point x="35" y="0" type="line"/>
    </contour>
  </outline>
</glyph>
<glyph name="Imacron" format="2">
  <advance width="438"/>
  <unicode hex="012A"/>
  <anchor x="0" y="0" name="Anchor-11"/>
  <anchor x="0" y="0" name="Anchor-10"/>
  <anchor x="477" y="1831" name="Anchor-9"/>
  <anchor x="109" y="0" name="Anchor-8"/>
  <anchor x="88" y="0" name="Anchor-7"/>
  <outline>
    <contour>
      <point x="197" y="1790" type="line"/>
      <point x="205" y="1831" type="line"/>
      <point x="750" y="1831" type="line"/>
      <point x="741" y="1790" type="line"/>
    </contour>
    <contour>
      <point x="377" y="1452" type="line"/>
      <point x="418" y="1452" type="line"/>
      <point x="109" y="0" type="line"/>
      <point x="68" y="0" type="line"/>
    </contour>
  </outline>
</glyph>
<glyph name="imacron" format="2">
  <advance width="372"/>
  <unicode hex="012B"/>
  <anchor x="0" y="0" name="Anchor-11"/>
  <anchor x="0" y="0" name="Anchor-10"/>
  <anchor x="365" y="1446" name="Anchor-9"/>
  <anchor x="223" y="20" name="Anchor-8"/>
  <anchor x="57" y="0" name="Anchor-7"/>
  <outline>
    <contour>
      <point x="84" y="1405" type="line"/>
      <point x="92" y="1446" type="line"/>
      <point x="637" y="1446" type="line"/>
      <point x="629" y="1405" type="line"/>
    </contour>
    <contour>
      <point x="260" y="1063" type="line"/>
      <point x="301" y="1063" type="line"/>
      <point x="76" y="0" type="line"/>
      <point x="35" y="0" type="line"/>
    </contour>
  </outline>
</glyph>
<glyph name="Ibreve" format="2">
  <advance width="438"/>
  <unicode hex="012C"/>
  <anchor x="0" y="0" name="Anchor-11"/>
  <anchor x="0" y="0" name="Anchor-10"/>
  <anchor x="487" y="1880" name="Anchor-9"/>
  <anchor x="109" y="0" name="Anchor-8"/>
  <anchor x="88" y="0" name="Anchor-7"/>
  <outline>
    <contour>
      <point x="598" y="1880" type="qcurve"/>
      <point x="635" y="1880" type="line"/>
      <point x="622" y="1817"/>
      <point x="514" y="1722"/>
      <point x="457" y="1722" type="qcurve" smooth="yes"/>
      <point x="406" y="1722"/>
      <point x="340" y="1795"/>
      <point x="340" y="1849" type="qcurve" smooth="yes"/>
      <point x="340" y="1860"/>
      <point x="344" y="1880" type="qcurve"/>
      <point x="383" y="1880" type="line"/>
      <point x="381" y="1872"/>
      <point x="381" y="1858" type="qcurve" smooth="yes"/>
      <point x="381" y="1817"/>
      <point x="428" y="1757"/>
      <point x="463" y="1757" type="qcurve" smooth="yes"/>
      <point x="503" y="1757"/>
      <point x="583" y="1829"/>
    </contour>
    <contour>
      <point x="377" y="1452" type="line"/>
      <point x="418" y="1452" type="line"/>
      <point x="109" y="0" type="line"/>
      <point x="68" y="0" type="line"/>
    </contour>
  </outline>
</glyph>
<glyph name="ibreve" format="2">
  <advance width="372"/>
  <unicode hex="012D"/>
  <anchor x="0" y="0" name="Anchor-11"/>
  <anchor x="0" y="0" name="Anchor-10"/>
  <anchor x="375" y="1495" name="Anchor-9"/>
  <anchor x="223" y="20" name="Anchor-8"/>
  <anchor x="57" y="0" name="Anchor-7"/>
  <outline>
    <contour>
      <point x="485" y="1495" type="qcurve"/>
      <point x="522" y="1495" type="line"/>
      <point x="509" y="1432"/>
      <point x="401" y="1337"/>
      <point x="344" y="1337" type="qcurve" smooth="yes"/>
      <point x="293" y="1337"/>
      <point x="227" y="1410"/>
      <point x="227" y="1464" type="qcurve" smooth="yes"/>
      <point x="227" y="1475"/>
      <point x="231" y="1495" type="qcurve"/>
      <point x="270" y="1495" type="line"/>
      <point x="268" y="1487"/>
      <point x="268" y="1473" type="qcurve" smooth="yes"/>
      <point x="268" y="1432"/>
      <point x="315" y="1372"/>
      <point x="350" y="1372" type="qcurve" smooth="yes"/>
      <point x="390" y="1372"/>
      <point x="470" y="1444"/>
    </contour>
    <contour>
      <point x="260" y="1063" type="line"/>
      <point x="301" y="1063" type="line"/>
      <point x="76" y="0" type="line"/>
      <point x="35" y="0" type="line"/>
    </contour>
  </outline>
</glyph>
<glyph name="Iogonek" format="2">
  <advance width="438"/>
  <unicode hex="012E"/>
  <anchor x="0" y="0" name="Anchor-11"/>
  <anchor x="0" y="0" name="Anchor-10"/>
  <anchor x="395" y="1448" name="Anchor-9"/>
  <anchor x="109" y="0" name="Anchor-8"/>
  <anchor x="88" y="0" name="Anchor-7"/>
  <outline>
    <contour>
      <point x="109" y="0" type="line"/>
      <point x="19" y="-76"/>
      <point x="-51" y="-172"/>
      <point x="-51" y="-217" type="qcurve" smooth="yes"/>
      <point x="-51" y="-247"/>
      <point x="-10" y="-286"/>
      <point x="39" y="-301" type="qcurve"/>
      <point x="12" y="-336" type="line"/>
      <point x="-86" y="-311"/>
      <point x="-86" y="-231" type="qcurve" smooth="yes"/>
      <point x="-86" y="-177"/>
      <point x="-12" y="-69"/>
      <point x="70" y="6" type="qcurve"/>
      <point x="377" y="1452" type="line"/>
      <point x="418" y="1452" type="line"/>
    </contour>
  </outline>
</glyph>
<glyph name="iogonek" format="2">
  <advance width="372"/>
  <unicode hex="012F"/>
  <anchor x="0" y="0" name="Anchor-11"/>
  <anchor x="0" y="0" name="Anchor-10"/>
  <anchor x="0" y="0" name="Anchor-9"/>
  <anchor x="76" y="0" name="Anchor-8"/>
  <anchor x="57" y="0" name="Anchor-7"/>
  <outline>
    <contour>
      <point x="352" y="1495" type="line"/>
      <point x="393" y="1495" type="line"/>
      <point x="360" y="1337" type="line"/>
      <point x="319" y="1337" type="line"/>
    </contour>
    <contour>
      <point x="37" y="6" type="qcurve"/>
      <point x="260" y="1063" type="line"/>
      <point x="301" y="1063" type="line"/>
      <point x="76" y="0" type="line"/>
      <point x="-14" y="-76"/>
      <point x="-84" y="-172"/>
      <point x="-84" y="-217" type="qcurve" smooth="yes"/>
      <point x="-84" y="-247"/>
      <point x="-43" y="-286"/>
      <point x="6" y="-301" type="qcurve"/>
      <point x="-20" y="-336" type="line"/>
      <point x="-119" y="-311"/>
      <point x="-119" y="-231" type="qcurve" smooth="yes"/>
      <point x="-119" y="-177"/>
      <point x="-45" y="-69"/>
    </contour>
  </outline>
</glyph>
<glyph name="Idotaccent" format="2">
  <advance width="438"/>
  <unicode hex="0130"/>
  <anchor x="0" y="0" name="Anchor-11"/>
  <anchor x="0" y="0" name="Anchor-10"/>
  <anchor x="487" y="1880" name="Anchor-9"/>
  <anchor x="109" y="0" name="Anchor-8"/>
  <anchor x="88" y="0" name="Anchor-7"/>
  <outline>
    <contour>
      <point x="434" y="1722" type="line"/>
      <point x="467" y="1880" type="line"/>
      <point x="508" y="1880" type="line"/>
      <point x="475" y="1722" type="line"/>
    </contour>
    <contour>
      <point x="377" y="1452" type="line"/>
      <point x="418" y="1452" type="line"/>
      <point x="109" y="0" type="line"/>
      <point x="68" y="0" type="line"/>
    </contour>
  </outline>
</glyph>
<glyph name="dotlessi" format="2">
  <advance width="372"/>
  <unicode hex="0131"/>
  <anchor x="0" y="0" name="Anchor-11"/>
  <anchor x="0" y="0" name="Anchor-10"/>
  <anchor x="283" y="1063" name="Anchor-9"/>
  <anchor x="223" y="20" name="Anchor-8"/>
  <anchor x="57" y="0" name="Anchor-7"/>
  <outline>
    <contour>
      <point x="260" y="1063" type="line"/>
      <point x="301" y="1063" type="line"/>
      <point x="76" y="0" type="line"/>
      <point x="35" y="0" type="line"/>
    </contour>
  </outline>
</glyph>
<glyph name="Jcircumflex" format="2">
  <advance width="937"/>
  <unicode hex="0134"/>
  <anchor x="0" y="0" name="Anchor-11"/>
  <anchor x="0" y="0" name="Anchor-10"/>
  <anchor x="989" y="1821" name="Anchor-9"/>
  <anchor x="0" y="0" name="Anchor-8"/>
  <anchor x="0" y="0" name="Anchor-7"/>
  <outline>
    <contour>
      <point x="772" y="1669" type="line"/>
      <point x="985" y="1821" type="line"/>
      <point x="1018" y="1821" type="line"/>
      <point x="1167" y="1669" type="line"/>
      <point x="1130" y="1645" type="line"/>
      <point x="991" y="1774" type="line"/>
      <point x="799" y="1645" type="line"/>
    </contour>
    <contour>
      <point x="-66" y="68" type="qcurve"/>
      <point x="-37" y="100" type="line"/>
      <point x="70" y="14"/>
      <point x="233" y="14" type="qcurve" smooth="yes"/>
      <point x="287" y="14"/>
      <point x="380" y="35"/>
      <point x="456" y="70"/>
      <point x="523" y="131"/>
      <point x="574" y="197"/>
      <point x="622" y="295"/>
      <point x="658" y="388"/>
      <point x="694" y="519"/>
      <point x="722" y="636"/>
      <point x="739" y="715" type="qcurve" smooth="yes"/>
      <point x="897" y="1452" type="line"/>
      <point x="938" y="1452" type="line"/>
      <point x="780" y="715" type="line" smooth="yes"/>
      <point x="762" y="629"/>
      <point x="733" y="506"/>
      <point x="694" y="366"/>
      <point x="656" y="269"/>
      <point x="605" y="166"/>
      <point x="549" y="98"/>
      <point x="476" y="34"/>
      <point x="391" y="-2"/>
      <point x="286" y="-23"/>
      <point x="225" y="-23" type="qcurve" smooth="yes"/>
      <point x="131" y="-23"/>
      <point x="-4" y="23"/>
    </contour>
  </outline>
</glyph>
<glyph name="Kcedilla" format="2">
  <advance width="1210"/>
  <unicode hex="0136"/>
  <anchor x="0" y="0" name="Anchor-11"/>
  <anchor x="0" y="0" name="Anchor-10"/>
  <anchor x="0" y="0" name="Anchor-9"/>
  <anchor x="0" y="0" name="Anchor-8"/>
  <anchor x="518" y="0" name="Anchor-7"/>
  <outline>
    <contour>
      <point x="377" y="1452" type="line"/>
      <point x="418" y="1452" type="line"/>
      <point x="217" y="510" type="line"/>
      <point x="1294" y="1454" type="line"/>
      <point x="1354" y="1454" type="line"/>
      <point x="629" y="819" type="line"/>
      <point x="1071" y="0" type="line"/>
      <point x="1022" y="0" type="line"/>
      <point x="596" y="793" type="line"/>
      <point x="205" y="453" type="line"/>
      <point x="109" y="0" type="line"/>
      <point x="68" y="0" type="line"/>
    </contour>
    <contour>
      <point x="418" y="-342" type="line"/>
      <point x="463" y="-223" type="line"/>
      <point x="444" y="-223" type="line"/>
      <point x="471" y="-102" type="line"/>
      <point x="522" y="-102" type="line"/>
      <point x="498" y="-223" type="line"/>
      <point x="446" y="-342" type="line"/>
    </contour>
  </outline>
</glyph>
<glyph name="kcedilla" format="2">
  <advance width="1067"/>
  <unicode hex="0137"/>
  <anchor x="0" y="0" name="Anchor-11"/>
  <anchor x="0" y="0" name="Anchor-10"/>
  <anchor x="0" y="0" name="Anchor-9"/>
  <anchor x="0" y="0" name="Anchor-8"/>
  <anchor x="414" y="0" name="Anchor-7"/>
  <outline>
    <contour>
      <point x="1047" y="872" type="qcurve" smooth="yes"/>
      <point x="1047" y="737"/>
      <point x="798" y="534"/>
      <point x="584" y="496" type="qcurve"/>
      <point x="829" y="0" type="line"/>
      <point x="780" y="0" type="line"/>
      <point x="526" y="522" type="line"/>
      <point x="756" y="566"/>
      <point x="1001" y="744"/>
      <point x="1001" y="866" type="qcurve" smooth="yes"/>
      <point x="1001" y="952"/>
      <point x="885" y="1049"/>
      <point x="782" y="1049" type="qcurve" smooth="yes"/>
      <point x="648" y="1049"/>
      <point x="370" y="849"/>
      <point x="211" y="637" type="qcurve"/>
      <point x="76" y="0" type="line"/>
      <point x="35" y="0" type="line"/>
      <point x="352" y="1495" type="line"/>
      <point x="393" y="1495" type="line"/>
      <point x="223" y="696" type="line"/>
      <point x="355" y="889"/>
      <point x="645" y="1087"/>
      <point x="788" y="1087" type="qcurve" smooth="yes"/>
      <point x="910" y="1087"/>
      <point x="1047" y="973"/>
    </contour>
    <contour>
      <point x="340" y="-223" type="line"/>
      <point x="367" y="-102" type="line"/>
      <point x="418" y="-102" type="line"/>
      <point x="393" y="-223" type="line"/>
      <point x="342" y="-342" type="line"/>
      <point x="313" y="-342" type="line"/>
      <point x="358" y="-223" type="line"/>
    </contour>
  </outline>
</glyph>
<glyph name="kgreenlandic" format="2">
  <advance width="991"/>
  <unicode hex="0138"/>
  <outline>
    <contour>
      <point x="260" y="1063" type="line"/>
      <point x="301" y="1063" type="line"/>
      <point x="162" y="401" type="line"/>
      <point x="987" y="1059" type="line"/>
      <point x="1042" y="1059" type="line"/>
      <point x="514" y="637" type="line"/>
      <point x="827" y="0" type="line"/>
      <point x="778" y="0" type="line"/>
      <point x="477" y="608" type="line"/>
      <point x="150" y="346" type="line"/>
      <point x="76" y="0" type="line"/>
      <point x="35" y="0" type="line"/>
    </contour>
  </outline>
</glyph>
